NotoSansBengali-SemiBold.ufo
<glyph name="quotesingle.beng" format="2">
  <advance width="340"/>
  <unicode hex="0027"/>
  <outline>
    <contour>
      <point x="129" y="471" type="line"/>
      <point x="225" y="471" type="line"/>
      <point x="245" y="729" type="line"/>
      <point x="109" y="729" type="line"/>
    </contour>
  </outline>
</glyph>
<glyph name="parenleft.beng" format="2">
  <advance width="456"/>
  <unicode hex="0028"/>
  <outline>
    <contour>
      <point x="253" y="-125" type="curve"/>
      <point x="374" y="-125" type="line"/>
      <point x="282" y="9"/>
      <point x="236" y="174"/>
      <point x="236" y="330" type="curve" smooth="yes"/>
      <point x="236" y="493"/>
      <point x="282" y="658"/>
      <point x="375" y="792" type="curve"/>
      <point x="253" y="792" type="line"/>
      <point x="158" y="664"/>
      <point x="106" y="500"/>
      <point x="106" y="329" type="curve" smooth="yes"/>
      <point x="106" y="167"/>
      <point x="158" y="3"/>
    </contour>
  </outline>
</glyph>
<glyph name="parenright.beng" format="2">
  <advance width="456"/>
  <unicode hex="0029"/>
  <outline>
    <contour>
      <point x="81" y="-125" type="curve"/>
      <point x="203" y="-125" type="line"/>
      <point x="298" y="3"/>
      <point x="350" y="167"/>
      <point x="350" y="338" type="curve" smooth="yes"/>
      <point x="350" y="500"/>
      <point x="298" y="664"/>
      <point x="203" y="792" type="curve"/>
      <point x="82" y="792" type="line"/>
      <point x="172" y="661"/>
      <point x="220" y="498"/>
      <point x="220" y="336" type="curve" smooth="yes"/>
      <point x="220" y="174"/>
      <point x="174" y="9"/>
    </contour>
  </outline>
</glyph>
<glyph name="asterisk.beng" format="2">
  <advance width="607"/>
  <unicode hex="002A"/>
  <outline>
    <contour>
      <point x="124" y="336" type="line"/>
      <point x="239" y="278" type="line"/>
      <point x="306" y="430" type="line"/>
      <point x="382" y="277" type="line"/>
      <point x="493" y="336" type="line"/>
      <point x="384" y="481" type="line"/>
      <point x="550" y="493" type="line"/>
      <point x="534" y="616" type="line"/>
      <point x="352" y="565" type="line"/>
      <point x="372" y="745" type="line"/>
      <point x="244" y="745" type="line"/>
      <point x="264" y="565" type="line"/>
      <point x="85" y="616" type="line"/>
      <point x="66" y="494" type="line"/>
      <point x="231" y="481" type="line"/>
    </contour>
  </outline>
</glyph>
<glyph name="plus.beng" format="2">
  <advance width="621"/>
  <unicode hex="002B"/>
  <outline>
    <contour>
      <point x="257" y="270" type="line"/>
      <point x="257" y="84" type="line"/>
      <point x="364" y="84" type="line"/>
      <point x="364" y="270" type="line"/>
      <point x="551" y="270" type="line"/>
      <point x="551" y="376" type="line"/>
      <point x="364" y="376" type="line"/>
      <point x="364" y="565" type="line"/>
      <point x="257" y="565" type="line"/>
      <point x="257" y="376" type="line"/>
      <point x="70" y="376" type="line"/>
      <point x="70" y="270" type="line"/>
    </contour>
  </outline>
</glyph>
<glyph name="comma.beng" format="2">
  <advance width="304"/>
  <unicode hex="002C"/>
  <outline>
    <contour>
      <point x="231" y="141" type="line"/>
      <point x="94" y="141" type="line"/>
      <point x="85" y="67"/>
      <point x="65" y="-35"/>
      <point x="45" y="-119" type="curve"/>
      <point x="152" y="-119" type="line"/>
      <point x="185" y="-42"/>
      <point x="220" y="53"/>
      <point x="238" y="129" type="curve"/>
    </contour>
  </outline>
</glyph>
<glyph name="hyphen.beng" format="2">
  <advance width="366"/>
  <unicode hex="002D"/>
  <outline>
    <contour>
      <point x="52" y="358" type="line"/>
      <point x="52" y="236" type="line"/>
      <point x="314" y="236" type="line"/>
      <point x="314" y="358" type="line"/>
    </contour>
  </outline>
</glyph>
<glyph name="slash.beng" format="2">
  <advance width="512"/>
  <unicode hex="002F"/>
  <outline>
    <contour>
      <point x="329" y="793" type="line"/>
      <point x="55" y="-125" type="line"/>
      <point x="183" y="-125" type="line"/>
      <point x="457" y="793" type="line"/>
    </contour>
  </outline>
</glyph>
<glyph name="one.beng" format="2">
  <advance width="551"/>
  <unicode hex="0031"/>
  <outline>
    <contour>
      <point x="248" y="0" type="line"/>
      <point x="399" y="0" type="line"/>
      <point x="399" y="714" type="line"/>
      <point x="275" y="714" type="line"/>
      <point x="45" y="531" type="line"/>
      <point x="118" y="440" type="line"/>
      <point x="200" y="506" type="line" smooth="yes"/>
      <point x="219" y="521"/>
      <point x="246" y="547"/>
      <point x="252" y="555" type="curve"/>
      <point x="251" y="512"/>
      <point x="248" y="447"/>
      <point x="248" y="413" type="curve" smooth="yes"/>
    </contour>
  </outline>
</glyph>
<glyph name="five.beng" format="2">
  <advance width="551"/>
  <unicode hex="0035"/>
  <outline>
    <contour>
      <point x="231" y="-10" type="curve" smooth="yes"/>
      <point x="411" y="-10"/>
      <point x="509" y="84"/>
      <point x="509" y="239" type="curve" smooth="yes"/>
      <point x="509" y="380"/>
      <point x="415" y="456"/>
      <point x="292" y="456" type="curve" smooth="yes"/>
      <point x="255" y="456"/>
      <point x="224" y="451"/>
      <point x="202" y="446" type="curve"/>
      <point x="214" y="586" type="line"/>
      <point x="460" y="586" type="line"/>
      <point x="460" y="714" type="line"/>
      <point x="83" y="714" type="line"/>
      <point x="56" y="350" type="line"/>
      <point x="116" y="318" type="line"/>
      <point x="141" y="326"/>
      <point x="187" y="334"/>
      <point x="220" y="334" type="curve" smooth="yes"/>
      <point x="313" y="334"/>
      <point x="357" y="296"/>
      <point x="357" y="226" type="curve" smooth="yes"/>
      <point x="357" y="147"/>
      <point x="311" y="113"/>
      <point x="223" y="113" type="curve" smooth="yes"/>
      <point x="165" y="113"/>
      <point x="88" y="133"/>
      <point x="42" y="159" type="curve"/>
      <point x="42" y="29" type="line"/>
      <point x="89" y="2"/>
      <point x="159" y="-10"/>
    </contour>
  </outline>
</glyph>
<glyph name="seven.beng" format="2">
  <advance width="551"/>
  <unicode hex="0037"/>
  <outline>
    <contour>
      <point x="355" y="586" type="line"/>
      <point x="101" y="0" type="line"/>
      <point x="259" y="0" type="line"/>
      <point x="519" y="618" type="line"/>
      <point x="519" y="713" type="line"/>
      <point x="27" y="713" type="line"/>
      <point x="27" y="586" type="line"/>
    </contour>
  </outline>
</glyph>
<glyph name="eight.beng" format="2">
  <advance width="551"/>
  <unicode hex="0038"/>
  <outline>
    <contour>
      <point x="276" y="-10" type="curve" smooth="yes"/>
      <point x="418" y="-10"/>
      <point x="516" y="66"/>
      <point x="516" y="185" type="curve" smooth="yes"/>
      <point x="516" y="280"/>
      <point x="442" y="336"/>
      <point x="366" y="377" type="curve"/>
      <point x="439" y="414"/>
      <point x="494" y="464"/>
      <point x="494" y="551" type="curve" smooth="yes"/>
      <point x="494" y="666"/>
      <point x="394" y="723"/>
      <point x="276" y="723" type="curve" smooth="yes"/>
      <point x="160" y="723"/>
      <point x="57" y="665"/>
      <point x="57" y="552" type="curve" smooth="yes"/>
      <point x="57" y="467"/>
      <point x="108" y="414"/>
      <point x="172" y="373" type="curve"/>
      <point x="96" y="336"/>
      <point x="35" y="278"/>
      <point x="35" y="181" type="curve" smooth="yes"/>
      <point x="35" y="62"/>
      <point x="121" y="-10"/>
    </contour>
    <contour>
      <point x="274" y="101" type="curve" smooth="yes"/>
      <point x="209" y="101"/>
      <point x="175" y="138"/>
      <point x="175" y="190" type="curve" smooth="yes"/>
      <point x="175" y="245"/>
      <point x="213" y="282"/>
      <point x="270" y="311" type="curve"/>
      <point x="327" y="275"/>
      <point x="376" y="243"/>
      <point x="376" y="189" type="curve" smooth="yes"/>
      <point x="376" y="136"/>
      <point x="342" y="101"/>
    </contour>
    <contour>
      <point x="276" y="440" type="curve"/>
      <point x="234" y="463"/>
      <point x="199" y="485"/>
      <point x="199" y="540" type="curve" smooth="yes"/>
      <point x="199" y="586"/>
      <point x="232" y="613"/>
      <point x="275" y="613" type="curve" smooth="yes"/>
      <point x="319" y="613"/>
      <point x="352" y="586"/>
      <point x="352" y="540" type="curve" smooth="yes"/>
      <point x="352" y="488"/>
      <point x="316" y="460"/>
    </contour>
  </outline>
</glyph>
<glyph name="nine.beng" format="2">
  <advance width="551"/>
  <unicode hex="0039"/>
  <outline>
    <contour>
      <point x="173" y="-10" type="curve" smooth="yes"/>
      <point x="457" y="-10"/>
      <point x="515" y="204"/>
      <point x="515" y="409" type="curve" smooth="yes"/>
      <point x="515" y="623"/>
      <point x="405" y="722"/>
      <point x="264" y="722" type="curve" smooth="yes"/>
      <point x="121" y="722"/>
      <point x="31" y="628"/>
      <point x="31" y="474" type="curve" smooth="yes"/>
      <point x="31" y="330"/>
      <point x="106" y="248"/>
      <point x="230" y="248" type="curve" smooth="yes"/>
      <point x="307" y="248"/>
      <point x="354" y="284"/>
      <point x="380" y="331" type="curve"/>
      <point x="386" y="331" type="line"/>
      <point x="380" y="200"/>
      <point x="339" y="108"/>
      <point x="162" y="108" type="curve" smooth="yes"/>
      <point x="134" y="108"/>
      <point x="105" y="112"/>
      <point x="81" y="118" type="curve"/>
      <point x="81" y="-3" type="line"/>
      <point x="105" y="-8"/>
      <point x="146" y="-10"/>
    </contour>
    <contour>
      <point x="265" y="364" type="curve" smooth="yes"/>
      <point x="206" y="364"/>
      <point x="177" y="407"/>
      <point x="177" y="476" type="curve" smooth="yes"/>
      <point x="177" y="563"/>
      <point x="214" y="601"/>
      <point x="267" y="601" type="curve" smooth="yes"/>
      <point x="332" y="601"/>
      <point x="365" y="529"/>
      <point x="365" y="463" type="curve" smooth="yes"/>
      <point x="365" y="415"/>
      <point x="326" y="364"/>
    </contour>
  </outline>
</glyph>
<glyph name="colon.beng" format="2">
  <advance width="324"/>
  <unicode hex="003A"/>
  <outline>
    <contour>
      <point x="162" y="390" type="curve" smooth="yes"/>
      <point x="207" y="390"/>
      <point x="247" y="414"/>
      <point x="247" y="473" type="curve" smooth="yes"/>
      <point x="247" y="534"/>
      <point x="207" y="556"/>
      <point x="162" y="556" type="curve" smooth="yes"/>
      <point x="114" y="556"/>
      <point x="76" y="534"/>
      <point x="76" y="473" type="curve" smooth="yes"/>
      <point x="76" y="414"/>
      <point x="114" y="390"/>
    </contour>
    <contour>
      <point x="162" y="-13" type="curve" smooth="yes"/>
      <point x="207" y="-13"/>
      <point x="247" y="11"/>
      <point x="247" y="70" type="curve" smooth="yes"/>
      <point x="247" y="131"/>
      <point x="207" y="153"/>
      <point x="162" y="153" type="curve" smooth="yes"/>
      <point x="114" y="153"/>
      <point x="76" y="131"/>
      <point x="76" y="70" type="curve" smooth="yes"/>
      <point x="76" y="11"/>
      <point x="114" y="-13"/>
    </contour>
  </outline>
</glyph>
<glyph name="less.beng" format="2">
  <advance width="621"/>
  <unicode hex="003C"/>
  <outline>
    <contour>
      <point x="70" y="289" type="line"/>
      <point x="551" y="55" type="line"/>
      <point x="551" y="172" type="line"/>
      <point x="221" y="324" type="line"/>
      <point x="551" y="476" type="line"/>
      <point x="551" y="593" type="line"/>
      <point x="70" y="359" type="line"/>
    </contour>
  </outline>
</glyph>
<glyph name="equal.beng" format="2">
  <advance width="621"/>
  <unicode hex="003D"/>
  <outline>
    <contour>
      <point x="70" y="471" type="line"/>
      <point x="70" y="365" type="line"/>
      <point x="551" y="365" type="line"/>
      <point x="551" y="471" type="line"/>
    </contour>
    <contour>
      <point x="70" y="281" type="line"/>
      <point x="70" y="175" type="line"/>
      <point x="551" y="175" type="line"/>
      <point x="551" y="281" type="line"/>
    </contour>
  </outline>
</glyph>
<glyph name="greater.beng" format="2">
  <advance width="621"/>
  <unicode hex="003E"/>
  <outline>
    <contour>
      <point x="70" y="172" type="line"/>
      <point x="70" y="55" type="line"/>
      <point x="551" y="289" type="line"/>
      <point x="551" y="359" type="line"/>
      <point x="70" y="593" type="line"/>
      <point x="70" y="476" type="line"/>
      <point x="400" y="324" type="line"/>
    </contour>
  </outline>
</glyph>
<glyph name="question.beng" format="2">
  <advance width="544"/>
  <unicode hex="003F"/>
  <outline>
    <contour>
      <point x="179" y="237" type="line"/>
      <point x="308" y="237" type="line"/>
      <point x="308" y="266" type="line" smooth="yes"/>
      <point x="308" y="308"/>
      <point x="319" y="323"/>
      <point x="374" y="366" type="curve" smooth="yes"/>
      <point x="446" y="423"/>
      <point x="482" y="464"/>
      <point x="482" y="547" type="curve" smooth="yes"/>
      <point x="482" y="658"/>
      <point x="400" y="724"/>
      <point x="267" y="724" type="curve" smooth="yes"/>
      <point x="196" y="724"/>
      <point x="118" y="696"/>
      <point x="62" y="663" type="curve"/>
      <point x="112" y="555" type="line"/>
      <point x="167" y="583"/>
      <point x="220" y="604"/>
      <point x="265" y="604" type="curve" smooth="yes"/>
      <point x="316" y="604"/>
      <point x="341" y="577"/>
      <point x="341" y="540" type="curve" smooth="yes"/>
      <point x="341" y="492"/>
      <point x="321" y="471"/>
      <point x="267" y="428" type="curve" smooth="yes"/>
      <point x="205" y="379"/>
      <point x="179" y="339"/>
      <point x="179" y="273" type="curve" smooth="yes"/>
    </contour>
    <contour>
      <point x="249" y="-13" type="curve" smooth="yes"/>
      <point x="295" y="-13"/>
      <point x="334" y="11"/>
      <point x="334" y="70" type="curve" smooth="yes"/>
      <point x="334" y="131"/>
      <point x="295" y="153"/>
      <point x="249" y="153" type="curve" smooth="yes"/>
      <point x="201" y="153"/>
      <point x="163" y="131"/>
      <point x="163" y="70" type="curve" smooth="yes"/>
      <point x="163" y="11"/>
      <point x="201" y="-13"/>
    </contour>
  </outline>
</glyph>
<glyph name="bracketleft.beng" format="2">
  <advance width="452"/>
  <unicode hex="005B"/>
  <outline>
    <contour>
      <point x="134" y="792" type="line"/>
      <point x="134" y="-125" type="line"/>
      <point x="371" y="-125" type="line"/>
      <point x="371" y="-22" type="line"/>
      <point x="261" y="-22" type="line"/>
      <point x="261" y="689" type="line"/>
      <point x="371" y="689" type="line"/>
      <point x="371" y="792" type="line"/>
    </contour>
  </outline>
</glyph>
<glyph name="backslash.beng" format="2">
  <advance width="512"/>
  <unicode hex="005C"/>
  <outline>
    <contour>
      <point x="55" y="793" type="line"/>
      <point x="329" y="-125" type="line"/>
      <point x="457" y="-125" type="line"/>
      <point x="183" y="793" type="line"/>
    </contour>
  </outline>
</glyph>
<glyph name="bracketright.beng" format="2">
  <advance width="452"/>
  <unicode hex="005D"/>
  <outline>
    <contour>
      <point x="77" y="-22" type="line"/>
      <point x="77" y="-125" type="line"/>
      <point x="313" y="-125" type="line"/>
      <point x="313" y="792" type="line"/>
      <point x="77" y="792" type="line"/>
      <point x="77" y="689" type="line"/>
      <point x="186" y="689" type="line"/>
      <point x="186" y="-22" type="line"/>
    </contour>
  </outline>
</glyph>
<glyph name="asciicircum.beng" format="2">
  <advance width="621"/>
  <unicode hex="005E"/>
  <outline>
    <contour>
      <point x="274" y="718" type="line"/>
      <point x="47" y="254" type="line"/>
      <point x="162" y="254" type="line"/>
      <point x="310" y="568" type="line"/>
      <point x="456" y="254" type="line"/>
      <point x="573" y="254" type="line"/>
      <point x="346" y="718" type="line"/>
    </contour>
  </outline>
</glyph>
<glyph name="braceleft.beng" format="2">
  <advance width="501"/>
  <unicode hex="007B"/>
  <outline>
    <contour>
      <point x="81" y="391" type="curve"/>
      <point x="81" y="274" type="line"/>
      <point x="163" y="274"/>
      <point x="206" y="246"/>
      <point x="206" y="172" type="curve" smooth="yes"/>
      <point x="206" y="34" type="line" smooth="yes"/>
      <point x="206" y="-78"/>
      <point x="249" y="-125"/>
      <point x="420" y="-125" type="curve"/>
      <point x="420" y="-14" type="line"/>
      <point x="367" y="-13"/>
      <point x="333" y="2"/>
      <point x="333" y="68" type="curve" smooth="yes"/>
      <point x="333" y="201" type="line" smooth="yes"/>
      <point x="333" y="274"/>
      <point x="295" y="317"/>
      <point x="221" y="330" type="curve"/>
      <point x="221" y="336" type="line"/>
      <point x="295" y="350"/>
      <point x="333" y="393"/>
      <point x="333" y="465" type="curve" smooth="yes"/>
      <point x="333" y="600" type="line" smooth="yes"/>
      <point x="333" y="666"/>
      <point x="367" y="680"/>
      <point x="420" y="682" type="curve"/>
      <point x="420" y="792" type="line"/>
      <point x="249" y="792"/>
      <point x="206" y="745"/>
      <point x="206" y="633" type="curve" smooth="yes"/>
      <point x="206" y="492" type="line"/>
      <point x="206" y="419"/>
      <point x="162" y="391"/>
    </contour>
  </outline>
</glyph>
<glyph name="bar.beng" format="2">
  <advance width="540"/>
  <unicode hex="007C"/>
  <outline>
    <contour>
      <point x="216" y="792" type="line"/>
      <point x="216" y="-125" type="line"/>
      <point x="323" y="-125" type="line"/>
      <point x="323" y="792" type="line"/>
    </contour>
  </outline>
</glyph>
<glyph name="braceright.beng" format="2">
  <advance width="501"/>
  <unicode hex="007D"/>
  <outline>
    <contour>
      <point x="420" y="275" type="curve"/>
      <point x="420" y="392" type="line"/>
      <point x="338" y="392"/>
      <point x="292" y="420"/>
      <point x="292" y="494" type="curve" smooth="yes"/>
      <point x="292" y="633" type="line" smooth="yes"/>
      <point x="292" y="745"/>
      <point x="252" y="792"/>
      <point x="81" y="792" type="curve"/>
      <point x="81" y="681" type="line"/>
      <point x="134" y="680"/>
      <point x="165" y="665"/>
      <point x="165" y="599" type="curve" smooth="yes"/>
      <point x="165" y="465" type="line" smooth="yes"/>
      <point x="165" y="392"/>
      <point x="205" y="349"/>
      <point x="280" y="336" type="curve"/>
      <point x="280" y="330" type="line"/>
      <point x="206" y="316"/>
      <point x="165" y="273"/>
      <point x="165" y="201" type="curve" smooth="yes"/>
      <point x="165" y="67" type="line" smooth="yes"/>
      <point x="165" y="1"/>
      <point x="134" y="-13"/>
      <point x="81" y="-15" type="curve"/>
      <point x="81" y="-125" type="line"/>
      <point x="252" y="-125"/>
      <point x="292" y="-78"/>
      <point x="292" y="34" type="curve" smooth="yes"/>
      <point x="292" y="174" type="line" smooth="yes"/>
      <point x="292" y="247"/>
      <point x="339" y="275"/>
    </contour>
  </outline>
</glyph>
<glyph name="asciitilde.beng" format="2">
  <advance width="621"/>
  <unicode hex="007E"/>
  <outline>
    <contour>
      <point x="78" y="353" type="curve"/>
      <point x="78" y="240" type="line"/>
      <point x="112" y="272"/>
      <point x="154" y="299"/>
      <point x="192" y="299" type="curve" smooth="yes"/>
      <point x="222" y="299"/>
      <point x="244" y="292"/>
      <point x="293" y="271" type="curve" smooth="yes"/>
      <point x="355" y="245"/>
      <point x="379" y="241"/>
      <point x="418" y="241" type="curve" smooth="yes"/>
      <point x="468" y="241"/>
      <point x="510" y="258"/>
      <point x="543" y="294" type="curve"/>
      <point x="543" y="407" type="line"/>
      <point x="510" y="374"/>
      <point x="468" y="348"/>
      <point x="429" y="348" type="curve" smooth="yes"/>
      <point x="400" y="348"/>
      <point x="377" y="354"/>
      <point x="328" y="375" type="curve" smooth="yes"/>
      <point x="266" y="400"/>
      <point x="242" y="406"/>
      <point x="203" y="406" type="curve" smooth="yes"/>
      <point x="152" y="406"/>
      <point x="111" y="388"/>
    </contour>
  </outline>
</glyph>
<glyph name="multiply.beng" format="2">
  <advance width="621"/>
  <unicode hex="00D7"/>
  <outline>
    <contour>
      <point x="309" y="249" type="line"/>
      <point x="458" y="102" type="line"/>
      <point x="531" y="176" type="line"/>
      <point x="384" y="324" type="line"/>
      <point x="533" y="473" type="line"/>
      <point x="458" y="546" type="line"/>
      <point x="309" y="400" type="line"/>
      <point x="162" y="546" type="line"/>
      <point x="88" y="471" type="line"/>
      <point x="234" y="324" type="line"/>
      <point x="89" y="177" type="line"/>
      <point x="162" y="103" type="line"/>
    </contour>
  </outline>
</glyph>
<glyph name="divide.beng" format="2">
  <advance width="621"/>
  <unicode hex="00F7"/>
  <outline>
    <contour>
      <point x="70" y="376" type="line"/>
      <point x="70" y="270" type="line"/>
      <point x="551" y="270" type="line"/>
      <point x="551" y="376" type="line"/>
    </contour>
    <contour>
      <point x="310" y="79" type="curve" smooth="yes"/>
      <point x="346" y="79"/>
      <point x="378" y="100"/>
      <point x="378" y="153" type="curve" smooth="yes"/>
      <point x="378" y="208"/>
      <point x="346" y="227"/>
      <point x="310" y="227" type="curve" smooth="yes"/>
      <point x="273" y="227"/>
      <point x="242" y="208"/>
      <point x="242" y="153" type="curve" smooth="yes"/>
      <point x="242" y="100"/>
      <point x="273" y="79"/>
    </contour>
    <contour>
      <point x="310" y="420" type="curve" smooth="yes"/>
      <point x="346" y="420"/>
      <point x="378" y="441"/>
      <point x="378" y="494" type="curve" smooth="yes"/>
      <point x="378" y="548"/>
      <point x="346" y="568"/>
      <point x="310" y="568" type="curve" smooth="yes"/>
      <point x="273" y="568"/>
      <point x="242" y="548"/>
      <point x="242" y="494" type="curve" smooth="yes"/>
      <point x="242" y="441"/>
      <point x="273" y="420"/>
    </contour>
  </outline>
</glyph>
<glyph name="dbldandadeva" format="2">
  <advance width="638"/>
  <unicode hex="0965"/>
  <outline>
    <contour>
      <point x="417" y="0" type="line"/>
      <point x="551" y="0" type="line"/>
      <point x="551" y="622" type="line"/>
      <point x="417" y="622" type="line"/>
    </contour>
    <contour>
      <point x="178" y="0" type="line"/>
      <point x="312" y="0" type="line"/>
      <point x="312" y="622" type="line"/>
      <point x="178" y="622" type="line"/>
    </contour>
  </outline>
</glyph>
<glyph name="uni0980" format="2">
  <advance width="586"/>
  <unicode hex="0980"/>
  <outline>
    <contour>
      <point x="350" y="264" type="curve"/>
      <point x="330" y="376" type="line"/>
      <point x="311" y="370"/>
      <point x="292" y="367"/>
      <point x="268" y="367" type="curve" smooth="yes"/>
      <point x="216" y="367"/>
      <point x="183" y="383"/>
      <point x="183" y="439" type="curve" smooth="yes"/>
      <point x="183" y="497"/>
      <point x="232" y="548"/>
      <point x="297" y="548" type="curve" smooth="yes"/>
      <point x="319" y="548"/>
      <point x="336" y="543"/>
      <point x="346" y="532" type="curve" smooth="yes"/>
      <point x="359" y="519"/>
      <point x="362" y="501"/>
      <point x="362" y="456" type="curve" smooth="yes"/>
      <point x="362" y="115" type="line" smooth="yes"/>
      <point x="362" y="-30"/>
      <point x="424" y="-44"/>
      <point x="556" y="-49" type="curve"/>
      <point x="569" y="73" type="line"/>
      <point x="506" y="75"/>
      <point x="496" y="90"/>
      <point x="496" y="146" type="curve" smooth="yes"/>
      <point x="496" y="482" type="line" smooth="yes"/>
      <point x="496" y="563"/>
      <point x="477" y="594"/>
      <point x="445" y="621" type="curve" smooth="yes"/>
      <point x="413" y="648"/>
      <point x="365" y="659"/>
      <point x="311" y="659" type="curve" smooth="yes"/>
      <point x="162" y="659"/>
      <point x="46" y="567"/>
      <point x="46" y="431" type="curve" smooth="yes"/>
      <point x="46" y="321"/>
      <point x="112" y="254"/>
      <point x="258" y="254" type="curve" smooth="yes"/>
      <point x="289" y="254"/>
      <point x="321" y="258"/>
    </contour>
  </outline>
</glyph>
<glyph name="candrabindubeng" format="2">
  <unicode hex="0981"/>
  <outline>
    <contour>
      <point x="56" y="876" type="curve"/>
      <point x="-52" y="887" type="line"/>
      <point x="-59" y="806"/>
      <point x="-91" y="765"/>
      <point x="-153" y="765" type="curve" smooth="yes"/>
      <point x="-221" y="765"/>
      <point x="-247" y="810"/>
      <point x="-254" y="886" type="curve"/>
      <point x="-361" y="875" type="line"/>
      <point x="-350" y="761"/>
      <point x="-287" y="675"/>
      <point x="-149" y="675" type="curve" smooth="yes"/>
      <point x="-13" y="675"/>
      <point x="45" y="760"/>
    </contour>
    <contour>
      <point x="-99" y="841" type="curve" smooth="yes"/>
      <point x="-99" y="873"/>
      <point x="-118" y="890"/>
      <point x="-154" y="890" type="curve" smooth="yes"/>
      <point x="-190" y="890"/>
      <point x="-207" y="868"/>
      <point x="-207" y="844" type="curve" smooth="yes"/>
      <point x="-207" y="812"/>
      <point x="-188" y="792"/>
      <point x="-152" y="792" type="curve" smooth="yes"/>
      <point x="-122" y="792"/>
      <point x="-99" y="810"/>
    </contour>
  </outline>
</glyph>
<glyph name="anusvarabeng" format="2">
  <advance width="438"/>
  <unicode hex="0982"/>
  <outline>
    <contour>
      <point x="142" y="318" type="curve"/>
      <point x="61" y="220" type="line"/>
      <point x="189" y="143"/>
      <point x="263" y="58"/>
      <point x="337" y="-47" type="curve"/>
      <point x="437" y="6" type="line"/>
      <point x="367" y="128"/>
      <point x="270" y="241"/>
    </contour>
    <contour>
      <point x="64" y="474" type="curve" smooth="yes"/>
      <point x="64" y="385"/>
      <point x="131" y="325"/>
      <point x="219" y="325" type="curve" smooth="yes"/>
      <point x="307" y="325"/>
      <point x="374" y="386"/>
      <point x="374" y="474" type="curve" smooth="yes"/>
      <point x="374" y="561"/>
      <point x="307" y="622"/>
      <point x="219" y="622" type="curve" smooth="yes"/>
      <point x="131" y="622"/>
      <point x="64" y="561"/>
    </contour>
    <contour>
      <point x="165" y="474" type="curve" smooth="yes"/>
      <point x="165" y="505"/>
      <point x="188" y="528"/>
      <point x="219" y="528" type="curve" smooth="yes"/>
      <point x="250" y="528"/>
      <point x="273" y="505"/>
      <point x="273" y="474" type="curve" smooth="yes"/>
      <point x="273" y="442"/>
      <point x="250" y="419"/>
      <point x="219" y="419" type="curve" smooth="yes"/>
      <point x="188" y="419"/>
      <point x="165" y="442"/>
    </contour>
  </outline>
</glyph>
<glyph name="visargabeng" format="2">
  <advance width="438"/>
  <unicode hex="0983"/>
  <outline>
    <contour>
      <point x="64" y="474" type="curve" smooth="yes"/>
      <point x="64" y="385"/>
      <point x="131" y="325"/>
      <point x="219" y="325" type="curve" smooth="yes"/>
      <point x="307" y="325"/>
      <point x="374" y="386"/>
      <point x="374" y="474" type="curve" smooth="yes"/>
      <point x="374" y="561"/>
      <point x="307" y="622"/>
      <point x="219" y="622" type="curve" smooth="yes"/>
      <point x="131" y="622"/>
      <point x="64" y="561"/>
    </contour>
    <contour>
      <point x="165" y="474" type="curve" smooth="yes"/>
      <point x="165" y="505"/>
      <point x="188" y="528"/>
      <point x="219" y="528" type="curve" smooth="yes"/>
      <point x="250" y="528"/>
      <point x="273" y="505"/>
      <point x="273" y="474" type="curve" smooth="yes"/>
      <point x="273" y="442"/>
      <point x="250" y="419"/>
      <point x="219" y="419" type="curve" smooth="yes"/>
      <point x="188" y="419"/>
      <point x="165" y="442"/>
    </contour>
    <contour>
      <point x="64" y="149" type="curve" smooth="yes"/>
      <point x="64" y="60"/>
      <point x="131" y="0"/>
      <point x="219" y="0" type="curve" smooth="yes"/>
      <point x="307" y="0"/>
      <point x="374" y="61"/>
      <point x="374" y="149" type="curve" smooth="yes"/>
      <point x="374" y="236"/>
      <point x="307" y="297"/>
      <point x="219" y="297" type="curve" smooth="yes"/>
      <point x="131" y="297"/>
      <point x="64" y="236"/>
    </contour>
    <contour>
      <point x="165" y="149" type="curve" smooth="yes"/>
      <point x="165" y="180"/>
      <point x="188" y="203"/>
      <point x="219" y="203" type="curve" smooth="yes"/>
      <point x="250" y="203"/>
      <point x="273" y="180"/>
      <point x="273" y="149" type="curve" smooth="yes"/>
      <point x="273" y="117"/>
      <point x="250" y="94"/>
      <point x="219" y="94" type="curve" smooth="yes"/>
      <point x="188" y="94"/>
      <point x="165" y="117"/>
    </contour>
  </outline>
</glyph>
<glyph name="aabeng" format="2">
  <advance width="1264"/>
  <unicode hex="0986"/>
  <outline>
    <contour>
      <point x="970" y="622" type="line"/>
      <point x="-10" y="622" type="line"/>
      <point x="-10" y="512" type="line"/>
      <point x="742" y="512" type="line"/>
      <point x="742" y="217" type="line" smooth="yes"/>
      <point x="742" y="191"/>
      <point x="743" y="167"/>
      <point x="745" y="146" type="curve"/>
      <point x="718" y="176"/>
      <point x="674" y="211"/>
      <point x="624" y="240" type="curve"/>
      <point x="566" y="155" type="line"/>
      <point x="629" y="121"/>
      <point x="705" y="70"/>
      <point x="742" y="0" type="curve"/>
      <point x="874" y="0" type="line"/>
      <point x="874" y="512" type="line"/>
      <point x="970" y="512" type="line"/>
    </contour>
    <contour>
      <point x="398" y="82" type="curve" smooth="yes"/>
      <point x="584" y="82"/>
      <point x="662" y="174"/>
      <point x="662" y="283" type="curve" smooth="yes"/>
      <point x="662" y="399"/>
      <point x="578" y="486"/>
      <point x="440" y="486" type="curve" smooth="yes"/>
      <point x="357" y="486"/>
      <point x="278" y="451"/>
      <point x="278" y="354" type="curve" smooth="yes"/>
      <point x="278" y="336"/>
      <point x="283" y="311"/>
      <point x="294" y="286" type="curve"/>
      <point x="418" y="304" type="line"/>
      <point x="414" y="315"/>
      <point x="411" y="328"/>
      <point x="411" y="339" type="curve" smooth="yes"/>
      <point x="411" y="363"/>
      <point x="427" y="379"/>
      <point x="457" y="379" type="curve" smooth="yes"/>
      <point x="500" y="379"/>
      <point x="530" y="348"/>
      <point x="530" y="298" type="curve" smooth="yes"/>
      <point x="530" y="235"/>
      <point x="486" y="197"/>
      <point x="392" y="197" type="curve" smooth="yes"/>
      <point x="271" y="197"/>
      <point x="203" y="276"/>
      <point x="140" y="463" type="curve"/>
      <point x="15" y="428" type="line"/>
      <point x="100" y="167"/>
      <point x="233" y="82"/>
    </contour>
    <contour>
      <point x="335" y="428" type="curve"/>
      <point x="466" y="431" type="line"/>
      <point x="459" y="488"/>
      <point x="430" y="522"/>
      <point x="355" y="553" type="curve"/>
      <point x="309" y="564" type="line"/>
      <point x="234" y="520" type="line"/>
      <point x="297" y="505"/>
      <point x="329" y="472"/>
    </contour>
    <contour>
      <point x="1274" y="622" type="line"/>
      <point x="1177" y="622" type="line"/>
      <point x="1154" y="688" type="line"/>
      <point x="1046" y="688" type="line"/>
      <point x="1046" y="613" type="line" smooth="yes"/>
      <point x="1046" y="596"/>
      <point x="1048" y="566"/>
      <point x="1050" y="559" type="curve"/>
      <point x="1029" y="606"/>
      <point x="1002" y="622"/>
      <point x="975" y="622" type="curve" smooth="yes"/>
      <point x="953" y="622" type="line"/>
      <point x="953" y="512" type="line"/>
      <point x="968" y="512" type="line" smooth="yes"/>
      <point x="1003" y="512"/>
      <point x="1025" y="493"/>
      <point x="1046" y="444" type="curve"/>
      <point x="1046" y="0" type="line"/>
      <point x="1178" y="0" type="line"/>
      <point x="1178" y="512" type="line"/>
      <point x="1274" y="512" type="line"/>
    </contour>
  </outline>
</glyph>
<glyph name="ibeng" format="2">
  <advance width="574"/>
  <unicode hex="0987"/>
  <outline>
    <contour>
      <point x="354" y="622" type="curve"/>
      <point x="479" y="622" type="line"/>
      <point x="477" y="684"/>
      <point x="463" y="724"/>
      <point x="438" y="749" type="curve" smooth="yes"/>
      <point x="406" y="780"/>
      <point x="365" y="790"/>
      <point x="286" y="790" type="curve" smooth="yes"/>
      <point x="223" y="790" type="line" smooth="yes"/>
      <point x="172" y="790"/>
      <point x="154" y="797"/>
      <point x="140" y="810" type="curve" smooth="yes"/>
      <point x="125" y="824"/>
      <point x="120" y="847"/>
      <point x="120" y="875" type="curve" smooth="yes"/>
      <point x="120" y="883"/>
      <point x="121" y="892"/>
      <point x="122" y="904" type="curve"/>
      <point x="-3" y="912" type="line"/>
      <point x="-7" y="888"/>
      <point x="-8" y="874"/>
      <point x="-8" y="854" type="curve" smooth="yes"/>
      <point x="-8" y="805"/>
      <point x="3" y="767"/>
      <point x="28" y="739" type="curve" smooth="yes"/>
      <point x="64" y="699"/>
      <point x="125" y="680"/>
      <point x="226" y="680" type="curve" smooth="yes"/>
      <point x="285" y="680" type="line" smooth="yes"/>
      <point x="335" y="680"/>
      <point x="352" y="663"/>
    </contour>
    <component base="habeng"/>
  </outline>
</glyph>
<glyph name="iibeng" format="2">
  <advance width="721"/>
  <unicode hex="0988"/>
  <outline>
    <contour>
      <point x="219" y="65" type="curve" smooth="yes"/>
      <point x="292" y="65"/>
      <point x="331" y="96"/>
      <point x="396" y="192" type="curve" smooth="yes"/>
      <point x="464" y="292"/>
      <point x="526" y="334"/>
      <point x="610" y="364" type="curve"/>
      <point x="530" y="368" type="line"/>
      <point x="502" y="318"/>
      <point x="487" y="260"/>
      <point x="487" y="197" type="curve" smooth="yes"/>
      <point x="487" y="132"/>
      <point x="499" y="63"/>
      <point x="523" y="-11" type="curve"/>
      <point x="653" y="16" type="line"/>
      <point x="630" y="84"/>
      <point x="620" y="144"/>
      <point x="620" y="193" type="curve" smooth="yes"/>
      <point x="620" y="259"/>
      <point x="632" y="315"/>
      <point x="662" y="364" type="curve"/>
      <point x="560" y="464" type="line"/>
      <point x="458" y="421"/>
      <point x="380" y="351"/>
      <point x="334" y="282" type="curve"/>
      <point x="408" y="254" type="line"/>
      <point x="410" y="268"/>
      <point x="411" y="289"/>
      <point x="411" y="307" type="curve"/>
      <point x="404" y="406"/>
      <point x="326" y="484"/>
      <point x="204" y="484" type="curve" smooth="yes"/>
      <point x="127" y="484"/>
      <point x="42" y="451"/>
      <point x="42" y="367" type="curve" smooth="yes"/>
      <point x="42" y="343"/>
      <point x="46" y="316"/>
      <point x="55" y="293" type="curve"/>
      <point x="178" y="311" type="line"/>
      <point x="174" y="322"/>
      <point x="172" y="333"/>
      <point x="172" y="342" type="curve" smooth="yes"/>
      <point x="172" y="364"/>
      <point x="188" y="379"/>
      <point x="216" y="379" type="curve" smooth="yes"/>
      <point x="267" y="379"/>
      <point x="297" y="328"/>
      <point x="297" y="283" type="curve" smooth="yes"/>
      <point x="297" y="258"/>
      <point x="288" y="234"/>
      <point x="270" y="215" type="curve" smooth="yes"/>
      <point x="251" y="194"/>
      <point x="234" y="181"/>
      <point x="213" y="181" type="curve" smooth="yes"/>
      <point x="191" y="181"/>
      <point x="175" y="194"/>
      <point x="150" y="234" type="curve"/>
      <point x="58" y="178" type="line"/>
      <point x="102" y="104"/>
      <point x="148" y="65"/>
    </contour>
    <contour>
      <point x="731" y="622" type="line"/>
      <point x="-10" y="622" type="line"/>
      <point x="-10" y="512" type="line"/>
      <point x="731" y="512" type="line"/>
    </contour>
    <contour>
      <point x="134" y="428" type="curve"/>
      <point x="264" y="431" type="line"/>
      <point x="258" y="488"/>
      <point x="229" y="522"/>
      <point x="153" y="553" type="curve"/>
      <point x="107" y="564" type="line"/>
      <point x="32" y="520" type="line"/>
      <point x="95" y="505"/>
      <point x="127" y="472"/>
    </contour>
    <contour>
      <point x="485" y="622" type="curve"/>
      <point x="610" y="622" type="line"/>
      <point x="608" y="684"/>
      <point x="594" y="724"/>
      <point x="569" y="749" type="curve" smooth="yes"/>
      <point x="537" y="780"/>
      <point x="496" y="790"/>
      <point x="417" y="790" type="curve" smooth="yes"/>
      <point x="271" y="790" type="line" smooth="yes"/>
      <point x="220" y="790"/>
      <point x="202" y="797"/>
      <point x="188" y="810" type="curve" smooth="yes"/>
      <point x="173" y="824"/>
      <point x="168" y="847"/>
      <point x="168" y="875" type="curve" smooth="yes"/>
      <point x="168" y="883"/>
      <point x="169" y="892"/>
      <point x="170" y="904" type="curve"/>
      <point x="45" y="912" type="line"/>
      <point x="41" y="888"/>
      <point x="40" y="874"/>
      <point x="40" y="854" type="curve" smooth="yes"/>
      <point x="40" y="805"/>
      <point x="51" y="767"/>
      <point x="76" y="739" type="curve" smooth="yes"/>
      <point x="112" y="699"/>
      <point x="173" y="680"/>
      <point x="274" y="680" type="curve" smooth="yes"/>
      <point x="416" y="680" type="line" smooth="yes"/>
      <point x="467" y="680"/>
      <point x="483" y="663"/>
    </contour>
  </outline>
</glyph>
<glyph name="ubeng" format="2">
  <advance width="741"/>
  <unicode hex="0989"/>
  <outline>
    <contour>
      <point x="509" y="622" type="curve"/>
      <point x="634" y="622" type="line"/>
      <point x="632" y="684"/>
      <point x="618" y="724"/>
      <point x="593" y="749" type="curve" smooth="yes"/>
      <point x="561" y="780"/>
      <point x="520" y="790"/>
      <point x="441" y="790" type="curve" smooth="yes"/>
      <point x="295" y="790" type="line" smooth="yes"/>
      <point x="244" y="790"/>
      <point x="226" y="797"/>
      <point x="212" y="810" type="curve" smooth="yes"/>
      <point x="197" y="824"/>
      <point x="192" y="847"/>
      <point x="192" y="875" type="curve" smooth="yes"/>
      <point x="192" y="883"/>
      <point x="193" y="892"/>
      <point x="194" y="904" type="curve"/>
      <point x="69" y="912" type="line"/>
      <point x="65" y="888"/>
      <point x="64" y="874"/>
      <point x="64" y="854" type="curve" smooth="yes"/>
      <point x="64" y="805"/>
      <point x="75" y="767"/>
      <point x="100" y="739" type="curve" smooth="yes"/>
      <point x="136" y="699"/>
      <point x="197" y="680"/>
      <point x="298" y="680" type="curve" smooth="yes"/>
      <point x="440" y="680" type="line" smooth="yes"/>
      <point x="490" y="680"/>
      <point x="507" y="663"/>
    </contour>
    <component base="ddabeng"/>
  </outline>
</glyph>
<glyph name="uubeng" format="2">
  <advance width="879"/>
  <unicode hex="098A"/>
  <outline>
    <contour>
      <point x="889" y="622" type="line"/>
      <point x="-10" y="622" type="line"/>
      <point x="-10" y="512" type="line"/>
      <point x="416" y="512" type="line"/>
      <point x="416" y="400" type="line" smooth="yes"/>
      <point x="416" y="337"/>
      <point x="427" y="299"/>
      <point x="450" y="274" type="curve" smooth="yes"/>
      <point x="472" y="249"/>
      <point x="506" y="236"/>
      <point x="549" y="236" type="curve" smooth="yes"/>
      <point x="604" y="236"/>
      <point x="668" y="260"/>
      <point x="719" y="316" type="curve"/>
      <point x="700" y="317" type="line"/>
      <point x="707" y="302"/>
      <point x="712" y="283"/>
      <point x="712" y="260" type="curve" smooth="yes"/>
      <point x="712" y="183"/>
      <point x="662" y="134"/>
      <point x="572" y="134" type="curve" smooth="yes"/>
      <point x="452" y="134"/>
      <point x="367" y="193"/>
      <point x="304" y="438" type="curve"/>
      <point x="190" y="403" type="line"/>
      <point x="225" y="290"/>
      <point x="281" y="200"/>
      <point x="337" y="139" type="curve"/>
      <point x="334" y="136" type="line"/>
      <point x="259" y="188"/>
      <point x="184" y="273"/>
      <point x="128" y="433" type="curve"/>
      <point x="16" y="395" type="line"/>
      <point x="126" y="114"/>
      <point x="299" y="20"/>
      <point x="550" y="20" type="curve" smooth="yes"/>
      <point x="762" y="20"/>
      <point x="843" y="118"/>
      <point x="843" y="240" type="curve" smooth="yes"/>
      <point x="843" y="318"/>
      <point x="820" y="379"/>
      <point x="775" y="445" type="curve"/>
      <point x="664" y="423" type="line"/>
      <point x="632" y="378"/>
      <point x="600" y="347"/>
      <point x="574" y="347" type="curve" smooth="yes"/>
      <point x="553" y="347"/>
      <point x="548" y="363"/>
      <point x="548" y="383" type="curve" smooth="yes"/>
      <point x="548" y="512" type="line"/>
      <point x="889" y="512" type="line"/>
    </contour>
    <contour>
      <point x="647" y="622" type="curve"/>
      <point x="772" y="622" type="line"/>
      <point x="770" y="684"/>
      <point x="756" y="724"/>
      <point x="731" y="749" type="curve" smooth="yes"/>
      <point x="699" y="780"/>
      <point x="658" y="790"/>
      <point x="579" y="790" type="curve" smooth="yes"/>
      <point x="404" y="790" type="line" smooth="yes"/>
      <point x="353" y="790"/>
      <point x="335" y="797"/>
      <point x="321" y="810" type="curve" smooth="yes"/>
      <point x="306" y="824"/>
      <point x="301" y="847"/>
      <point x="301" y="875" type="curve" smooth="yes"/>
      <point x="301" y="883"/>
      <point x="302" y="892"/>
      <point x="303" y="904" type="curve"/>
      <point x="178" y="912" type="line"/>
      <point x="174" y="888"/>
      <point x="173" y="874"/>
      <point x="173" y="854" type="curve" smooth="yes"/>
      <point x="173" y="805"/>
      <point x="184" y="767"/>
      <point x="209" y="739" type="curve" smooth="yes"/>
      <point x="245" y="699"/>
      <point x="306" y="680"/>
      <point x="407" y="680" type="curve" smooth="yes"/>
      <point x="578" y="680" type="line" smooth="yes"/>
      <point x="628" y="680"/>
      <point x="645" y="663"/>
    </contour>
  </outline>
</glyph>
<glyph name="rvocalicbeng" format="2">
  <advance width="932"/>
  <unicode hex="098B"/>
  <outline>
    <contour>
      <point x="600" y="688" type="line"/>
      <point x="492" y="688" type="line"/>
      <point x="492" y="472" type="line"/>
      <point x="365" y="428"/>
      <point x="231" y="372"/>
      <point x="124" y="312" type="curve"/>
      <point x="174" y="194" type="line"/>
      <point x="323" y="166"/>
      <point x="436" y="81"/>
      <point x="492" y="0" type="curve"/>
      <point x="624" y="0" type="line"/>
      <point x="624" y="622" type="line"/>
    </contour>
    <contour>
      <point x="492" y="356" type="curve"/>
      <point x="492" y="224" type="line"/>
      <point x="492" y="191"/>
      <point x="494" y="166"/>
      <point x="496" y="145" type="curve"/>
      <point x="441" y="203"/>
      <point x="356" y="252"/>
      <point x="283" y="268" type="curve"/>
      <point x="357" y="307"/>
      <point x="414" y="331"/>
    </contour>
    <contour>
      <point x="399" y="430" type="curve"/>
      <point x="495" y="471" type="line"/>
      <point x="475" y="527"/>
      <point x="434" y="589"/>
      <point x="408" y="625" type="curve"/>
      <point x="302" y="548" type="line"/>
      <point x="342" y="521"/>
      <point x="379" y="472"/>
    </contour>
    <contour>
      <point x="191" y="421" type="curve" smooth="yes"/>
      <point x="291" y="421"/>
      <point x="352" y="469"/>
      <point x="426" y="569" type="curve"/>
      <point x="408" y="625" type="line"/>
      <point x="309" y="603" type="line"/>
      <point x="276" y="547"/>
      <point x="242" y="532"/>
      <point x="213" y="532" type="curve" smooth="yes"/>
      <point x="190" y="532"/>
      <point x="174" y="542"/>
      <point x="174" y="566" type="curve" smooth="yes"/>
      <point x="174" y="578"/>
      <point x="177" y="588"/>
      <point x="183" y="600" type="curve"/>
      <point x="65" y="628" type="line"/>
      <point x="53" y="604"/>
      <point x="44" y="575"/>
      <point x="44" y="543" type="curve" smooth="yes"/>
      <point x="44" y="467"/>
      <point x="101" y="421"/>
    </contour>
    <contour>
      <point x="825" y="688" type="line"/>
      <point x="717" y="688" type="line"/>
      <point x="717" y="273" type="line" smooth="yes"/>
      <point x="717" y="240"/>
      <point x="718" y="209"/>
      <point x="720" y="186" type="curve"/>
      <point x="738" y="197" type="line"/>
      <point x="680" y="266"/>
      <point x="602" y="313"/>
      <point x="529" y="336" type="curve"/>
      <point x="521" y="232" type="line"/>
      <point x="603" y="196"/>
      <point x="669" y="143"/>
      <point x="717" y="74" type="curve"/>
      <point x="849" y="74" type="line"/>
      <point x="849" y="622" type="line"/>
    </contour>
  </outline>
</glyph>
<glyph name="lvocalicbeng" format="2">
  <advance width="652"/>
  <unicode hex="098C"/>
  <outline>
    <contour>
      <point x="208" y="330" type="curve" smooth="yes"/>
      <point x="97" y="330"/>
      <point x="33" y="285"/>
      <point x="33" y="205" type="curve" smooth="yes"/>
      <point x="33" y="180"/>
      <point x="39" y="157"/>
      <point x="48" y="132" type="curve"/>
      <point x="170" y="158" type="line"/>
      <point x="166" y="167"/>
      <point x="164" y="175"/>
      <point x="164" y="186" type="curve" smooth="yes"/>
      <point x="164" y="207"/>
      <point x="177" y="223"/>
      <point x="208" y="223" type="curve" smooth="yes"/>
      <point x="244" y="223"/>
      <point x="263" y="203"/>
      <point x="263" y="173" type="curve" smooth="yes"/>
      <point x="263" y="141"/>
      <point x="235" y="118"/>
      <point x="167" y="107" type="curve"/>
      <point x="189" y="0" type="line"/>
      <point x="210" y="0" type="line" smooth="yes"/>
      <point x="430" y="0"/>
      <point x="618" y="58"/>
      <point x="618" y="237" type="curve" smooth="yes"/>
      <point x="618" y="327"/>
      <point x="588" y="431"/>
      <point x="355" y="499" type="curve" smooth="yes"/>
      <point x="198" y="544"/>
      <point x="179" y="562"/>
      <point x="179" y="592" type="curve" smooth="yes"/>
      <point x="179" y="611"/>
      <point x="187" y="622"/>
      <point x="211" y="650" type="curve"/>
      <point x="121" y="715" type="line"/>
      <point x="72" y="672"/>
      <point x="44" y="622"/>
      <point x="44" y="581" type="curve" smooth="yes"/>
      <point x="44" y="500"/>
      <point x="86" y="448"/>
      <point x="250" y="400" type="curve" smooth="yes"/>
      <point x="440" y="344"/>
      <point x="481" y="306"/>
      <point x="481" y="232" type="curve" smooth="yes"/>
      <point x="481" y="171"/>
      <point x="434" y="125"/>
      <point x="332" y="111" type="curve"/>
      <point x="330" y="62" type="line"/>
      <point x="366" y="93"/>
      <point x="389" y="136"/>
      <point x="389" y="192" type="curve" smooth="yes"/>
      <point x="389" y="271"/>
      <point x="317" y="330"/>
    </contour>
  </outline>
</glyph>
<glyph name="ebeng" format="2">
  <advance width="797"/>
  <unicode hex="098F"/>
  <outline>
    <contour>
      <point x="533" y="628" type="curve" smooth="yes"/>
      <point x="381" y="628"/>
      <point x="259" y="495"/>
      <point x="259" y="386" type="curve" smooth="yes"/>
      <point x="259" y="298"/>
      <point x="321" y="258"/>
      <point x="403" y="258" type="curve" smooth="yes"/>
      <point x="440" y="258"/>
      <point x="465" y="262"/>
      <point x="482" y="268" type="curve"/>
      <point x="476" y="375" type="line"/>
      <point x="463" y="373"/>
      <point x="453" y="372"/>
      <point x="439" y="372" type="curve" smooth="yes"/>
      <point x="396" y="372"/>
      <point x="389" y="386"/>
      <point x="389" y="404" type="curve" smooth="yes"/>
      <point x="389" y="438"/>
      <point x="449" y="518"/>
      <point x="520" y="518" type="curve" smooth="yes"/>
      <point x="540" y="518"/>
      <point x="553" y="514"/>
      <point x="563" y="504" type="curve" smooth="yes"/>
      <point x="575" y="492"/>
      <point x="580" y="477"/>
      <point x="580" y="435" type="curve" smooth="yes"/>
      <point x="580" y="130" type="line"/>
      <point x="540" y="170"/>
      <point x="507" y="180"/>
      <point x="454" y="180" type="curve" smooth="yes"/>
      <point x="403" y="180"/>
      <point x="353" y="166"/>
      <point x="291" y="166" type="curve" smooth="yes"/>
      <point x="226" y="166"/>
      <point x="162" y="178"/>
      <point x="162" y="277" type="curve" smooth="yes"/>
      <point x="162" y="315"/>
      <point x="167" y="341"/>
      <point x="172" y="360" type="curve"/>
      <point x="43" y="377" type="line"/>
      <point x="37" y="347"/>
      <point x="31" y="305"/>
      <point x="31" y="271" type="curve" smooth="yes"/>
      <point x="31" y="79"/>
      <point x="158" y="52"/>
      <point x="272" y="52" type="curve" smooth="yes"/>
      <point x="348" y="52"/>
      <point x="397" y="67"/>
      <point x="471" y="67" type="curve" smooth="yes"/>
      <point x="534" y="67"/>
      <point x="560" y="48"/>
      <point x="582" y="0" type="curve"/>
      <point x="712" y="0" type="line"/>
      <point x="712" y="462" type="line" smooth="yes"/>
      <point x="712" y="536"/>
      <point x="692" y="569"/>
      <point x="665" y="591" type="curve" smooth="yes"/>
      <point x="634" y="615"/>
      <point x="597" y="628"/>
    </contour>
  </outline>
</glyph>
<glyph name="aibeng" format="2">
  <advance width="919"/>
  <unicode hex="0990"/>
  <outline>
    <contour>
      <point x="533" y="628" type="curve" smooth="yes"/>
      <point x="381" y="628"/>
      <point x="259" y="495"/>
      <point x="259" y="386" type="curve" smooth="yes"/>
      <point x="259" y="298"/>
      <point x="321" y="258"/>
      <point x="403" y="258" type="curve" smooth="yes"/>
      <point x="440" y="258"/>
      <point x="465" y="262"/>
      <point x="482" y="268" type="curve"/>
      <point x="476" y="375" type="line"/>
      <point x="463" y="373"/>
      <point x="453" y="372"/>
      <point x="439" y="372" type="curve" smooth="yes"/>
      <point x="396" y="372"/>
      <point x="389" y="386"/>
      <point x="389" y="404" type="curve" smooth="yes"/>
      <point x="389" y="438"/>
      <point x="449" y="518"/>
      <point x="520" y="518" type="curve" smooth="yes"/>
      <point x="540" y="518"/>
      <point x="554" y="514"/>
      <point x="563" y="504" type="curve" smooth="yes"/>
      <point x="575" y="493"/>
      <point x="580" y="477"/>
      <point x="580" y="435" type="curve" smooth="yes"/>
      <point x="580" y="130" type="line"/>
      <point x="540" y="170"/>
      <point x="507" y="180"/>
      <point x="454" y="180" type="curve" smooth="yes"/>
      <point x="403" y="180"/>
      <point x="353" y="166"/>
      <point x="291" y="166" type="curve" smooth="yes"/>
      <point x="226" y="166"/>
      <point x="162" y="178"/>
      <point x="162" y="277" type="curve" smooth="yes"/>
      <point x="162" y="315"/>
      <point x="167" y="341"/>
      <point x="172" y="360" type="curve"/>
      <point x="43" y="377" type="line"/>
      <point x="37" y="347"/>
      <point x="31" y="305"/>
      <point x="31" y="271" type="curve" smooth="yes"/>
      <point x="31" y="79"/>
      <point x="158" y="52"/>
      <point x="272" y="52" type="curve" smooth="yes"/>
      <point x="348" y="52"/>
      <point x="397" y="67"/>
      <point x="471" y="67" type="curve" smooth="yes"/>
      <point x="534" y="67"/>
      <point x="560" y="48"/>
      <point x="582" y="0" type="curve"/>
      <point x="712" y="0" type="line"/>
      <point x="712" y="462" type="line" smooth="yes"/>
      <point x="712" y="536"/>
      <point x="692" y="569"/>
      <point x="665" y="591" type="curve" smooth="yes"/>
      <point x="634" y="615"/>
      <point x="597" y="628"/>
    </contour>
    <contour>
      <point x="882" y="581" type="curve" smooth="yes"/>
      <point x="882" y="636"/>
      <point x="865" y="680"/>
      <point x="832" y="714" type="curve" smooth="yes"/>
      <point x="797" y="751"/>
      <point x="741" y="775"/>
      <point x="645" y="788" type="curve" smooth="yes"/>
      <point x="521" y="804" type="line" smooth="yes"/>
      <point x="489" y="808"/>
      <point x="466" y="814"/>
      <point x="451" y="827" type="curve" smooth="yes"/>
      <point x="439" y="838"/>
      <point x="433" y="854"/>
      <point x="433" y="878" type="curve" smooth="yes"/>
      <point x="433" y="888"/>
      <point x="434" y="901"/>
      <point x="436" y="911" type="curve"/>
      <point x="309" y="917" type="line"/>
      <point x="305" y="904"/>
      <point x="302" y="884"/>
      <point x="302" y="866" type="curve" smooth="yes"/>
      <point x="302" y="759"/>
      <point x="351" y="709"/>
      <point x="482" y="692" type="curve" smooth="yes"/>
      <point x="604" y="676" type="line" smooth="yes"/>
      <point x="646" y="670"/>
      <point x="684" y="661"/>
      <point x="711" y="643" type="curve" smooth="yes"/>
      <point x="735" y="627"/>
      <point x="750" y="604"/>
      <point x="750" y="571" type="curve" smooth="yes"/>
      <point x="750" y="512"/>
      <point x="704" y="483"/>
      <point x="656" y="465" type="curve"/>
      <point x="665" y="335" type="line"/>
      <point x="780" y="384"/>
      <point x="882" y="453"/>
    </contour>
  </outline>
</glyph>
<glyph name="obeng" format="2">
  <advance width="780"/>
  <unicode hex="0993"/>
  <outline>
    <contour>
      <point x="531" y="629" type="curve" smooth="yes"/>
      <point x="387" y="629"/>
      <point x="251" y="537"/>
      <point x="251" y="424" type="curve" smooth="yes"/>
      <point x="251" y="357"/>
      <point x="301" y="301"/>
      <point x="403" y="290" type="curve"/>
      <point x="430" y="401" type="line"/>
      <point x="392" y="406"/>
      <point x="386" y="418"/>
      <point x="386" y="433" type="curve" smooth="yes"/>
      <point x="386" y="466"/>
      <point x="455" y="521"/>
      <point x="527" y="521" type="curve" smooth="yes"/>
      <point x="567" y="521"/>
      <point x="587" y="502"/>
      <point x="587" y="472" type="curve" smooth="yes"/>
      <point x="587" y="417"/>
      <point x="532" y="387"/>
      <point x="466" y="364" type="curve"/>
      <point x="512" y="256" type="line"/>
      <point x="631" y="299"/>
      <point x="722" y="372"/>
      <point x="722" y="475" type="curve" smooth="yes"/>
      <point x="722" y="571"/>
      <point x="654" y="629"/>
    </contour>
    <contour>
      <point x="731" y="216" type="curve" smooth="yes"/>
      <point x="731" y="282"/>
      <point x="690" y="334"/>
      <point x="634" y="371" type="curve"/>
      <point x="515" y="318" type="line"/>
      <point x="560" y="303"/>
      <point x="597" y="275"/>
      <point x="597" y="230" type="curve" smooth="yes"/>
      <point x="597" y="172"/>
      <point x="540" y="141"/>
      <point x="471" y="141" type="curve" smooth="yes"/>
      <point x="319" y="141"/>
      <point x="223" y="234"/>
      <point x="141" y="507" type="curve"/>
      <point x="16" y="472" type="line"/>
      <point x="116" y="125"/>
      <point x="271" y="26"/>
      <point x="483" y="26" type="curve" smooth="yes"/>
      <point x="636" y="26"/>
      <point x="731" y="102"/>
    </contour>
  </outline>
</glyph>
<glyph name="aubeng" format="2">
  <advance width="928"/>
  <unicode hex="0994"/>
  <outline>
    <contour>
      <point x="531" y="629" type="curve" smooth="yes"/>
      <point x="387" y="629"/>
      <point x="251" y="537"/>
      <point x="251" y="424" type="curve" smooth="yes"/>
      <point x="251" y="357"/>
      <point x="301" y="301"/>
      <point x="403" y="290" type="curve"/>
      <point x="430" y="401" type="line"/>
      <point x="392" y="406"/>
      <point x="386" y="417"/>
      <point x="386" y="433" type="curve" smooth="yes"/>
      <point x="386" y="466"/>
      <point x="455" y="521"/>
      <point x="527" y="521" type="curve" smooth="yes"/>
      <point x="567" y="521"/>
      <point x="587" y="502"/>
      <point x="587" y="470" type="curve" smooth="yes"/>
      <point x="587" y="417"/>
      <point x="532" y="387"/>
      <point x="466" y="364" type="curve"/>
      <point x="512" y="256" type="line"/>
      <point x="582" y="281"/>
      <point x="641" y="316"/>
      <point x="677" y="362" type="curve"/>
      <point x="698" y="393" type="line"/>
      <point x="712" y="417"/>
      <point x="719" y="445"/>
      <point x="719" y="475" type="curve" smooth="yes"/>
      <point x="719" y="574"/>
      <point x="654" y="629"/>
    </contour>
    <contour>
      <point x="731" y="216" type="curve" smooth="yes"/>
      <point x="731" y="282"/>
      <point x="690" y="334"/>
      <point x="634" y="371" type="curve"/>
      <point x="515" y="318" type="line"/>
      <point x="560" y="303"/>
      <point x="597" y="275"/>
      <point x="597" y="230" type="curve" smooth="yes"/>
      <point x="597" y="172"/>
      <point x="540" y="141"/>
      <point x="471" y="141" type="curve" smooth="yes"/>
      <point x="319" y="141"/>
      <point x="223" y="234"/>
      <point x="141" y="507" type="curve"/>
      <point x="16" y="472" type="line"/>
      <point x="116" y="125"/>
      <point x="271" y="26"/>
      <point x="483" y="26" type="curve" smooth="yes"/>
      <point x="636" y="26"/>
      <point x="731" y="102"/>
    </contour>
    <contour>
      <point x="891" y="581" type="curve" smooth="yes"/>
      <point x="891" y="636"/>
      <point x="875" y="681"/>
      <point x="842" y="715" type="curve" smooth="yes"/>
      <point x="807" y="752"/>
      <point x="752" y="775"/>
      <point x="663" y="787" type="curve" smooth="yes"/>
      <point x="530" y="804" type="line" smooth="yes"/>
      <point x="495" y="808"/>
      <point x="475" y="814"/>
      <point x="460" y="827" type="curve" smooth="yes"/>
      <point x="448" y="838"/>
      <point x="442" y="855"/>
      <point x="442" y="878" type="curve" smooth="yes"/>
      <point x="442" y="888"/>
      <point x="443" y="903"/>
      <point x="445" y="911" type="curve"/>
      <point x="317" y="917" type="line"/>
      <point x="313" y="904"/>
      <point x="311" y="884"/>
      <point x="311" y="866" type="curve" smooth="yes"/>
      <point x="311" y="759"/>
      <point x="359" y="709"/>
      <point x="491" y="692" type="curve" smooth="yes"/>
      <point x="613" y="676" type="line" smooth="yes"/>
      <point x="660" y="670"/>
      <point x="705" y="658"/>
      <point x="730" y="635" type="curve" smooth="yes"/>
      <point x="748" y="619"/>
      <point x="759" y="599"/>
      <point x="759" y="571" type="curve" smooth="yes"/>
      <point x="759" y="512"/>
      <point x="712" y="479"/>
      <point x="665" y="461" type="curve"/>
      <point x="650" y="322" type="line"/>
      <point x="793" y="385"/>
      <point x="891" y="453"/>
    </contour>
  </outline>
</glyph>
<glyph name="kabeng" format="2">
  <advance width="857"/>
  <unicode hex="0995"/>
  <outline>
    <contour>
      <point x="867" y="622" type="line"/>
      <point x="-10" y="622" type="line"/>
      <point x="-10" y="512" type="line"/>
      <point x="414" y="512" type="line"/>
      <point x="414" y="466" type="line"/>
      <point x="433" y="495" type="line"/>
      <point x="291" y="458"/>
      <point x="138" y="389"/>
      <point x="16" y="321" type="curve"/>
      <point x="66" y="203" type="line"/>
      <point x="215" y="178"/>
      <point x="336" y="108"/>
      <point x="411" y="0" type="curve"/>
      <point x="543" y="0" type="line"/>
      <point x="543" y="411" type="line"/>
      <point x="541" y="452" type="line"/>
      <point x="541" y="512" type="line"/>
      <point x="867" y="512" type="line"/>
    </contour>
    <contour>
      <point x="411" y="399" type="line"/>
      <point x="411" y="204" type="line" smooth="yes"/>
      <point x="411" y="171"/>
      <point x="413" y="141"/>
      <point x="415" y="117" type="curve"/>
      <point x="433" y="128" type="line"/>
      <point x="364" y="210"/>
      <point x="266" y="262"/>
      <point x="184" y="278" type="curve"/>
      <point x="270" y="319"/>
      <point x="344" y="351"/>
      <point x="432" y="377" type="curve"/>
    </contour>
    <contour>
      <point x="825" y="258" type="curve" smooth="yes"/>
      <point x="825" y="389"/>
      <point x="691" y="471"/>
      <point x="527" y="493" type="curve"/>
      <point x="527" y="384" type="line"/>
      <point x="637" y="365"/>
      <point x="696" y="329"/>
      <point x="696" y="284" type="curve" smooth="yes"/>
      <point x="696" y="260"/>
      <point x="686" y="241"/>
      <point x="638" y="241" type="curve" smooth="yes"/>
      <point x="622" y="241"/>
      <point x="613" y="242"/>
      <point x="606" y="243" type="curve"/>
      <point x="602" y="133" type="line"/>
      <point x="622" y="129"/>
      <point x="645" y="127"/>
      <point x="673" y="127" type="curve" smooth="yes"/>
      <point x="790" y="127"/>
      <point x="825" y="192"/>
    </contour>
  </outline>
</glyph>
<glyph name="khabeng" format="2">
  <advance width="749"/>
  <unicode hex="0996"/>
  <outline>
    <contour>
      <point x="759" y="622" type="line"/>
      <point x="662" y="622" type="line"/>
      <point x="639" y="688" type="line"/>
      <point x="531" y="688" type="line"/>
      <point x="531" y="242" type="line" smooth="yes"/>
      <point x="531" y="207"/>
      <point x="531" y="176"/>
      <point x="533" y="146" type="curve"/>
      <point x="461" y="208"/>
      <point x="386" y="271"/>
      <point x="192" y="291" type="curve"/>
      <point x="133" y="315" type="line"/>
      <point x="166" y="199" type="line"/>
      <point x="333" y="172"/>
      <point x="437" y="113"/>
      <point x="531" y="0" type="curve"/>
      <point x="663" y="0" type="line"/>
      <point x="663" y="512" type="line"/>
      <point x="759" y="512" type="line"/>
    </contour>
    <contour>
      <point x="475" y="462" type="curve" smooth="yes"/>
      <point x="475" y="526"/>
      <point x="446" y="583"/>
      <point x="407" y="625" type="curve"/>
      <point x="282" y="542" type="line"/>
      <point x="315" y="517"/>
      <point x="346" y="489"/>
      <point x="346" y="449" type="curve" smooth="yes"/>
      <point x="346" y="381"/>
      <point x="278" y="342"/>
      <point x="133" y="315" type="curve"/>
      <point x="153" y="268" type="line"/>
      <point x="236" y="248" type="line"/>
      <point x="401" y="268"/>
      <point x="475" y="353"/>
    </contour>
    <contour>
      <point x="191" y="421" type="curve" smooth="yes"/>
      <point x="303" y="421"/>
      <point x="360" y="483"/>
      <point x="420" y="587" type="curve"/>
      <point x="407" y="625" type="line"/>
      <point x="314" y="604" type="line"/>
      <point x="275" y="548"/>
      <point x="251" y="532"/>
      <point x="213" y="532" type="curve" smooth="yes"/>
      <point x="190" y="532"/>
      <point x="174" y="542"/>
      <point x="174" y="566" type="curve" smooth="yes"/>
      <point x="174" y="578"/>
      <point x="177" y="588"/>
      <point x="183" y="600" type="curve"/>
      <point x="65" y="628" type="line"/>
      <point x="53" y="604"/>
      <point x="44" y="575"/>
      <point x="44" y="543" type="curve" smooth="yes"/>
      <point x="44" y="467"/>
      <point x="101" y="421"/>
    </contour>
  </outline>
</glyph>
<glyph name="gabeng" format="2">
  <advance width="700"/>
  <unicode hex="0997"/>
  <outline>
    <contour>
      <point x="482" y="0" type="line"/>
      <point x="614" y="0" type="line"/>
      <point x="614" y="512" type="line"/>
      <point x="710" y="512" type="line"/>
      <point x="710" y="622" type="line"/>
      <point x="613" y="622" type="line"/>
      <point x="591" y="688" type="line"/>
      <point x="482" y="688" type="line"/>
      <point x="482" y="585" type="line" smooth="yes"/>
      <point x="482" y="541"/>
      <point x="486" y="511"/>
      <point x="486" y="495" type="curve"/>
      <point x="530" y="483" type="line"/>
      <point x="436" y="577"/>
      <point x="366" y="629"/>
      <point x="270" y="629" type="curve" smooth="yes"/>
      <point x="164" y="629"/>
      <point x="85" y="553"/>
      <point x="15" y="451" type="curve"/>
      <point x="120" y="367" type="line"/>
      <point x="154" y="385"/>
      <point x="181" y="393"/>
      <point x="208" y="393" type="curve" smooth="yes"/>
      <point x="241" y="393"/>
      <point x="254" y="379"/>
      <point x="254" y="357" type="curve" smooth="yes"/>
      <point x="254" y="319"/>
      <point x="204" y="288"/>
      <point x="127" y="253" type="curve"/>
      <point x="203" y="146" type="line"/>
      <point x="321" y="212"/>
      <point x="379" y="276"/>
      <point x="379" y="356" type="curve" smooth="yes"/>
      <point x="379" y="426"/>
      <point x="330" y="482"/>
      <point x="241" y="482" type="curve" smooth="yes"/>
      <point x="192" y="482"/>
      <point x="161" y="469"/>
      <point x="134" y="452" type="curve"/>
      <point x="146" y="450" type="line"/>
      <point x="181" y="486"/>
      <point x="212" y="519"/>
      <point x="275" y="519" type="curve" smooth="yes"/>
      <point x="373" y="519"/>
      <point x="447" y="436"/>
      <point x="507" y="360" type="curve"/>
      <point x="482" y="403" type="line"/>
    </contour>
  </outline>
</glyph>
<glyph name="ghabeng" format="2">
  <advance width="662"/>
  <unicode hex="0998"/>
  <outline>
    <contour>
      <point x="672" y="622" type="line"/>
      <point x="-10" y="622" type="line"/>
      <point x="-10" y="512" type="line"/>
      <point x="444" y="512" type="line"/>
      <point x="444" y="202" type="line" smooth="yes"/>
      <point x="444" y="179"/>
      <point x="446" y="155"/>
      <point x="446" y="135" type="curve"/>
      <point x="378" y="197"/>
      <point x="300" y="232"/>
      <point x="208" y="252" type="curve"/>
      <point x="208" y="233" type="line"/>
      <point x="260" y="268"/>
      <point x="321" y="300"/>
      <point x="386" y="332" type="curve"/>
      <point x="328" y="419" type="line"/>
      <point x="290" y="396"/>
      <point x="263" y="388"/>
      <point x="232" y="388" type="curve" smooth="yes"/>
      <point x="205" y="388"/>
      <point x="175" y="399"/>
      <point x="175" y="439" type="curve" smooth="yes"/>
      <point x="175" y="479"/>
      <point x="206" y="512"/>
      <point x="282" y="542" type="curve"/>
      <point x="154" y="574" type="line"/>
      <point x="78" y="529"/>
      <point x="39" y="493"/>
      <point x="39" y="429" type="curve" smooth="yes"/>
      <point x="39" y="368"/>
      <point x="86" y="311"/>
      <point x="197" y="311" type="curve" smooth="yes"/>
      <point x="199" y="311"/>
      <point x="206" y="311"/>
      <point x="217" y="312" type="curve"/>
      <point x="176" y="333" type="line"/>
      <point x="135" y="309"/>
      <point x="98" y="286"/>
      <point x="60" y="259" type="curve"/>
      <point x="102" y="167" type="line"/>
      <point x="260" y="145"/>
      <point x="378" y="83"/>
      <point x="444" y="0" type="curve"/>
      <point x="576" y="0" type="line"/>
      <point x="576" y="512" type="line"/>
      <point x="672" y="512" type="line"/>
    </contour>
  </outline>
</glyph>
<glyph name="ngabeng" format="2">
  <advance width="751"/>
  <unicode hex="0999"/>
  <outline>
    <contour>
      <point x="439" y="4" type="curve" smooth="yes"/>
      <point x="621" y="4"/>
      <point x="715" y="94"/>
      <point x="715" y="224" type="curve" smooth="yes"/>
      <point x="715" y="286"/>
      <point x="693" y="353"/>
      <point x="659" y="401" type="curve"/>
      <point x="541" y="390" type="line"/>
      <point x="494" y="348"/>
      <point x="468" y="331"/>
      <point x="429" y="331" type="curve" smooth="yes"/>
      <point x="407" y="331"/>
      <point x="403" y="346"/>
      <point x="403" y="369" type="curve" smooth="yes"/>
      <point x="403" y="458" type="line" smooth="yes"/>
      <point x="403" y="502"/>
      <point x="422" y="542"/>
      <point x="465" y="542" type="curve" smooth="yes"/>
      <point x="486" y="542"/>
      <point x="500" y="532"/>
      <point x="500" y="513" type="curve" smooth="yes"/>
      <point x="500" y="492"/>
      <point x="479" y="474"/>
      <point x="435" y="474" type="curve" smooth="yes"/>
      <point x="341" y="474"/>
      <point x="270" y="543"/>
      <point x="210" y="623" type="curve"/>
      <point x="118" y="557" type="line"/>
      <point x="183" y="473"/>
      <point x="267" y="388"/>
      <point x="436" y="388" type="curve" smooth="yes"/>
      <point x="534" y="388"/>
      <point x="614" y="427"/>
      <point x="614" y="509" type="curve" smooth="yes"/>
      <point x="614" y="582"/>
      <point x="565" y="628"/>
      <point x="471" y="628" type="curve" smooth="yes"/>
      <point x="354" y="628"/>
      <point x="274" y="555"/>
      <point x="274" y="421" type="curve" smooth="yes"/>
      <point x="274" y="375" type="line" smooth="yes"/>
      <point x="274" y="311"/>
      <point x="290" y="269"/>
      <point x="321" y="245" type="curve" smooth="yes"/>
      <point x="342" y="228"/>
      <point x="372" y="220"/>
      <point x="409" y="220" type="curve" smooth="yes"/>
      <point x="488" y="220"/>
      <point x="557" y="255"/>
      <point x="619" y="321" type="curve"/>
      <point x="539" y="346" type="line"/>
      <point x="571" y="304"/>
      <point x="583" y="270"/>
      <point x="583" y="235" type="curve" smooth="yes"/>
      <point x="583" y="159"/>
      <point x="522" y="118"/>
      <point x="428" y="118" type="curve" smooth="yes"/>
      <point x="296" y="118"/>
      <point x="205" y="213"/>
      <point x="141" y="449" type="curve"/>
      <point x="16" y="414" type="line"/>
      <point x="103" y="91"/>
      <point x="258" y="4"/>
    </contour>
  </outline>
</glyph>
<glyph name="cabeng" format="2">
  <advance width="593"/>
  <unicode hex="099A"/>
  <outline>
    <contour>
      <point x="603" y="622" type="line"/>
      <point x="-10" y="622" type="line"/>
      <point x="-10" y="512" type="line"/>
      <point x="81" y="512" type="line"/>
      <point x="81" y="220" type="line" smooth="yes"/>
      <point x="81" y="122"/>
      <point x="104" y="83"/>
      <point x="133" y="58" type="curve" smooth="yes"/>
      <point x="160" y="34"/>
      <point x="195" y="20"/>
      <point x="267" y="20" type="curve" smooth="yes"/>
      <point x="345" y="20"/>
      <point x="417" y="52"/>
      <point x="470" y="104" type="curve" smooth="yes"/>
      <point x="521" y="154"/>
      <point x="554" y="216"/>
      <point x="554" y="297" type="curve" smooth="yes"/>
      <point x="554" y="327"/>
      <point x="544" y="360"/>
      <point x="526" y="380" type="curve" smooth="yes"/>
      <point x="500" y="409"/>
      <point x="466" y="422"/>
      <point x="396" y="422" type="curve" smooth="yes"/>
      <point x="376" y="422" type="line" smooth="yes"/>
      <point x="305" y="422"/>
      <point x="243" y="453"/>
      <point x="206" y="513" type="curve"/>
      <point x="198" y="390" type="line"/>
      <point x="212" y="371"/>
      <point x="233" y="353"/>
      <point x="258" y="338" type="curve" smooth="yes"/>
      <point x="298" y="315"/>
      <point x="325" y="309"/>
      <point x="365" y="309" type="curve" smooth="yes"/>
      <point x="375" y="309" type="line" smooth="yes"/>
      <point x="404" y="309"/>
      <point x="424" y="298"/>
      <point x="424" y="268" type="curve" smooth="yes"/>
      <point x="424" y="236"/>
      <point x="407" y="205"/>
      <point x="378" y="178" type="curve" smooth="yes"/>
      <point x="343" y="145"/>
      <point x="311" y="130"/>
      <point x="275" y="130" type="curve" smooth="yes"/>
      <point x="252" y="130"/>
      <point x="238" y="135"/>
      <point x="229" y="145" type="curve" smooth="yes"/>
      <point x="218" y="156"/>
      <point x="213" y="173"/>
      <point x="213" y="219" type="curve" smooth="yes"/>
      <point x="213" y="342" type="line"/>
      <point x="213" y="358"/>
      <point x="212" y="374"/>
      <point x="211" y="390" type="curve"/>
      <point x="213" y="487" type="line"/>
      <point x="213" y="512" type="line"/>
      <point x="603" y="512" type="line"/>
    </contour>
  </outline>
</glyph>
<glyph name="chabeng" format="2">
  <advance width="733"/>
  <unicode hex="099B"/>
  <outline>
    <contour>
      <point x="680" y="293" type="curve" smooth="yes"/>
      <point x="680" y="361"/>
      <point x="633" y="474"/>
      <point x="446" y="474" type="curve" smooth="yes"/>
      <point x="420" y="474"/>
      <point x="398" y="473"/>
      <point x="382" y="471" type="curve"/>
      <point x="394" y="378" type="line"/>
      <point x="404" y="380"/>
      <point x="415" y="381"/>
      <point x="420" y="381" type="curve" smooth="yes"/>
      <point x="505" y="381"/>
      <point x="549" y="347"/>
      <point x="549" y="285" type="curve" smooth="yes"/>
      <point x="549" y="202"/>
      <point x="480" y="146"/>
      <point x="305" y="146" type="curve" smooth="yes"/>
      <point x="247" y="146"/>
      <point x="198" y="151"/>
      <point x="165" y="157" type="curve"/>
      <point x="152" y="46" type="line"/>
      <point x="330" y="37"/>
      <point x="505" y="11"/>
      <point x="698" y="-56" type="curve"/>
      <point x="733" y="48" type="line"/>
      <point x="613" y="89"/>
      <point x="501" y="108"/>
      <point x="391" y="119" type="curve"/>
      <point x="415" y="64" type="line"/>
      <point x="547" y="76"/>
      <point x="680" y="141"/>
    </contour>
    <contour>
      <point x="241" y="192" type="curve" smooth="yes"/>
      <point x="382" y="192"/>
      <point x="487" y="269"/>
      <point x="487" y="370" type="curve" smooth="yes"/>
      <point x="487" y="412"/>
      <point x="465" y="437"/>
      <point x="434" y="451" type="curve" smooth="yes"/>
      <point x="416" y="460"/>
      <point x="416" y="471"/>
      <point x="398" y="471" type="curve" smooth="yes"/>
      <point x="312" y="471" type="line" smooth="yes"/>
      <point x="243" y="471"/>
      <point x="208" y="495"/>
      <point x="170" y="538" type="curve"/>
      <point x="153" y="450" type="line"/>
      <point x="190" y="407"/>
      <point x="241" y="378"/>
      <point x="299" y="378" type="curve" smooth="yes"/>
      <point x="326" y="378" type="line" smooth="yes"/>
      <point x="348" y="378"/>
      <point x="360" y="371"/>
      <point x="360" y="356" type="curve" smooth="yes"/>
      <point x="360" y="327"/>
      <point x="311" y="293"/>
      <point x="250" y="293" type="curve" smooth="yes"/>
      <point x="230" y="293"/>
      <point x="216" y="297"/>
      <point x="208" y="308" type="curve" smooth="yes"/>
      <point x="203" y="314"/>
      <point x="199" y="324"/>
      <point x="199" y="350" type="curve" smooth="yes"/>
      <point x="199" y="380" type="line" smooth="yes"/>
      <point x="199" y="391"/>
      <point x="198" y="407"/>
      <point x="196" y="425" type="curve"/>
      <point x="199" y="488" type="line"/>
      <point x="199" y="525" type="line"/>
      <point x="72" y="525" type="line"/>
      <point x="72" y="362" type="line" smooth="yes"/>
      <point x="72" y="296"/>
      <point x="83" y="268"/>
      <point x="101" y="243" type="curve" smooth="yes"/>
      <point x="127" y="207"/>
      <point x="173" y="192"/>
    </contour>
    <contour>
      <point x="-10" y="512" type="line"/>
      <point x="743" y="512" type="line"/>
      <point x="743" y="622" type="line"/>
      <point x="-10" y="622" type="line"/>
    </contour>
  </outline>
</glyph>
<glyph name="jabeng" format="2">
  <advance width="997"/>
  <unicode hex="099C"/>
  <outline>
    <contour>
      <point x="440" y="30" type="curve" smooth="yes"/>
      <point x="626" y="30"/>
      <point x="695" y="136"/>
      <point x="695" y="236" type="curve" smooth="yes"/>
      <point x="695" y="274"/>
      <point x="688" y="310"/>
      <point x="679" y="337" type="curve"/>
      <point x="533" y="380" type="line"/>
      <point x="497" y="353"/>
      <point x="473" y="338"/>
      <point x="437" y="338" type="curve" smooth="yes"/>
      <point x="417" y="338"/>
      <point x="400" y="350"/>
      <point x="400" y="377" type="curve" smooth="yes"/>
      <point x="400" y="423"/>
      <point x="468" y="475"/>
      <point x="587" y="516" type="curve"/>
      <point x="622" y="514"/>
      <point x="675" y="512"/>
      <point x="711" y="512" type="curve" smooth="yes"/>
      <point x="1007" y="512" type="line"/>
      <point x="1007" y="622" type="line"/>
      <point x="-10" y="622" type="line"/>
      <point x="-10" y="512" type="line"/>
      <point x="302" y="512" type="line" smooth="yes"/>
      <point x="329" y="512"/>
      <point x="347" y="512"/>
      <point x="372" y="513" type="curve"/>
      <point x="292" y="466"/>
      <point x="268" y="414"/>
      <point x="268" y="361" type="curve" smooth="yes"/>
      <point x="268" y="269"/>
      <point x="331" y="228"/>
      <point x="418" y="228" type="curve" smooth="yes"/>
      <point x="517" y="228"/>
      <point x="572" y="268"/>
      <point x="634" y="324" type="curve"/>
      <point x="542" y="329" type="line"/>
      <point x="552" y="309"/>
      <point x="565" y="281"/>
      <point x="565" y="236" type="curve" smooth="yes"/>
      <point x="565" y="183"/>
      <point x="527" y="145"/>
      <point x="433" y="145" type="curve" smooth="yes"/>
      <point x="297" y="145"/>
      <point x="210" y="221"/>
      <point x="141" y="463" type="curve"/>
      <point x="16" y="428" type="line"/>
      <point x="102" y="121"/>
      <point x="249" y="30"/>
    </contour>
    <contour>
      <point x="899" y="197" type="curve" smooth="yes"/>
      <point x="899" y="259"/>
      <point x="914" y="308"/>
      <point x="939" y="354" type="curve"/>
      <point x="878" y="453" type="line"/>
      <point x="857" y="451"/>
      <point x="845" y="450"/>
      <point x="830" y="450" type="curve" smooth="yes"/>
      <point x="721" y="450"/>
      <point x="670" y="485"/>
      <point x="646" y="522" type="curve"/>
      <point x="508" y="509" type="line"/>
      <point x="555" y="425"/>
      <point x="638" y="365"/>
      <point x="788" y="343" type="curve"/>
      <point x="773" y="301"/>
      <point x="766" y="253"/>
      <point x="766" y="204" type="curve" smooth="yes"/>
      <point x="766" y="122"/>
      <point x="778" y="61"/>
      <point x="803" y="-11" type="curve"/>
      <point x="932" y="16" type="line"/>
      <point x="910" y="81"/>
      <point x="899" y="144"/>
    </contour>
  </outline>
</glyph>
<glyph name="jhabeng" format="2">
  <advance width="854"/>
  <unicode hex="099D"/>
  <outline>
    <contour>
      <point x="543" y="622" type="line"/>
      <point x="-10" y="622" type="line"/>
      <point x="-10" y="512" type="line"/>
      <point x="415" y="512" type="line"/>
      <point x="415" y="466" type="line"/>
      <point x="433" y="495" type="line"/>
      <point x="291" y="458"/>
      <point x="138" y="389"/>
      <point x="16" y="321" type="curve"/>
      <point x="66" y="203" type="line"/>
      <point x="215" y="178"/>
      <point x="336" y="108"/>
      <point x="411" y="0" type="curve"/>
      <point x="543" y="0" type="line"/>
    </contour>
    <contour>
      <point x="411" y="399" type="line"/>
      <point x="411" y="204" type="line" smooth="yes"/>
      <point x="411" y="171"/>
      <point x="413" y="141"/>
      <point x="415" y="117" type="curve"/>
      <point x="433" y="128" type="line"/>
      <point x="364" y="210"/>
      <point x="266" y="262"/>
      <point x="184" y="278" type="curve"/>
      <point x="270" y="319"/>
      <point x="344" y="351"/>
      <point x="432" y="377" type="curve"/>
    </contour>
    <contour>
      <point x="864" y="622" type="line"/>
      <point x="767" y="622" type="line"/>
      <point x="745" y="688" type="line"/>
      <point x="636" y="688" type="line"/>
      <point x="636" y="273" type="line" smooth="yes"/>
      <point x="636" y="240"/>
      <point x="638" y="209"/>
      <point x="640" y="186" type="curve"/>
      <point x="658" y="197" type="line"/>
      <point x="600" y="266"/>
      <point x="521" y="313"/>
      <point x="448" y="336" type="curve"/>
      <point x="441" y="232" type="line"/>
      <point x="522" y="196"/>
      <point x="589" y="143"/>
      <point x="637" y="74" type="curve"/>
      <point x="768" y="74" type="line"/>
      <point x="768" y="512" type="line"/>
      <point x="864" y="512" type="line"/>
    </contour>
  </outline>
</glyph>
<glyph name="nyabeng" format="2">
  <advance width="1070"/>
  <unicode hex="099E"/>
  <outline>
    <contour>
      <point x="533" y="628" type="curve" smooth="yes"/>
      <point x="381" y="628"/>
      <point x="259" y="495"/>
      <point x="259" y="386" type="curve" smooth="yes"/>
      <point x="259" y="298"/>
      <point x="321" y="258"/>
      <point x="403" y="258" type="curve" smooth="yes"/>
      <point x="440" y="258"/>
      <point x="465" y="262"/>
      <point x="482" y="268" type="curve"/>
      <point x="476" y="375" type="line"/>
      <point x="463" y="373"/>
      <point x="453" y="372"/>
      <point x="439" y="372" type="curve" smooth="yes"/>
      <point x="396" y="372"/>
      <point x="389" y="386"/>
      <point x="389" y="404" type="curve" smooth="yes"/>
      <point x="389" y="438"/>
      <point x="449" y="518"/>
      <point x="520" y="518" type="curve" smooth="yes"/>
      <point x="540" y="518"/>
      <point x="554" y="514"/>
      <point x="563" y="504" type="curve" smooth="yes"/>
      <point x="575" y="493"/>
      <point x="580" y="477"/>
      <point x="580" y="435" type="curve" smooth="yes"/>
      <point x="580" y="130" type="line"/>
      <point x="540" y="170"/>
      <point x="507" y="180"/>
      <point x="454" y="180" type="curve" smooth="yes"/>
      <point x="403" y="180"/>
      <point x="353" y="166"/>
      <point x="291" y="166" type="curve" smooth="yes"/>
      <point x="226" y="166"/>
      <point x="162" y="178"/>
      <point x="162" y="277" type="curve" smooth="yes"/>
      <point x="162" y="315"/>
      <point x="167" y="341"/>
      <point x="172" y="360" type="curve"/>
      <point x="43" y="377" type="line"/>
      <point x="37" y="347"/>
      <point x="31" y="305"/>
      <point x="31" y="271" type="curve" smooth="yes"/>
      <point x="31" y="79"/>
      <point x="158" y="52"/>
      <point x="272" y="52" type="curve" smooth="yes"/>
      <point x="343" y="52"/>
      <point x="397" y="67"/>
      <point x="471" y="67" type="curve" smooth="yes"/>
      <point x="534" y="67"/>
      <point x="560" y="48"/>
      <point x="582" y="0" type="curve"/>
      <point x="712" y="0" type="line"/>
      <point x="712" y="166" type="line" smooth="yes"/>
      <point x="712" y="204"/>
      <point x="710" y="233"/>
      <point x="706" y="270" type="curve"/>
      <point x="712" y="291" type="line"/>
      <point x="712" y="426" type="line"/>
      <point x="709" y="462" type="line"/>
      <point x="709" y="536"/>
      <point x="690" y="571"/>
      <point x="665" y="591" type="curve" smooth="yes"/>
      <point x="634" y="615"/>
      <point x="597" y="628"/>
    </contour>
    <contour>
      <point x="871" y="614" type="curve" smooth="yes"/>
      <point x="793" y="614"/>
      <point x="735" y="585"/>
      <point x="682" y="524" type="curve"/>
      <point x="706" y="395" type="line"/>
      <point x="742" y="467"/>
      <point x="795" y="513"/>
      <point x="853" y="513" type="curve" smooth="yes"/>
      <point x="877" y="513"/>
      <point x="896" y="505"/>
      <point x="896" y="480" type="curve" smooth="yes"/>
      <point x="896" y="453"/>
      <point x="866" y="435"/>
      <point x="812" y="426" type="curve"/>
      <point x="836" y="329" type="line"/>
      <point x="991" y="359"/>
      <point x="1021" y="437"/>
      <point x="1021" y="491" type="curve" smooth="yes"/>
      <point x="1021" y="562"/>
      <point x="966" y="614"/>
    </contour>
    <contour>
      <point x="866" y="160" type="curve" smooth="yes"/>
      <point x="977" y="160"/>
      <point x="1026" y="221"/>
      <point x="1026" y="289" type="curve" smooth="yes"/>
      <point x="1026" y="358"/>
      <point x="977" y="395"/>
      <point x="935" y="413" type="curve"/>
      <point x="831" y="373" type="line"/>
      <point x="880" y="355"/>
      <point x="902" y="331"/>
      <point x="902" y="303" type="curve" smooth="yes"/>
      <point x="902" y="272"/>
      <point x="879" y="261"/>
      <point x="847" y="261" type="curve" smooth="yes"/>
      <point x="786" y="261"/>
      <point x="728" y="312"/>
      <point x="704" y="422" type="curve"/>
      <point x="642" y="340" type="line"/>
      <point x="689" y="256" type="line"/>
      <point x="724" y="201"/>
      <point x="781" y="160"/>
    </contour>
  </outline>
</glyph>
<glyph name="ttabeng" format="2">
  <advance width="593"/>
  <unicode hex="099F"/>
  <outline>
    <contour>
      <point x="603" y="622" type="line"/>
      <point x="-10" y="622" type="line"/>
      <point x="-10" y="512" type="line"/>
      <point x="81" y="512" type="line"/>
      <point x="81" y="220" type="line" smooth="yes"/>
      <point x="81" y="122"/>
      <point x="104" y="83"/>
      <point x="132" y="59" type="curve" smooth="yes"/>
      <point x="160" y="34"/>
      <point x="195" y="20"/>
      <point x="267" y="20" type="curve" smooth="yes"/>
      <point x="345" y="20"/>
      <point x="417" y="52"/>
      <point x="470" y="104" type="curve" smooth="yes"/>
      <point x="521" y="154"/>
      <point x="554" y="218"/>
      <point x="554" y="292" type="curve" smooth="yes"/>
      <point x="554" y="367"/>
      <point x="512" y="426"/>
      <point x="407" y="426" type="curve" smooth="yes"/>
      <point x="368" y="426"/>
      <point x="341" y="421"/>
      <point x="312" y="415" type="curve"/>
      <point x="330" y="307" type="line"/>
      <point x="342" y="309"/>
      <point x="356" y="311"/>
      <point x="373" y="311" type="curve" smooth="yes"/>
      <point x="409" y="311"/>
      <point x="424" y="293"/>
      <point x="424" y="268" type="curve" smooth="yes"/>
      <point x="424" y="236"/>
      <point x="407" y="205"/>
      <point x="378" y="178" type="curve" smooth="yes"/>
      <point x="343" y="145"/>
      <point x="311" y="130"/>
      <point x="275" y="130" type="curve" smooth="yes"/>
      <point x="252" y="130"/>
      <point x="238" y="135"/>
      <point x="229" y="145" type="curve" smooth="yes"/>
      <point x="218" y="156"/>
      <point x="213" y="173"/>
      <point x="213" y="219" type="curve" smooth="yes"/>
      <point x="213" y="512" type="line"/>
      <point x="603" y="512" type="line"/>
    </contour>
    <contour>
      <point x="380" y="622" type="curve"/>
      <point x="505" y="622" type="line"/>
      <point x="503" y="684"/>
      <point x="489" y="724"/>
      <point x="464" y="749" type="curve" smooth="yes"/>
      <point x="432" y="780"/>
      <point x="391" y="790"/>
      <point x="312" y="790" type="curve" smooth="yes"/>
      <point x="233" y="790" type="line" smooth="yes"/>
      <point x="182" y="790"/>
      <point x="164" y="797"/>
      <point x="150" y="810" type="curve" smooth="yes"/>
      <point x="135" y="824"/>
      <point x="130" y="847"/>
      <point x="130" y="875" type="curve" smooth="yes"/>
      <point x="130" y="883"/>
      <point x="131" y="892"/>
      <point x="132" y="904" type="curve"/>
      <point x="7" y="912" type="line"/>
      <point x="3" y="888"/>
      <point x="2" y="874"/>
      <point x="2" y="854" type="curve" smooth="yes"/>
      <point x="2" y="805"/>
      <point x="13" y="767"/>
      <point x="38" y="739" type="curve" smooth="yes"/>
      <point x="74" y="699"/>
      <point x="135" y="680"/>
      <point x="236" y="680" type="curve" smooth="yes"/>
      <point x="311" y="680" type="line" smooth="yes"/>
      <point x="361" y="680"/>
      <point x="378" y="663"/>
    </contour>
  </outline>
</glyph>
<glyph name="tthabeng" format="2">
  <advance width="634"/>
  <unicode hex="09A0"/>
  <outline>
    <contour>
      <point x="308" y="0" type="curve" smooth="yes"/>
      <point x="494" y="0"/>
      <point x="589" y="91"/>
      <point x="589" y="241" type="curve" smooth="yes"/>
      <point x="589" y="337"/>
      <point x="549" y="427"/>
      <point x="463" y="514" type="curve"/>
      <point x="483" y="512"/>
      <point x="498" y="512"/>
      <point x="524" y="512" type="curve" smooth="yes"/>
      <point x="644" y="512" type="line"/>
      <point x="644" y="622" type="line"/>
      <point x="338" y="622" type="line"/>
      <point x="288" y="672"/>
      <point x="259" y="706"/>
      <point x="259" y="741" type="curve" smooth="yes"/>
      <point x="259" y="771"/>
      <point x="272" y="794"/>
      <point x="312" y="825" type="curve"/>
      <point x="216" y="917" type="line"/>
      <point x="159" y="875"/>
      <point x="127" y="832"/>
      <point x="127" y="776" type="curve" smooth="yes"/>
      <point x="127" y="726"/>
      <point x="150" y="681"/>
      <point x="199" y="622" type="curve"/>
      <point x="-10" y="622" type="line"/>
      <point x="-10" y="512" type="line"/>
      <point x="253" y="512" type="line"/>
      <point x="264" y="485"/>
      <point x="264" y="458"/>
      <point x="264" y="438" type="curve" smooth="yes"/>
      <point x="264" y="353"/>
      <point x="218" y="285"/>
      <point x="56" y="266" type="curve"/>
      <point x="22" y="151" type="line"/>
      <point x="73" y="66"/>
      <point x="178" y="0"/>
    </contour>
    <contour>
      <point x="305" y="114" type="curve" smooth="yes"/>
      <point x="233" y="114"/>
      <point x="159" y="151"/>
      <point x="138" y="227" type="curve"/>
      <point x="125" y="159" type="line"/>
      <point x="323" y="202"/>
      <point x="376" y="291"/>
      <point x="376" y="399" type="curve" smooth="yes"/>
      <point x="376" y="447"/>
      <point x="357" y="498"/>
      <point x="344" y="531" type="curve"/>
      <point x="315" y="524" type="line"/>
      <point x="417" y="415"/>
      <point x="453" y="335"/>
      <point x="453" y="247" type="curve" smooth="yes"/>
      <point x="453" y="158"/>
      <point x="392" y="114"/>
    </contour>
  </outline>
</glyph>
<glyph name="ddhabeng" format="2">
  <advance width="593"/>
  <unicode hex="09A2"/>
  <outline>
    <contour>
      <point x="603" y="622" type="line"/>
      <point x="-10" y="622" type="line"/>
      <point x="-10" y="512" type="line"/>
      <point x="81" y="512" type="line"/>
      <point x="81" y="220" type="line" smooth="yes"/>
      <point x="81" y="122"/>
      <point x="104" y="83"/>
      <point x="132" y="59" type="curve" smooth="yes"/>
      <point x="160" y="34"/>
      <point x="195" y="20"/>
      <point x="267" y="20" type="curve" smooth="yes"/>
      <point x="345" y="20"/>
      <point x="417" y="52"/>
      <point x="470" y="104" type="curve" smooth="yes"/>
      <point x="521" y="154"/>
      <point x="554" y="218"/>
      <point x="554" y="292" type="curve" smooth="yes"/>
      <point x="554" y="367"/>
      <point x="512" y="426"/>
      <point x="407" y="426" type="curve" smooth="yes"/>
      <point x="368" y="426"/>
      <point x="341" y="421"/>
      <point x="312" y="415" type="curve"/>
      <point x="330" y="307" type="line"/>
      <point x="342" y="309"/>
      <point x="356" y="311"/>
      <point x="373" y="311" type="curve" smooth="yes"/>
      <point x="409" y="311"/>
      <point x="424" y="293"/>
      <point x="424" y="268" type="curve" smooth="yes"/>
      <point x="424" y="236"/>
      <point x="407" y="205"/>
      <point x="378" y="178" type="curve" smooth="yes"/>
      <point x="343" y="145"/>
      <point x="311" y="130"/>
      <point x="275" y="130" type="curve" smooth="yes"/>
      <point x="252" y="130"/>
      <point x="238" y="135"/>
      <point x="229" y="145" type="curve" smooth="yes"/>
      <point x="218" y="156"/>
      <point x="213" y="173"/>
      <point x="213" y="219" type="curve" smooth="yes"/>
      <point x="213" y="512" type="line"/>
      <point x="603" y="512" type="line"/>
    </contour>
  </outline>
</glyph>
<glyph name="nnabeng" format="2">
  <advance width="643"/>
  <unicode hex="09A3"/>
  <outline>
    <contour>
      <point x="653" y="622" type="line"/>
      <point x="556" y="622" type="line"/>
      <point x="533" y="688" type="line"/>
      <point x="425" y="688" type="line"/>
      <point x="425" y="600" type="line" smooth="yes"/>
      <point x="425" y="570"/>
      <point x="426" y="534"/>
      <point x="428" y="502" type="curve"/>
      <point x="450" y="503" type="line"/>
      <point x="386" y="567"/>
      <point x="318" y="629"/>
      <point x="213" y="629" type="curve" smooth="yes"/>
      <point x="110" y="629"/>
      <point x="31" y="560"/>
      <point x="31" y="454" type="curve" smooth="yes"/>
      <point x="31" y="340"/>
      <point x="105" y="262"/>
      <point x="278" y="242" type="curve"/>
      <point x="293" y="372" type="line"/>
      <point x="191" y="376"/>
      <point x="167" y="408"/>
      <point x="167" y="451" type="curve" smooth="yes"/>
      <point x="167" y="492"/>
      <point x="194" y="516"/>
      <point x="234" y="516" type="curve" smooth="yes"/>
      <point x="310" y="516"/>
      <point x="384" y="446"/>
      <point x="448" y="364" type="curve"/>
      <point x="425" y="422" type="line"/>
      <point x="425" y="0" type="line"/>
      <point x="557" y="0" type="line"/>
      <point x="557" y="512" type="line"/>
      <point x="653" y="512" type="line"/>
    </contour>
  </outline>
</glyph>
<glyph name="tabeng" format="2">
  <advance width="732"/>
  <unicode hex="09A4"/>
  <outline>
    <contour>
      <point x="430" y="33" type="curve" smooth="yes"/>
      <point x="619" y="33"/>
      <point x="698" y="136"/>
      <point x="698" y="255" type="curve" smooth="yes"/>
      <point x="698" y="382"/>
      <point x="615" y="476"/>
      <point x="465" y="476" type="curve" smooth="yes"/>
      <point x="372" y="476"/>
      <point x="288" y="437"/>
      <point x="288" y="337" type="curve" smooth="yes"/>
      <point x="288" y="317"/>
      <point x="293" y="289"/>
      <point x="306" y="259" type="curve"/>
      <point x="431" y="278" type="line"/>
      <point x="426" y="291"/>
      <point x="423" y="306"/>
      <point x="423" y="321" type="curve" smooth="yes"/>
      <point x="423" y="353"/>
      <point x="446" y="369"/>
      <point x="477" y="369" type="curve" smooth="yes"/>
      <point x="523" y="369"/>
      <point x="565" y="335"/>
      <point x="565" y="267" type="curve" smooth="yes"/>
      <point x="565" y="189"/>
      <point x="517" y="148"/>
      <point x="414" y="148" type="curve" smooth="yes"/>
      <point x="280" y="148"/>
      <point x="203" y="247"/>
      <point x="141" y="463" type="curve"/>
      <point x="16" y="428" type="line"/>
      <point x="99" y="129"/>
      <point x="242" y="33"/>
    </contour>
    <contour>
      <point x="742" y="622" type="line"/>
      <point x="-10" y="622" type="line"/>
      <point x="-10" y="512" type="line"/>
      <point x="742" y="512" type="line"/>
    </contour>
  </outline>
</glyph>
<glyph name="thabeng" format="2">
  <advance width="718"/>
  <unicode hex="09A5"/>
  <outline>
    <contour>
      <point x="728" y="622" type="line"/>
      <point x="631" y="622" type="line"/>
      <point x="608" y="688" type="line"/>
      <point x="500" y="688" type="line"/>
      <point x="500" y="242" type="line" smooth="yes"/>
      <point x="500" y="207"/>
      <point x="500" y="176"/>
      <point x="502" y="146" type="curve"/>
      <point x="430" y="208"/>
      <point x="355" y="271"/>
      <point x="162" y="291" type="curve"/>
      <point x="103" y="315" type="line"/>
      <point x="135" y="199" type="line"/>
      <point x="303" y="172"/>
      <point x="406" y="113"/>
      <point x="500" y="0" type="curve"/>
      <point x="632" y="0" type="line"/>
      <point x="632" y="512" type="line"/>
      <point x="728" y="512" type="line"/>
    </contour>
    <contour>
      <point x="227" y="625" type="curve" smooth="yes"/>
      <point x="99" y="625"/>
      <point x="37" y="559"/>
      <point x="37" y="482" type="curve" smooth="yes"/>
      <point x="37" y="415"/>
      <point x="80" y="379"/>
      <point x="115" y="356" type="curve"/>
      <point x="197" y="438" type="line"/>
      <point x="179" y="450"/>
      <point x="168" y="464"/>
      <point x="168" y="481" type="curve" smooth="yes"/>
      <point x="168" y="499"/>
      <point x="186" y="518"/>
      <point x="228" y="518" type="curve" smooth="yes"/>
      <point x="284" y="518"/>
      <point x="312" y="485"/>
      <point x="312" y="447" type="curve" smooth="yes"/>
      <point x="312" y="384"/>
      <point x="254" y="343"/>
      <point x="103" y="315" type="curve"/>
      <point x="143" y="262" type="line"/>
      <point x="206" y="248" type="line"/>
      <point x="353" y="266"/>
      <point x="444" y="340"/>
      <point x="444" y="451" type="curve" smooth="yes"/>
      <point x="444" y="541"/>
      <point x="378" y="625"/>
    </contour>
  </outline>
</glyph>
<glyph name="dhabeng" format="2">
  <advance width="629"/>
  <unicode hex="09A7"/>
  <outline>
    <contour>
      <point x="639" y="622" type="line"/>
      <point x="411" y="622" type="line"/>
      <point x="411" y="462" type="line"/>
      <point x="433" y="495" type="line"/>
      <point x="291" y="458"/>
      <point x="138" y="389"/>
      <point x="16" y="321" type="curve"/>
      <point x="66" y="203" type="line"/>
      <point x="215" y="178"/>
      <point x="336" y="108"/>
      <point x="411" y="0" type="curve"/>
      <point x="543" y="0" type="line"/>
      <point x="543" y="512" type="line"/>
      <point x="639" y="512" type="line"/>
    </contour>
    <contour>
      <point x="411" y="399" type="line"/>
      <point x="411" y="220" type="line" smooth="yes"/>
      <point x="411" y="178"/>
      <point x="413" y="147"/>
      <point x="414" y="117" type="curve"/>
      <point x="433" y="128" type="line"/>
      <point x="364" y="210"/>
      <point x="266" y="262"/>
      <point x="184" y="278" type="curve"/>
      <point x="270" y="319"/>
      <point x="344" y="351"/>
      <point x="432" y="377" type="curve"/>
    </contour>
    <contour>
      <point x="237" y="629" type="curve" smooth="yes"/>
      <point x="124" y="629"/>
      <point x="90" y="564"/>
      <point x="90" y="508" type="curve" smooth="yes"/>
      <point x="90" y="434"/>
      <point x="142" y="390"/>
      <point x="229" y="347" type="curve"/>
      <point x="306" y="424" type="line"/>
      <point x="246" y="436"/>
      <point x="215" y="456"/>
      <point x="215" y="490" type="curve" smooth="yes"/>
      <point x="215" y="508"/>
      <point x="229" y="525"/>
      <point x="264" y="525" type="curve" smooth="yes"/>
      <point x="277" y="525"/>
      <point x="285" y="524"/>
      <point x="291" y="523" type="curve"/>
      <point x="299" y="624" type="line"/>
      <point x="279" y="627"/>
      <point x="258" y="629"/>
    </contour>
  </outline>
</glyph>
<glyph name="nabeng" format="2">
  <advance width="634"/>
  <unicode hex="09A8"/>
  <outline>
    <contour>
      <point x="644" y="622" type="line"/>
      <point x="-10" y="622" type="line"/>
      <point x="-10" y="512" type="line"/>
      <point x="416" y="512" type="line"/>
      <point x="416" y="388" type="line" smooth="yes"/>
      <point x="416" y="359"/>
      <point x="416" y="323"/>
      <point x="419" y="291" type="curve"/>
      <point x="439" y="301" type="line"/>
      <point x="367" y="374"/>
      <point x="292" y="417"/>
      <point x="200" y="417" type="curve" smooth="yes"/>
      <point x="115" y="417"/>
      <point x="29" y="368"/>
      <point x="29" y="261" type="curve" smooth="yes"/>
      <point x="29" y="184"/>
      <point x="83" y="115"/>
      <point x="173" y="80" type="curve"/>
      <point x="232" y="190" type="line"/>
      <point x="185" y="208"/>
      <point x="165" y="227"/>
      <point x="165" y="256" type="curve" smooth="yes"/>
      <point x="165" y="289"/>
      <point x="191" y="304"/>
      <point x="225" y="304" type="curve" smooth="yes"/>
      <point x="295" y="304"/>
      <point x="373" y="238"/>
      <point x="436" y="158" type="curve"/>
      <point x="416" y="210" type="line"/>
      <point x="416" y="0" type="line"/>
      <point x="548" y="0" type="line"/>
      <point x="548" y="512" type="line"/>
      <point x="644" y="512" type="line"/>
    </contour>
  </outline>
</glyph>
<glyph name="pabeng" format="2">
  <advance width="765"/>
  <unicode hex="09AA"/>
  <outline>
    <contour>
      <point x="775" y="622" type="line"/>
      <point x="678" y="622" type="line"/>
      <point x="655" y="688" type="line"/>
      <point x="547" y="688" type="line"/>
      <point x="547" y="562" type="line" smooth="yes"/>
      <point x="547" y="528"/>
      <point x="550" y="492"/>
      <point x="553" y="465" type="curve"/>
      <point x="557" y="486" type="line"/>
      <point x="468" y="575"/>
      <point x="398" y="629"/>
      <point x="297" y="629" type="curve" smooth="yes"/>
      <point x="181" y="629"/>
      <point x="104" y="561"/>
      <point x="13" y="448" type="curve"/>
      <point x="112" y="357" type="line"/>
      <point x="132" y="369"/>
      <point x="149" y="375"/>
      <point x="167" y="375" type="curve" smooth="yes"/>
      <point x="193" y="375"/>
      <point x="213" y="362"/>
      <point x="213" y="330" type="curve" smooth="yes"/>
      <point x="213" y="308"/>
      <point x="200" y="283"/>
      <point x="178" y="261" type="curve"/>
      <point x="219" y="285" type="line"/>
      <point x="257" y="336" type="line"/>
      <point x="163" y="250" type="line"/>
      <point x="254" y="165" type="line"/>
      <point x="550" y="434" type="line"/>
      <point x="471" y="513" type="line"/>
      <point x="351" y="409" type="line" smooth="yes"/>
      <point x="323" y="384"/>
      <point x="289" y="353"/>
      <point x="270" y="330" type="curve"/>
      <point x="301" y="321" type="line"/>
      <point x="303" y="328"/>
      <point x="304" y="349"/>
      <point x="304" y="370" type="curve" smooth="yes"/>
      <point x="304" y="415"/>
      <point x="275" y="459"/>
      <point x="209" y="459" type="curve" smooth="yes"/>
      <point x="166" y="459"/>
      <point x="136" y="442"/>
      <point x="110" y="425" type="curve"/>
      <point x="113" y="402" type="line"/>
      <point x="168" y="471"/>
      <point x="220" y="519"/>
      <point x="301" y="519" type="curve" smooth="yes"/>
      <point x="390" y="519"/>
      <point x="469" y="453"/>
      <point x="553" y="341" type="curve"/>
      <point x="547" y="392" type="line"/>
      <point x="547" y="0" type="line"/>
      <point x="679" y="0" type="line"/>
      <point x="679" y="512" type="line"/>
      <point x="775" y="512" type="line"/>
    </contour>
  </outline>
</glyph>
<glyph name="phabeng" format="2">
  <advance width="885"/>
  <unicode hex="09AB"/>
  <outline>
    <contour>
      <point x="895" y="622" type="line"/>
      <point x="-10" y="622" type="line"/>
      <point x="-10" y="512" type="line"/>
      <point x="98" y="512" type="line"/>
      <point x="60" y="539" type="line"/>
      <point x="23" y="456" type="line"/>
      <point x="99" y="444"/>
      <point x="163" y="419"/>
      <point x="219" y="387" type="curve"/>
      <point x="152" y="355"/>
      <point x="86" y="318"/>
      <point x="31" y="285" type="curve"/>
      <point x="78" y="172" type="line"/>
      <point x="240" y="150"/>
      <point x="360" y="98"/>
      <point x="439" y="0" type="curve"/>
      <point x="571" y="0" type="line"/>
      <point x="571" y="372" type="line"/>
      <point x="679" y="362"/>
      <point x="724" y="323"/>
      <point x="724" y="284" type="curve" smooth="yes"/>
      <point x="724" y="260"/>
      <point x="714" y="241"/>
      <point x="666" y="241" type="curve" smooth="yes"/>
      <point x="650" y="241"/>
      <point x="641" y="242"/>
      <point x="634" y="243" type="curve"/>
      <point x="629" y="133" type="line"/>
      <point x="650" y="129"/>
      <point x="673" y="127"/>
      <point x="701" y="127" type="curve" smooth="yes"/>
      <point x="818" y="127"/>
      <point x="853" y="191"/>
      <point x="853" y="258" type="curve" smooth="yes"/>
      <point x="853" y="308"/>
      <point x="833" y="357"/>
      <point x="791" y="395" type="curve" smooth="yes"/>
      <point x="714" y="465"/>
      <point x="621" y="485"/>
      <point x="485" y="485" type="curve" smooth="yes"/>
      <point x="439" y="485" type="line"/>
      <point x="439" y="202" type="line" smooth="yes"/>
      <point x="439" y="178"/>
      <point x="439" y="156"/>
      <point x="441" y="134" type="curve"/>
      <point x="375" y="202"/>
      <point x="260" y="246"/>
      <point x="188" y="256" type="curve"/>
      <point x="189" y="250" type="line"/>
      <point x="240" y="279"/>
      <point x="301" y="307"/>
      <point x="357" y="330" type="curve"/>
      <point x="345" y="418" type="line"/>
      <point x="301" y="458"/>
      <point x="244" y="499"/>
      <point x="174" y="519" type="curve"/>
      <point x="161" y="512" type="line"/>
      <point x="895" y="512" type="line"/>
    </contour>
  </outline>
</glyph>
<glyph name="babeng" format="2">
  <advance width="629"/>
  <unicode hex="09AC"/>
  <outline>
    <contour>
      <point x="639" y="622" type="line"/>
      <point x="-10" y="622" type="line"/>
      <point x="-10" y="512" type="line"/>
      <point x="415" y="512" type="line"/>
      <point x="415" y="462" type="line"/>
      <point x="433" y="495" type="line"/>
      <point x="291" y="458"/>
      <point x="138" y="389"/>
      <point x="16" y="321" type="curve"/>
      <point x="66" y="203" type="line"/>
      <point x="215" y="178"/>
      <point x="336" y="108"/>
      <point x="411" y="0" type="curve"/>
      <point x="543" y="0" type="line"/>
      <point x="543" y="512" type="line"/>
      <point x="639" y="512" type="line"/>
    </contour>
    <contour>
      <point x="411" y="399" type="line"/>
      <point x="411" y="208" type="line" smooth="yes"/>
      <point x="411" y="178"/>
      <point x="412" y="147"/>
      <point x="414" y="117" type="curve"/>
      <point x="433" y="128" type="line"/>
      <point x="364" y="210"/>
      <point x="266" y="262"/>
      <point x="184" y="278" type="curve"/>
      <point x="270" y="319"/>
      <point x="344" y="351"/>
      <point x="432" y="377" type="curve"/>
    </contour>
  </outline>
</glyph>
<glyph name="bhabeng" format="2">
  <advance width="750"/>
  <unicode hex="09AD"/>
  <outline>
    <contour>
      <point x="442" y="29" type="curve" smooth="yes"/>
      <point x="621" y="29"/>
      <point x="714" y="123"/>
      <point x="714" y="247" type="curve" smooth="yes"/>
      <point x="714" y="323"/>
      <point x="691" y="389"/>
      <point x="641" y="457" type="curve"/>
      <point x="537" y="373" type="line"/>
      <point x="563" y="350"/>
      <point x="583" y="315"/>
      <point x="583" y="264" type="curve" smooth="yes"/>
      <point x="583" y="187"/>
      <point x="528" y="144"/>
      <point x="432" y="144" type="curve" smooth="yes"/>
      <point x="297" y="144"/>
      <point x="210" y="221"/>
      <point x="141" y="463" type="curve"/>
      <point x="16" y="428" type="line"/>
      <point x="101" y="117"/>
      <point x="254" y="29"/>
    </contour>
    <contour>
      <point x="407" y="256" type="curve" smooth="yes"/>
      <point x="508" y="256"/>
      <point x="579" y="306"/>
      <point x="646" y="394" type="curve"/>
      <point x="641" y="457" type="line"/>
      <point x="530" y="438" type="line"/>
      <point x="491" y="382"/>
      <point x="467" y="366"/>
      <point x="429" y="366" type="curve" smooth="yes"/>
      <point x="406" y="366"/>
      <point x="390" y="376"/>
      <point x="390" y="401" type="curve" smooth="yes"/>
      <point x="390" y="413"/>
      <point x="393" y="422"/>
      <point x="399" y="434" type="curve"/>
      <point x="281" y="463" type="line"/>
      <point x="269" y="439"/>
      <point x="260" y="409"/>
      <point x="260" y="377" type="curve" smooth="yes"/>
      <point x="260" y="302"/>
      <point x="316" y="256"/>
    </contour>
    <contour>
      <point x="760" y="622" type="line"/>
      <point x="-10" y="622" type="line"/>
      <point x="-10" y="512" type="line"/>
      <point x="760" y="512" type="line"/>
    </contour>
  </outline>
</glyph>
<glyph name="mabeng" format="2">
  <advance width="645"/>
  <unicode hex="09AE"/>
  <outline>
    <contour>
      <point x="655" y="622" type="line"/>
      <point x="-10" y="622" type="line"/>
      <point x="-10" y="512" type="line"/>
      <point x="427" y="512" type="line"/>
      <point x="427" y="306" type="line" smooth="yes"/>
      <point x="427" y="274"/>
      <point x="427" y="241"/>
      <point x="429" y="209" type="curve"/>
      <point x="449" y="224" type="line"/>
      <point x="381" y="311"/>
      <point x="309" y="349"/>
      <point x="211" y="349" type="curve" smooth="yes"/>
      <point x="126" y="349"/>
      <point x="40" y="302"/>
      <point x="40" y="196" type="curve" smooth="yes"/>
      <point x="40" y="120"/>
      <point x="91" y="44"/>
      <point x="211" y="10" type="curve"/>
      <point x="249" y="125" type="line"/>
      <point x="203" y="141"/>
      <point x="176" y="157"/>
      <point x="176" y="192" type="curve" smooth="yes"/>
      <point x="176" y="224"/>
      <point x="202" y="240"/>
      <point x="233" y="240" type="curve" smooth="yes"/>
      <point x="308" y="240"/>
      <point x="369" y="179"/>
      <point x="444" y="77" type="curve"/>
      <point x="427" y="130" type="line"/>
      <point x="427" y="0" type="line"/>
      <point x="559" y="0" type="line"/>
      <point x="559" y="512" type="line"/>
      <point x="655" y="512" type="line"/>
    </contour>
    <contour>
      <point x="321" y="321" type="curve" smooth="yes"/>
      <point x="321" y="454"/>
      <point x="263" y="521"/>
      <point x="104" y="541" type="curve"/>
      <point x="48" y="557" type="line"/>
      <point x="22" y="456" type="line"/>
      <point x="151" y="443"/>
      <point x="184" y="415"/>
      <point x="189" y="321" type="curve"/>
      <point x="318" y="288" type="line"/>
      <point x="320" y="300"/>
      <point x="321" y="314"/>
    </contour>
  </outline>
</glyph>
<glyph name="yabeng" format="2">
  <advance width="665"/>
  <unicode hex="09AF"/>
  <outline>
    <contour>
      <point x="675" y="622" type="line"/>
      <point x="-10" y="622" type="line"/>
      <point x="-10" y="512" type="line"/>
      <point x="98" y="512" type="line"/>
      <point x="60" y="539" type="line"/>
      <point x="23" y="456" type="line"/>
      <point x="99" y="444"/>
      <point x="163" y="419"/>
      <point x="219" y="387" type="curve"/>
      <point x="152" y="355"/>
      <point x="86" y="318"/>
      <point x="31" y="285" type="curve"/>
      <point x="78" y="172" type="line"/>
      <point x="247" y="149"/>
      <point x="366" y="100"/>
      <point x="447" y="0" type="curve"/>
      <point x="579" y="0" type="line"/>
      <point x="579" y="512" type="line"/>
      <point x="675" y="512" type="line"/>
    </contour>
    <contour>
      <point x="447" y="512" type="line"/>
      <point x="447" y="203" type="line" smooth="yes"/>
      <point x="447" y="164"/>
      <point x="447" y="131"/>
      <point x="454" y="96" type="curve"/>
      <point x="474" y="104" type="line"/>
      <point x="411" y="190"/>
      <point x="278" y="244"/>
      <point x="188" y="256" type="curve"/>
      <point x="189" y="250" type="line"/>
      <point x="240" y="279"/>
      <point x="301" y="307"/>
      <point x="357" y="330" type="curve"/>
      <point x="345" y="418" type="line"/>
      <point x="301" y="458"/>
      <point x="244" y="499"/>
      <point x="174" y="519" type="curve"/>
      <point x="161" y="512" type="line"/>
    </contour>
  </outline>
</glyph>
<glyph name="labeng" format="2">
  <advance width="776"/>
  <unicode hex="09B2"/>
  <outline>
    <contour>
      <point x="786" y="622" type="line"/>
      <point x="-10" y="622" type="line"/>
      <point x="-10" y="512" type="line"/>
      <point x="558" y="512" type="line"/>
      <point x="558" y="461" type="line" smooth="yes"/>
      <point x="558" y="432"/>
      <point x="560" y="402"/>
      <point x="563" y="373" type="curve"/>
      <point x="585" y="389" type="line"/>
      <point x="553" y="421"/>
      <point x="517" y="441"/>
      <point x="471" y="441" type="curve" smooth="yes"/>
      <point x="429" y="441"/>
      <point x="387" y="417"/>
      <point x="373" y="370" type="curve"/>
      <point x="391" y="363" type="line"/>
      <point x="334" y="421"/>
      <point x="288" y="446"/>
      <point x="209" y="446" type="curve" smooth="yes"/>
      <point x="110" y="446"/>
      <point x="29" y="385"/>
      <point x="29" y="285" type="curve" smooth="yes"/>
      <point x="29" y="181"/>
      <point x="104" y="113"/>
      <point x="225" y="79" type="curve"/>
      <point x="263" y="191" type="line"/>
      <point x="208" y="208"/>
      <point x="165" y="232"/>
      <point x="165" y="280" type="curve" smooth="yes"/>
      <point x="165" y="312"/>
      <point x="189" y="333"/>
      <point x="226" y="333" type="curve" smooth="yes"/>
      <point x="287" y="333"/>
      <point x="324" y="291"/>
      <point x="335" y="225" type="curve"/>
      <point x="448" y="232" type="line"/>
      <point x="446" y="242"/>
      <point x="445" y="252"/>
      <point x="445" y="264" type="curve" smooth="yes"/>
      <point x="445" y="318"/>
      <point x="476" y="329"/>
      <point x="497" y="329" type="curve" smooth="yes"/>
      <point x="534" y="329"/>
      <point x="563" y="297"/>
      <point x="585" y="258" type="curve"/>
      <point x="558" y="315" type="line"/>
      <point x="558" y="0" type="line"/>
      <point x="690" y="0" type="line"/>
      <point x="690" y="512" type="line"/>
      <point x="786" y="512" type="line"/>
    </contour>
  </outline>
</glyph>
<glyph name="shabeng" format="2">
  <advance width="714"/>
  <unicode hex="09B6"/>
  <outline>
    <contour>
      <point x="724" y="622" type="line"/>
      <point x="627" y="622" type="line"/>
      <point x="604" y="688" type="line"/>
      <point x="496" y="688" type="line"/>
      <point x="496" y="604" type="line" smooth="yes"/>
      <point x="496" y="580"/>
      <point x="497" y="555"/>
      <point x="500" y="530" type="curve"/>
      <point x="496" y="507" type="line"/>
      <point x="496" y="0" type="line"/>
      <point x="628" y="0" type="line"/>
      <point x="628" y="512" type="line"/>
      <point x="724" y="512" type="line"/>
    </contour>
    <contour>
      <point x="346" y="629" type="curve" smooth="yes"/>
      <point x="271" y="629"/>
      <point x="205" y="575"/>
      <point x="205" y="458" type="curve" smooth="yes"/>
      <point x="205" y="351"/>
      <point x="257" y="272"/>
      <point x="401" y="264" type="curve"/>
      <point x="415" y="384" type="line"/>
      <point x="336" y="387"/>
      <point x="297" y="409"/>
      <point x="297" y="456" type="curve" smooth="yes"/>
      <point x="297" y="499"/>
      <point x="328" y="519"/>
      <point x="366" y="519" type="curve" smooth="yes"/>
      <point x="432" y="519"/>
      <point x="483" y="457"/>
      <point x="526" y="371" type="curve"/>
      <point x="526" y="505" type="line"/>
      <point x="485" y="581"/>
      <point x="431" y="629"/>
    </contour>
    <contour>
      <point x="82" y="629" type="curve" smooth="yes"/>
      <point x="52" y="629"/>
      <point x="23" y="626"/>
      <point x="-12" y="620" type="curve"/>
      <point x="0" y="509" type="line"/>
      <point x="28" y="517"/>
      <point x="49" y="519"/>
      <point x="77" y="519" type="curve" smooth="yes"/>
      <point x="126" y="519"/>
      <point x="159" y="498"/>
      <point x="159" y="455" type="curve" smooth="yes"/>
      <point x="159" y="417"/>
      <point x="133" y="388"/>
      <point x="42" y="383" type="curve"/>
      <point x="55" y="264" type="line"/>
      <point x="199" y="264"/>
      <point x="253" y="353"/>
      <point x="253" y="444" type="curve" smooth="yes"/>
      <point x="253" y="575"/>
      <point x="174" y="629"/>
    </contour>
  </outline>
</glyph>
<glyph name="ssabeng" format="2">
  <advance width="672"/>
  <unicode hex="09B7"/>
  <outline>
    <contour>
      <point x="682" y="622" type="line"/>
      <point x="-10" y="622" type="line"/>
      <point x="-10" y="512" type="line"/>
      <point x="454" y="512" type="line"/>
      <point x="454" y="454" type="line" smooth="yes"/>
      <point x="454" y="420"/>
      <point x="455" y="384"/>
      <point x="458" y="358" type="curve"/>
      <point x="454" y="309" type="line"/>
      <point x="454" y="203" type="line" smooth="yes"/>
      <point x="454" y="178"/>
      <point x="454" y="156"/>
      <point x="456" y="134" type="curve"/>
      <point x="377" y="203"/>
      <point x="267" y="245"/>
      <point x="188" y="256" type="curve"/>
      <point x="239" y="285"/>
      <point x="301" y="313"/>
      <point x="355" y="337" type="curve"/>
      <point x="313" y="417" type="line"/>
      <point x="231" y="388" type="line"/>
      <point x="165" y="360"/>
      <point x="86" y="318"/>
      <point x="31" y="285" type="curve"/>
      <point x="78" y="172" type="line"/>
      <point x="247" y="149"/>
      <point x="365" y="98"/>
      <point x="454" y="0" type="curve"/>
      <point x="586" y="0" type="line"/>
      <point x="586" y="512" type="line"/>
      <point x="682" y="512" type="line"/>
    </contour>
    <contour>
      <point x="60" y="539" type="line"/>
      <point x="23" y="456" type="line"/>
      <point x="159" y="428"/>
      <point x="382" y="332"/>
      <point x="479" y="227" type="curve"/>
      <point x="518" y="323" type="line"/>
      <point x="430" y="410"/>
      <point x="285" y="485"/>
      <point x="174" y="519" type="curve"/>
    </contour>
  </outline>
</glyph>
<glyph name="sabeng" format="2">
  <advance width="708"/>
  <unicode hex="09B8"/>
  <outline>
    <contour>
      <point x="718" y="622" type="line"/>
      <point x="-10" y="622" type="line"/>
      <point x="-10" y="512" type="line"/>
      <point x="490" y="512" type="line"/>
      <point x="490" y="461" type="line" smooth="yes"/>
      <point x="490" y="434"/>
      <point x="492" y="406"/>
      <point x="494" y="381" type="curve"/>
      <point x="510" y="385" type="line"/>
      <point x="474" y="419"/>
      <point x="449" y="436"/>
      <point x="413" y="436" type="curve" smooth="yes"/>
      <point x="366" y="436"/>
      <point x="339" y="412"/>
      <point x="303" y="346" type="curve"/>
      <point x="278" y="320" type="line"/>
      <point x="229" y="227"/>
      <point x="212" y="219"/>
      <point x="187" y="219" type="curve" smooth="yes"/>
      <point x="162" y="219"/>
      <point x="146" y="235"/>
      <point x="120" y="278" type="curve"/>
      <point x="28" y="221" type="line"/>
      <point x="81" y="127"/>
      <point x="134" y="103"/>
      <point x="194" y="103" type="curve" smooth="yes"/>
      <point x="263" y="103"/>
      <point x="303" y="137"/>
      <point x="360" y="226" type="curve" smooth="yes"/>
      <point x="413" y="311"/>
      <point x="422" y="325"/>
      <point x="447" y="325" type="curve" smooth="yes"/>
      <point x="467" y="325"/>
      <point x="488" y="306"/>
      <point x="515" y="273" type="curve"/>
      <point x="490" y="316" type="line"/>
      <point x="490" y="0" type="line"/>
      <point x="622" y="0" type="line"/>
      <point x="622" y="512" type="line"/>
      <point x="718" y="512" type="line"/>
    </contour>
    <contour>
      <point x="242" y="246" type="curve"/>
      <point x="322" y="336" type="line"/>
      <point x="311" y="461"/>
      <point x="284" y="502"/>
      <point x="133" y="529" type="curve"/>
      <point x="62" y="565" type="line"/>
      <point x="25" y="450" type="line"/>
      <point x="106" y="440"/>
      <point x="158" y="429"/>
      <point x="190" y="401" type="curve"/>
      <point x="221" y="374"/>
      <point x="230" y="329"/>
    </contour>
  </outline>
</glyph>
<glyph name="habeng" format="2">
  <advance width="573"/>
  <unicode hex="09B9"/>
  <outline>
    <contour>
      <point x="263" y="485" type="curve" smooth="yes"/>
      <point x="139" y="485"/>
      <point x="63" y="436"/>
      <point x="63" y="364" type="curve" smooth="yes"/>
      <point x="63" y="341"/>
      <point x="69" y="313"/>
      <point x="77" y="293" type="curve"/>
      <point x="201" y="311" type="line"/>
      <point x="198" y="317"/>
      <point x="195" y="328"/>
      <point x="195" y="335" type="curve" smooth="yes"/>
      <point x="195" y="365"/>
      <point x="215" y="381"/>
      <point x="274" y="381" type="curve" smooth="yes"/>
      <point x="340" y="381"/>
      <point x="379" y="349"/>
      <point x="379" y="301" type="curve" smooth="yes"/>
      <point x="379" y="241"/>
      <point x="331" y="202"/>
      <point x="204" y="202" type="curve" smooth="yes"/>
      <point x="159" y="202"/>
      <point x="114" y="209"/>
      <point x="68" y="221" type="curve"/>
      <point x="46" y="116" type="line"/>
      <point x="235" y="86"/>
      <point x="388" y="21"/>
      <point x="514" y="-70" type="curve"/>
      <point x="584" y="23" type="line"/>
      <point x="490" y="89"/>
      <point x="391" y="133"/>
      <point x="292" y="159" type="curve"/>
      <point x="315" y="118" type="line"/>
      <point x="440" y="138"/>
      <point x="512" y="193"/>
      <point x="512" y="302" type="curve" smooth="yes"/>
      <point x="512" y="390"/>
      <point x="447" y="485"/>
    </contour>
    <contour>
      <point x="145" y="428" type="curve"/>
      <point x="275" y="431" type="line"/>
      <point x="269" y="488"/>
      <point x="240" y="522"/>
      <point x="165" y="553" type="curve"/>
      <point x="119" y="564" type="line"/>
      <point x="43" y="520" type="line"/>
      <point x="106" y="505"/>
      <point x="138" y="472"/>
    </contour>
    <contour>
      <point x="583" y="622" type="line"/>
      <point x="-10" y="622" type="line"/>
      <point x="-10" y="512" type="line"/>
      <point x="583" y="512" type="line"/>
    </contour>
  </outline>
</glyph>
<glyph name="nuktabeng" format="2">
  <unicode hex="09BC"/>
  <outline>
    <contour>
      <point x="-255" y="-206" type="curve" smooth="yes"/>
      <point x="-213" y="-206"/>
      <point x="-182" y="-174"/>
      <point x="-182" y="-131" type="curve" smooth="yes"/>
      <point x="-182" y="-88"/>
      <point x="-213" y="-56"/>
      <point x="-255" y="-56" type="curve" smooth="yes"/>
      <point x="-297" y="-56"/>
      <point x="-328" y="-88"/>
      <point x="-328" y="-131" type="curve" smooth="yes"/>
      <point x="-328" y="-174"/>
      <point x="-297" y="-206"/>
    </contour>
  </outline>
</glyph>
<glyph name="avagrahabeng" format="2">
  <advance width="573"/>
  <unicode hex="09BD"/>
  <outline>
    <contour>
      <point x="263" y="485" type="curve" smooth="yes"/>
      <point x="139" y="485"/>
      <point x="63" y="436"/>
      <point x="63" y="364" type="curve" smooth="yes"/>
      <point x="63" y="341"/>
      <point x="69" y="313"/>
      <point x="77" y="293" type="curve"/>
      <point x="201" y="311" type="line"/>
      <point x="198" y="317"/>
      <point x="195" y="328"/>
      <point x="195" y="335" type="curve" smooth="yes"/>
      <point x="195" y="365"/>
      <point x="215" y="381"/>
      <point x="274" y="381" type="curve" smooth="yes"/>
      <point x="340" y="381"/>
      <point x="379" y="349"/>
      <point x="379" y="301" type="curve" smooth="yes"/>
      <point x="379" y="241"/>
      <point x="331" y="202"/>
      <point x="204" y="202" type="curve" smooth="yes"/>
      <point x="159" y="202"/>
      <point x="114" y="209"/>
      <point x="68" y="221" type="curve"/>
      <point x="46" y="116" type="line"/>
      <point x="235" y="86"/>
      <point x="388" y="21"/>
      <point x="514" y="-70" type="curve"/>
      <point x="584" y="23" type="line"/>
      <point x="490" y="89"/>
      <point x="391" y="133"/>
      <point x="292" y="159" type="curve"/>
      <point x="315" y="118" type="line"/>
      <point x="440" y="138"/>
      <point x="512" y="193"/>
      <point x="512" y="302" type="curve" smooth="yes"/>
      <point x="512" y="390"/>
      <point x="447" y="485"/>
    </contour>
    <contour>
      <point x="322" y="622" type="line"/>
      <point x="-10" y="622" type="line"/>
      <point x="-10" y="512" type="line"/>
      <point x="192" y="512" type="line"/>
      <point x="192" y="461" type="line"/>
      <point x="322" y="456" type="line"/>
    </contour>
  </outline>
</glyph>
<glyph name="aavowelsignbeng" format="2">
  <advance width="304"/>
  <unicode hex="09BE"/>
  <outline>
    <contour>
      <point x="314" y="622" type="line"/>
      <point x="217" y="622" type="line"/>
      <point x="194" y="688" type="line"/>
      <point x="86" y="688" type="line"/>
      <point x="86" y="613" type="line" smooth="yes"/>
      <point x="86" y="596"/>
      <point x="88" y="566"/>
      <point x="90" y="559" type="curve"/>
      <point x="67" y="611"/>
      <point x="41" y="622"/>
      <point x="10" y="622" type="curve" smooth="yes"/>
      <point x="-10" y="622" type="line"/>
      <point x="-10" y="512" type="line"/>
      <point x="-5" y="512" type="line" smooth="yes"/>
      <point x="42" y="512"/>
      <point x="70" y="485"/>
      <point x="86" y="444" type="curve"/>
      <point x="86" y="0" type="line"/>
      <point x="218" y="0" type="line"/>
      <point x="218" y="512" type="line"/>
      <point x="314" y="512" type="line"/>
    </contour>
  </outline>
</glyph>
<glyph name="ivowelsignbeng" format="2">
  <advance width="304"/>
  <unicode hex="09BF"/>
  <outline>
    <contour>
      <point x="314" y="622" type="line"/>
      <point x="213" y="622" type="line"/>
      <point x="196" y="641"/>
      <point x="179" y="667"/>
      <point x="167" y="688" type="curve"/>
      <point x="205" y="745"/>
      <point x="260" y="807"/>
      <point x="354" y="807" type="curve" smooth="yes"/>
      <point x="457" y="807"/>
      <point x="533" y="764"/>
      <point x="695" y="660" type="curve"/>
      <point x="763" y="749" type="line"/>
      <point x="558" y="878"/>
      <point x="468" y="917"/>
      <point x="340" y="917" type="curve" smooth="yes"/>
      <point x="210" y="917"/>
      <point x="120" y="866"/>
      <point x="20" y="705" type="curve"/>
      <point x="39" y="680"/>
      <point x="65" y="646"/>
      <point x="87" y="622" type="curve"/>
      <point x="-10" y="622" type="line"/>
      <point x="-10" y="512" type="line"/>
      <point x="86" y="512" type="line"/>
      <point x="86" y="0" type="line"/>
      <point x="218" y="0" type="line"/>
      <point x="218" y="512" type="line"/>
      <point x="314" y="512" type="line"/>
    </contour>
  </outline>
</glyph>
<glyph name="iivowelsignbeng" format="2">
  <advance width="304"/>
  <unicode hex="09C0"/>
  <outline>
    <contour>
      <point x="314" y="512" type="line"/>
      <point x="314" y="622" type="line"/>
      <point x="220" y="622" type="line"/>
      <point x="198" y="825"/>
      <point x="30" y="917"/>
      <point x="-260" y="917" type="curve" smooth="yes"/>
      <point x="-456" y="917"/>
      <point x="-550" y="861"/>
      <point x="-550" y="778" type="curve" smooth="yes"/>
      <point x="-550" y="746"/>
      <point x="-539" y="716"/>
      <point x="-505" y="697" type="curve" smooth="yes"/>
      <point x="-477" y="681"/>
      <point x="-436" y="672"/>
      <point x="-356" y="672" type="curve" smooth="yes"/>
      <point x="-283" y="672" type="line" smooth="yes"/>
      <point x="-259" y="672"/>
      <point x="-246" y="669"/>
      <point x="-234" y="662" type="curve" smooth="yes"/>
      <point x="-221" y="654"/>
      <point x="-214" y="637"/>
      <point x="-214" y="615" type="curve"/>
      <point x="-88" y="615" type="line"/>
      <point x="-88" y="668"/>
      <point x="-100" y="701"/>
      <point x="-126" y="725" type="curve" smooth="yes"/>
      <point x="-156" y="751"/>
      <point x="-198" y="763"/>
      <point x="-275" y="763" type="curve" smooth="yes"/>
      <point x="-376" y="763" type="line" smooth="yes"/>
      <point x="-416" y="763"/>
      <point x="-427" y="767"/>
      <point x="-427" y="780" type="curve" smooth="yes"/>
      <point x="-427" y="802"/>
      <point x="-379" y="817"/>
      <point x="-280" y="817" type="curve" smooth="yes"/>
      <point x="-65" y="817"/>
      <point x="60" y="761"/>
      <point x="86" y="622" type="curve"/>
      <point x="-10" y="622" type="line"/>
      <point x="-10" y="512" type="line"/>
      <point x="86" y="512" type="line"/>
      <point x="86" y="0" type="line"/>
      <point x="218" y="0" type="line"/>
      <point x="218" y="512" type="line"/>
    </contour>
  </outline>
</glyph>
<glyph name="uvowelsignbeng" format="2">
  <unicode hex="09C1"/>
  <outline>
    <contour>
      <point x="-306" y="-266" type="curve" smooth="yes"/>
      <point x="-113" y="-266"/>
      <point x="-86" y="-119"/>
      <point x="-86" y="-33" type="curve" smooth="yes"/>
      <point x="-86" y="16" type="line"/>
      <point x="-218" y="16" type="line"/>
      <point x="-218" y="-60" type="line" smooth="yes"/>
      <point x="-218" y="-108"/>
      <point x="-229" y="-180"/>
      <point x="-296" y="-180" type="curve" smooth="yes"/>
      <point x="-324" y="-180"/>
      <point x="-341" y="-170"/>
      <point x="-341" y="-146" type="curve" smooth="yes"/>
      <point x="-341" y="-125"/>
      <point x="-324" y="-110"/>
      <point x="-283" y="-110" type="curve" smooth="yes"/>
      <point x="-197" y="-110"/>
      <point x="-96" y="-165"/>
      <point x="20" y="-271" type="curve"/>
      <point x="91" y="-188" type="line"/>
      <point x="-54" y="-77"/>
      <point x="-157" y="-21"/>
      <point x="-301" y="-21" type="curve" smooth="yes"/>
      <point x="-406" y="-21"/>
      <point x="-463" y="-69"/>
      <point x="-463" y="-142" type="curve" smooth="yes"/>
      <point x="-463" y="-232"/>
      <point x="-375" y="-266"/>
    </contour>
  </outline>
</glyph>
<glyph name="uuvowelsignbeng" format="2">
  <unicode hex="09C2"/>
  <outline>
    <contour>
      <point x="-194" y="-261" type="curve" smooth="yes"/>
      <point x="-109" y="-261"/>
      <point x="-62" y="-237"/>
      <point x="-16" y="-199" type="curve"/>
      <point x="17" y="-215"/>
      <point x="56" y="-239"/>
      <point x="106" y="-271" type="curve"/>
      <point x="163" y="-180" type="line"/>
      <point x="96" y="-143"/>
      <point x="33" y="-111"/>
      <point x="-35" y="-88" type="curve"/>
      <point x="-71" y="-130"/>
      <point x="-116" y="-169"/>
      <point x="-177" y="-169" type="curve" smooth="yes"/>
      <point x="-203" y="-169"/>
      <point x="-224" y="-159"/>
      <point x="-224" y="-137" type="curve" smooth="yes"/>
      <point x="-224" y="-115"/>
      <point x="-205" y="-107"/>
      <point x="-172" y="-107" type="curve" smooth="yes"/>
      <point x="-160" y="-107"/>
      <point x="-144" y="-108"/>
      <point x="-136" y="-109" type="curve"/>
      <point x="-86" y="-43" type="line"/>
      <point x="-86" y="18" type="line"/>
      <point x="-218" y="18" type="line"/>
      <point x="-218" y="-23" type="line"/>
      <point x="-289" y="-27"/>
      <point x="-347" y="-68"/>
      <point x="-347" y="-135" type="curve" smooth="yes"/>
      <point x="-347" y="-225"/>
      <point x="-276" y="-261"/>
    </contour>
  </outline>
</glyph>
<glyph name="rvocalicvowelsignbeng" format="2">
  <unicode hex="09C3"/>
  <outline>
    <contour>
      <point x="-373" y="-68" type="curve"/>
      <point x="-328" y="-172" type="line"/>
      <point x="-218" y="-187"/>
      <point x="-114" y="-211"/>
      <point x="-12" y="-271" type="curve"/>
      <point x="44" y="-187" type="line"/>
      <point x="-30" y="-140"/>
      <point x="-144" y="-95"/>
      <point x="-258" y="-91" type="curve"/>
      <point x="-262" y="-119" type="line"/>
      <point x="-215" y="-95"/>
      <point x="-124" y="-63"/>
      <point x="-66" y="-45" type="curve"/>
      <point x="-104" y="47" type="line"/>
      <point x="-190" y="16"/>
      <point x="-295" y="-30"/>
    </contour>
  </outline>
</glyph>
<glyph name="rrvocalicvowelsignbeng" format="2">
  <unicode hex="09C4"/>
  <outline>
    <contour>
      <point x="-373" y="-68" type="curve"/>
      <point x="-329" y="-170" type="line"/>
      <point x="-274" y="-174"/>
      <point x="-219" y="-183"/>
      <point x="-164" y="-199" type="curve"/>
      <point x="-111" y="-213"/>
      <point x="-56" y="-233"/>
      <point x="-3" y="-261" type="curve"/>
      <point x="47" y="-178" type="line"/>
      <point x="-34" y="-133"/>
      <point x="-144" y="-97"/>
      <point x="-258" y="-91" type="curve"/>
      <point x="-262" y="-119" type="line"/>
      <point x="-215" y="-95"/>
      <point x="-124" y="-63"/>
      <point x="-66" y="-45" type="curve"/>
      <point x="-104" y="47" type="line"/>
      <point x="-190" y="16"/>
      <point x="-295" y="-30"/>
    </contour>
    <contour>
      <point x="-371" y="-229" type="curve"/>
      <point x="-327" y="-331" type="line"/>
      <point x="-238" y="-342"/>
      <point x="-151" y="-358"/>
      <point x="-64" y="-394" type="curve"/>
      <point x="-18" y="-310" type="line"/>
      <point x="-90" y="-279"/>
      <point x="-171" y="-257"/>
      <point x="-257" y="-252" type="curve"/>
      <point x="-261" y="-276" type="line"/>
      <point x="-214" y="-252"/>
      <point x="-123" y="-220"/>
      <point x="-65" y="-202" type="curve"/>
      <point x="-103" y="-124" type="line"/>
      <point x="-188" y="-155"/>
      <point x="-295" y="-192"/>
    </contour>
  </outline>
</glyph>
<glyph name="evowelsignbeng" format="2">
  <advance width="399"/>
  <unicode hex="09C7"/>
  <outline>
    <contour>
      <point x="409" y="622" type="line"/>
      <point x="-10" y="622" type="line"/>
      <point x="-10" y="512" type="line"/>
      <point x="93" y="512" type="line" smooth="yes"/>
      <point x="135" y="512"/>
      <point x="160" y="513"/>
      <point x="182" y="516" type="curve"/>
      <point x="246" y="559" type="line"/>
      <point x="122" y="512"/>
      <point x="43" y="398"/>
      <point x="43" y="260" type="curve" smooth="yes"/>
      <point x="43" y="89"/>
      <point x="137" y="-5"/>
      <point x="286" y="-5" type="curve" smooth="yes"/>
      <point x="333" y="-5"/>
      <point x="374" y="2"/>
      <point x="418" y="27" type="curve"/>
      <point x="368" y="126" type="line"/>
      <point x="338" y="111"/>
      <point x="318" y="108"/>
      <point x="294" y="108" type="curve" smooth="yes"/>
      <point x="240" y="108"/>
      <point x="177" y="143"/>
      <point x="177" y="263" type="curve" smooth="yes"/>
      <point x="177" y="381"/>
      <point x="261" y="467"/>
      <point x="352" y="512" type="curve"/>
      <point x="409" y="512" type="line"/>
    </contour>
  </outline>
</glyph>
<glyph name="aivowelsignbeng" format="2">
  <advance width="399"/>
  <unicode hex="09C8"/>
  <outline>
    <contour>
      <point x="283" y="622" type="curve"/>
      <point x="408" y="622" type="line"/>
      <point x="406" y="684"/>
      <point x="392" y="724"/>
      <point x="367" y="749" type="curve" smooth="yes"/>
      <point x="335" y="780"/>
      <point x="294" y="790"/>
      <point x="215" y="790" type="curve" smooth="yes"/>
      <point x="202" y="790" type="line" smooth="yes"/>
      <point x="151" y="790"/>
      <point x="133" y="797"/>
      <point x="119" y="810" type="curve" smooth="yes"/>
      <point x="104" y="824"/>
      <point x="99" y="847"/>
      <point x="99" y="875" type="curve" smooth="yes"/>
      <point x="99" y="883"/>
      <point x="100" y="892"/>
      <point x="101" y="904" type="curve"/>
      <point x="-24" y="912" type="line"/>
      <point x="-28" y="888"/>
      <point x="-29" y="874"/>
      <point x="-29" y="854" type="curve" smooth="yes"/>
      <point x="-29" y="805"/>
      <point x="-18" y="767"/>
      <point x="7" y="739" type="curve" smooth="yes"/>
      <point x="43" y="699"/>
      <point x="104" y="680"/>
      <point x="205" y="680" type="curve" smooth="yes"/>
      <point x="213" y="680" type="line" smooth="yes"/>
      <point x="264" y="680"/>
      <point x="281" y="663"/>
    </contour>
    <component base="evowelsignbeng"/>
  </outline>
</glyph>
<glyph name="viramabeng" format="2">
  <unicode hex="09CD"/>
  <outline>
    <contour>
      <point x="-157" y="-12" type="line"/>
      <point x="-217" y="-107" type="line"/>
      <point x="71" y="-271" type="line"/>
      <point x="128" y="-181" type="line"/>
    </contour>
  </outline>
</glyph>
<glyph name="khandatabeng" format="2">
  <advance width="578"/>
  <unicode hex="09CE"/>
  <outline>
    <contour>
      <point x="295" y="629" type="curve" smooth="yes"/>
      <point x="137" y="629"/>
      <point x="37" y="539"/>
      <point x="37" y="419" type="curve" smooth="yes"/>
      <point x="37" y="304"/>
      <point x="100" y="231"/>
      <point x="293" y="149" type="curve" smooth="yes"/>
      <point x="417" y="96"/>
      <point x="462" y="66"/>
      <point x="479" y="-12" type="curve"/>
      <point x="608" y="13" type="line"/>
      <point x="599" y="129"/>
      <point x="532" y="188"/>
      <point x="367" y="253" type="curve" smooth="yes"/>
      <point x="215" y="313"/>
      <point x="167" y="342"/>
      <point x="167" y="417" type="curve" smooth="yes"/>
      <point x="167" y="473"/>
      <point x="209" y="523"/>
      <point x="298" y="523" type="curve" smooth="yes"/>
      <point x="349" y="523"/>
      <point x="377" y="505"/>
      <point x="377" y="477" type="curve" smooth="yes"/>
      <point x="377" y="451"/>
      <point x="363" y="435"/>
      <point x="310" y="435" type="curve" smooth="yes"/>
      <point x="282" y="435"/>
      <point x="256" y="441"/>
      <point x="230" y="450" type="curve"/>
      <point x="204" y="349" type="line"/>
      <point x="242" y="334"/>
      <point x="286" y="325"/>
      <point x="330" y="325" type="curve" smooth="yes"/>
      <point x="448" y="325"/>
      <point x="509" y="380"/>
      <point x="509" y="472" type="curve" smooth="yes"/>
      <point x="509" y="561"/>
      <point x="444" y="629"/>
    </contour>
  </outline>
</glyph>
<glyph name="aulengthmarkbeng" format="2">
  <advance width="304"/>
  <unicode hex="09D7"/>
  <outline>
    <contour>
      <point x="218" y="0" type="line"/>
      <point x="218" y="512" type="line"/>
      <point x="314" y="512" type="line"/>
      <point x="314" y="622" type="line"/>
      <point x="-10" y="622" type="line"/>
      <point x="-10" y="512" type="line"/>
      <point x="86" y="512" type="line"/>
      <point x="86" y="0" type="line"/>
    </contour>
    <contour>
      <point x="91" y="622" type="curve"/>
      <point x="216" y="622" type="line"/>
      <point x="214" y="684"/>
      <point x="200" y="724"/>
      <point x="175" y="749" type="curve" smooth="yes"/>
      <point x="143" y="780"/>
      <point x="102" y="790"/>
      <point x="23" y="790" type="curve" smooth="yes"/>
      <point x="-152" y="790" type="line" smooth="yes"/>
      <point x="-203" y="790"/>
      <point x="-221" y="797"/>
      <point x="-235" y="810" type="curve" smooth="yes"/>
      <point x="-250" y="824"/>
      <point x="-255" y="847"/>
      <point x="-255" y="875" type="curve" smooth="yes"/>
      <point x="-255" y="883"/>
      <point x="-254" y="892"/>
      <point x="-253" y="904" type="curve"/>
      <point x="-378" y="912" type="line"/>
      <point x="-382" y="888"/>
      <point x="-383" y="874"/>
      <point x="-383" y="854" type="curve" smooth="yes"/>
      <point x="-383" y="805"/>
      <point x="-372" y="767"/>
      <point x="-347" y="739" type="curve" smooth="yes"/>
      <point x="-311" y="699"/>
      <point x="-250" y="680"/>
      <point x="-149" y="680" type="curve" smooth="yes"/>
      <point x="21" y="680" type="line" smooth="yes"/>
      <point x="72" y="680"/>
      <point x="89" y="663"/>
    </contour>
  </outline>
</glyph>
<glyph name="lvocalicvowelsignbeng" format="2">
  <unicode hex="09E2"/>
  <outline>
    <contour>
      <point x="-301" y="-110" type="curve" smooth="yes"/>
      <point x="-384" y="-110"/>
      <point x="-426" y="-145"/>
      <point x="-426" y="-192" type="curve" smooth="yes"/>
      <point x="-426" y="-207"/>
      <point x="-422" y="-228"/>
      <point x="-416" y="-245" type="curve"/>
      <point x="-318" y="-225" type="line"/>
      <point x="-320" y="-221"/>
      <point x="-321" y="-215"/>
      <point x="-321" y="-210" type="curve" smooth="yes"/>
      <point x="-321" y="-198"/>
      <point x="-312" y="-190"/>
      <point x="-294" y="-190" type="curve" smooth="yes"/>
      <point x="-274" y="-190"/>
      <point x="-267" y="-200"/>
      <point x="-267" y="-214" type="curve" smooth="yes"/>
      <point x="-267" y="-227"/>
      <point x="-274" y="-244"/>
      <point x="-316" y="-247" type="curve"/>
      <point x="-302" y="-313" type="line"/>
      <point x="-277" y="-313" type="line" smooth="yes"/>
      <point x="-134" y="-313"/>
      <point x="0" y="-288"/>
      <point x="0" y="-183" type="curve" smooth="yes"/>
      <point x="0" y="-126"/>
      <point x="-28" y="-82"/>
      <point x="-148" y="-51" type="curve" smooth="yes"/>
      <point x="-204" y="-37"/>
      <point x="-216" y="-31"/>
      <point x="-216" y="-17" type="curve" smooth="yes"/>
      <point x="-216" y="-13"/>
      <point x="-215" y="-6"/>
      <point x="-212" y="0" type="curve"/>
      <point x="-325" y="16" type="line"/>
      <point x="-332" y="5"/>
      <point x="-336" y="-8"/>
      <point x="-336" y="-21" type="curve" smooth="yes"/>
      <point x="-336" y="-64"/>
      <point x="-307" y="-82"/>
      <point x="-225" y="-106" type="curve" smooth="yes"/>
      <point x="-139" y="-131"/>
      <point x="-119" y="-149"/>
      <point x="-119" y="-182" type="curve" smooth="yes"/>
      <point x="-119" y="-212"/>
      <point x="-143" y="-228"/>
      <point x="-190" y="-234" type="curve"/>
      <point x="-192" y="-245" type="line"/>
      <point x="-179" y="-227"/>
      <point x="-173" y="-212"/>
      <point x="-173" y="-191" type="curve" smooth="yes"/>
      <point x="-173" y="-142"/>
      <point x="-220" y="-110"/>
    </contour>
  </outline>
</glyph>
<glyph name="zerobeng" format="2">
  <advance width="621"/>
  <unicode hex="09E6"/>
  <outline>
    <contour>
      <point x="307" y="81" type="curve" smooth="yes"/>
      <point x="479" y="81"/>
      <point x="562" y="188"/>
      <point x="562" y="314" type="curve" smooth="yes"/>
      <point x="562" y="452"/>
      <point x="486" y="554"/>
      <point x="314" y="554" type="curve" smooth="yes"/>
      <point x="133" y="554"/>
      <point x="59" y="436"/>
      <point x="59" y="320" type="curve" smooth="yes"/>
      <point x="59" y="154"/>
      <point x="166" y="81"/>
    </contour>
    <contour>
      <point x="317" y="444" type="curve" smooth="yes"/>
      <point x="388" y="444"/>
      <point x="426" y="402"/>
      <point x="426" y="323" type="curve" smooth="yes"/>
      <point x="426" y="239"/>
      <point x="382" y="191"/>
      <point x="304" y="191" type="curve" smooth="yes"/>
      <point x="226" y="191"/>
      <point x="195" y="240"/>
      <point x="195" y="312" type="curve" smooth="yes"/>
      <point x="195" y="400"/>
      <point x="243" y="444"/>
    </contour>
  </outline>
</glyph>
<glyph name="onebeng" format="2">
  <advance width="621"/>
  <unicode hex="09E7"/>
  <outline>
    <contour>
      <point x="311" y="0" type="curve" smooth="yes"/>
      <point x="448" y="0"/>
      <point x="542" y="68"/>
      <point x="542" y="182" type="curve" smooth="yes"/>
      <point x="542" y="281"/>
      <point x="498" y="336"/>
      <point x="390" y="405" type="curve" smooth="yes"/>
      <point x="267" y="482"/>
      <point x="256" y="490"/>
      <point x="256" y="519" type="curve" smooth="yes"/>
      <point x="256" y="535"/>
      <point x="267" y="551"/>
      <point x="281" y="564" type="curve"/>
      <point x="165" y="631" type="line"/>
      <point x="132" y="596"/>
      <point x="112" y="553"/>
      <point x="112" y="516" type="curve" smooth="yes"/>
      <point x="112" y="443"/>
      <point x="144" y="403"/>
      <point x="271" y="327" type="curve" smooth="yes"/>
      <point x="367" y="270"/>
      <point x="406" y="242"/>
      <point x="406" y="186" type="curve" smooth="yes"/>
      <point x="406" y="146"/>
      <point x="374" y="114"/>
      <point x="311" y="114" type="curve" smooth="yes"/>
      <point x="271" y="114"/>
      <point x="251" y="130"/>
      <point x="251" y="152" type="curve" smooth="yes"/>
      <point x="251" y="168"/>
      <point x="264" y="180"/>
      <point x="293" y="187" type="curve"/>
      <point x="244" y="298" type="line"/>
      <point x="158" y="264"/>
      <point x="114" y="220"/>
      <point x="114" y="144" type="curve" smooth="yes"/>
      <point x="114" y="64"/>
      <point x="176" y="0"/>
    </contour>
  </outline>
</glyph>
<glyph name="twobeng" format="2">
  <advance width="621"/>
  <unicode hex="09E8"/>
  <outline>
    <contour>
      <point x="116" y="531" type="curve" smooth="yes"/>
      <point x="116" y="471"/>
      <point x="141" y="424"/>
      <point x="286" y="395" type="curve" smooth="yes"/>
      <point x="359" y="380"/>
      <point x="388" y="364"/>
      <point x="388" y="320" type="curve" smooth="yes"/>
      <point x="388" y="274"/>
      <point x="346" y="243"/>
      <point x="228" y="243" type="curve" smooth="yes"/>
      <point x="169" y="243"/>
      <point x="116" y="250"/>
      <point x="72" y="262" type="curve"/>
      <point x="52" y="157" type="line"/>
      <point x="237" y="125"/>
      <point x="368" y="73"/>
      <point x="495" y="-27" type="curve"/>
      <point x="567" y="63" type="line"/>
      <point x="469" y="135"/>
      <point x="411" y="163"/>
      <point x="291" y="198" type="curve"/>
      <point x="287" y="161" type="line"/>
      <point x="297" y="159"/>
      <point x="308" y="158"/>
      <point x="318" y="156" type="curve"/>
      <point x="446" y="167"/>
      <point x="522" y="223"/>
      <point x="522" y="333" type="curve" smooth="yes"/>
      <point x="522" y="417"/>
      <point x="478" y="475"/>
      <point x="352" y="500" type="curve" smooth="yes"/>
      <point x="257" y="519"/>
      <point x="255" y="529"/>
      <point x="255" y="549" type="curve" smooth="yes"/>
      <point x="255" y="560"/>
      <point x="260" y="571"/>
      <point x="269" y="583" type="curve"/>
      <point x="159" y="631" type="line"/>
      <point x="132" y="597"/>
      <point x="116" y="565"/>
    </contour>
  </outline>
</glyph>
<glyph name="threebeng" format="2">
  <advance width="621"/>
  <unicode hex="09E9"/>
  <outline>
    <contour>
      <point x="581" y="293" type="curve" smooth="yes"/>
      <point x="581" y="451"/>
      <point x="511" y="589"/>
      <point x="349" y="589" type="curve" smooth="yes"/>
      <point x="284" y="589"/>
      <point x="203" y="558"/>
      <point x="203" y="467" type="curve" smooth="yes"/>
      <point x="203" y="427"/>
      <point x="211" y="396"/>
      <point x="224" y="360" type="curve"/>
      <point x="348" y="393" type="line"/>
      <point x="341" y="408"/>
      <point x="336" y="427"/>
      <point x="336" y="441" type="curve" smooth="yes"/>
      <point x="336" y="464"/>
      <point x="350" y="479"/>
      <point x="369" y="479" type="curve" smooth="yes"/>
      <point x="415" y="479"/>
      <point x="449" y="384"/>
      <point x="449" y="295" type="curve" smooth="yes"/>
      <point x="449" y="203"/>
      <point x="425" y="144"/>
      <point x="356" y="144" type="curve" smooth="yes"/>
      <point x="265" y="144"/>
      <point x="206" y="224"/>
      <point x="155" y="500" type="curve"/>
      <point x="31" y="470" type="line"/>
      <point x="97" y="108"/>
      <point x="214" y="29"/>
      <point x="365" y="29" type="curve" smooth="yes"/>
      <point x="526" y="29"/>
      <point x="581" y="136"/>
    </contour>
  </outline>
</glyph>
<glyph name="fourbeng" format="2">
  <advance width="621"/>
  <unicode hex="09EA"/>
  <outline>
    <contour>
      <point x="311" y="0" type="curve" smooth="yes"/>
      <point x="479" y="0"/>
      <point x="567" y="57"/>
      <point x="567" y="174" type="curve" smooth="yes"/>
      <point x="567" y="269"/>
      <point x="504" y="312"/>
      <point x="398" y="349" type="curve"/>
      <point x="404" y="313" type="line"/>
      <point x="488" y="347"/>
      <point x="556" y="385"/>
      <point x="556" y="476" type="curve" smooth="yes"/>
      <point x="556" y="547"/>
      <point x="492" y="622"/>
      <point x="304" y="622" type="curve" smooth="yes"/>
      <point x="150" y="622"/>
      <point x="65" y="552"/>
      <point x="65" y="467" type="curve" smooth="yes"/>
      <point x="65" y="390"/>
      <point x="112" y="351"/>
      <point x="226" y="299" type="curve"/>
      <point x="229" y="347" type="line"/>
      <point x="106" y="305"/>
      <point x="54" y="250"/>
      <point x="54" y="174" type="curve" smooth="yes"/>
      <point x="54" y="68"/>
      <point x="147" y="0"/>
    </contour>
    <contour>
      <point x="311" y="110" type="curve" smooth="yes"/>
      <point x="226" y="110"/>
      <point x="190" y="143"/>
      <point x="190" y="183" type="curve" smooth="yes"/>
      <point x="190" y="227"/>
      <point x="231" y="255"/>
      <point x="311" y="275" type="curve" smooth="yes"/>
      <point x="371" y="263"/>
      <point x="432" y="232"/>
      <point x="432" y="186" type="curve" smooth="yes"/>
      <point x="432" y="139"/>
      <point x="399" y="110"/>
    </contour>
    <contour>
      <point x="311" y="380" type="curve"/>
      <point x="233" y="398"/>
      <point x="200" y="421"/>
      <point x="200" y="456" type="curve" smooth="yes"/>
      <point x="200" y="493"/>
      <point x="248" y="512"/>
      <point x="307" y="512" type="curve" smooth="yes"/>
      <point x="384" y="512"/>
      <point x="420" y="489"/>
      <point x="420" y="456" type="curve" smooth="yes"/>
      <point x="420" y="419"/>
      <point x="364" y="393"/>
    </contour>
  </outline>
</glyph>
<glyph name="fivebeng" format="2">
  <advance width="621"/>
  <unicode hex="09EB"/>
  <outline>
    <contour>
      <point x="331" y="0" type="curve" smooth="yes"/>
      <point x="435" y="0"/>
      <point x="528" y="23"/>
      <point x="600" y="62" type="curve"/>
      <point x="554" y="180" type="line"/>
      <point x="545" y="179"/>
      <point x="531" y="178"/>
      <point x="523" y="178" type="curve" smooth="yes"/>
      <point x="474" y="178"/>
      <point x="450" y="202"/>
      <point x="450" y="234" type="curve" smooth="yes"/>
      <point x="450" y="276"/>
      <point x="472" y="306"/>
      <point x="598" y="378" type="curve"/>
      <point x="548" y="460" type="line"/>
      <point x="543" y="459"/>
      <point x="535" y="459"/>
      <point x="529" y="459" type="curve" smooth="yes"/>
      <point x="491" y="459"/>
      <point x="462" y="478"/>
      <point x="462" y="508" type="curve" smooth="yes"/>
      <point x="462" y="523"/>
      <point x="466" y="536"/>
      <point x="475" y="548" type="curve"/>
      <point x="416" y="629" type="line"/>
      <point x="185" y="521"/>
      <point x="42" y="408"/>
      <point x="42" y="248" type="curve" smooth="yes"/>
      <point x="42" y="89"/>
      <point x="165" y="0"/>
    </contour>
    <contour>
      <point x="338" y="110" type="curve" smooth="yes"/>
      <point x="255" y="110"/>
      <point x="178" y="146"/>
      <point x="178" y="240" type="curve" smooth="yes"/>
      <point x="178" y="349"/>
      <point x="275" y="430"/>
      <point x="433" y="508" type="curve"/>
      <point x="370" y="517" type="line"/>
      <point x="358" y="498"/>
      <point x="356" y="485"/>
      <point x="356" y="463" type="curve" smooth="yes"/>
      <point x="356" y="427"/>
      <point x="400" y="367"/>
      <point x="495" y="364" type="curve"/>
      <point x="465" y="433" type="line"/>
      <point x="358" y="355"/>
      <point x="319" y="305"/>
      <point x="319" y="234" type="curve" smooth="yes"/>
      <point x="319" y="166"/>
      <point x="367" y="113"/>
      <point x="471" y="99" type="curve"/>
      <point x="454" y="130" type="line"/>
      <point x="413" y="117"/>
      <point x="389" y="110"/>
    </contour>
  </outline>
</glyph>
<glyph name="sixbeng" format="2">
  <advance width="621"/>
  <unicode hex="09EC"/>
  <outline>
    <contour>
      <point x="371" y="29" type="curve" smooth="yes"/>
      <point x="531" y="29"/>
      <point x="591" y="132"/>
      <point x="591" y="263" type="curve" smooth="yes"/>
      <point x="591" y="326"/>
      <point x="571" y="399"/>
      <point x="537" y="448" type="curve"/>
      <point x="438" y="425" type="line"/>
      <point x="417" y="360"/>
      <point x="397" y="357"/>
      <point x="380" y="357" type="curve" smooth="yes"/>
      <point x="358" y="357"/>
      <point x="355" y="376"/>
      <point x="355" y="406" type="curve" smooth="yes"/>
      <point x="355" y="459" type="line" smooth="yes"/>
      <point x="355" y="509"/>
      <point x="346" y="540"/>
      <point x="328" y="561" type="curve" smooth="yes"/>
      <point x="302" y="590"/>
      <point x="258" y="601"/>
      <point x="185" y="603" type="curve"/>
      <point x="170" y="482" type="line"/>
      <point x="221" y="480"/>
      <point x="230" y="467"/>
      <point x="230" y="421" type="curve" smooth="yes"/>
      <point x="230" y="389" type="line" smooth="yes"/>
      <point x="230" y="317"/>
      <point x="251" y="288"/>
      <point x="272" y="272" type="curve" smooth="yes"/>
      <point x="295" y="256"/>
      <point x="324" y="247"/>
      <point x="361" y="247" type="curve" smooth="yes"/>
      <point x="432" y="247"/>
      <point x="481" y="296"/>
      <point x="530" y="388" type="curve"/>
      <point x="431" y="391" type="line"/>
      <point x="443" y="373"/>
      <point x="466" y="335"/>
      <point x="466" y="283" type="curve" smooth="yes"/>
      <point x="466" y="190"/>
      <point x="428" y="144"/>
      <point x="356" y="144" type="curve" smooth="yes"/>
      <point x="253" y="144"/>
      <point x="188" y="229"/>
      <point x="143" y="455" type="curve"/>
      <point x="20" y="421" type="line"/>
      <point x="94" y="104"/>
      <point x="203" y="29"/>
    </contour>
  </outline>
</glyph>
<glyph name="sevenbeng" format="2">
  <advance width="621"/>
  <unicode hex="09ED"/>
  <outline>
    <contour>
      <point x="369" y="281" type="line"/>
      <point x="369" y="153" type="line" smooth="yes"/>
      <point x="369" y="33"/>
      <point x="412" y="4"/>
      <point x="547" y="0" type="curve"/>
      <point x="562" y="121" type="line"/>
      <point x="510" y="122"/>
      <point x="501" y="136"/>
      <point x="501" y="182" type="curve" smooth="yes"/>
      <point x="501" y="445" type="line" smooth="yes"/>
      <point x="501" y="525"/>
      <point x="482" y="557"/>
      <point x="450" y="583" type="curve" smooth="yes"/>
      <point x="417" y="610"/>
      <point x="370" y="622"/>
      <point x="315" y="622" type="curve" smooth="yes"/>
      <point x="175" y="622"/>
      <point x="57" y="528"/>
      <point x="57" y="399" type="curve" smooth="yes"/>
      <point x="57" y="293"/>
      <point x="123" y="228"/>
      <point x="270" y="228" type="curve" smooth="yes"/>
      <point x="328" y="228"/>
      <point x="380" y="238"/>
      <point x="436" y="266" type="curve"/>
    </contour>
    <contour>
      <point x="282" y="340" type="curve" smooth="yes"/>
      <point x="227" y="340"/>
      <point x="192" y="354"/>
      <point x="192" y="404" type="curve" smooth="yes"/>
      <point x="192" y="462"/>
      <point x="247" y="512"/>
      <point x="307" y="512" type="curve" smooth="yes"/>
      <point x="326" y="512"/>
      <point x="343" y="507"/>
      <point x="353" y="496" type="curve" smooth="yes"/>
      <point x="366" y="483"/>
      <point x="369" y="465"/>
      <point x="369" y="420" type="curve" smooth="yes"/>
      <point x="369" y="352" type="line"/>
      <point x="397" y="369" type="line"/>
      <point x="361" y="348"/>
      <point x="326" y="340"/>
    </contour>
  </outline>
</glyph>
<glyph name="eightbeng" format="2">
  <advance width="621"/>
  <unicode hex="09EE"/>
  <outline>
    <contour>
      <point x="265" y="0" type="curve" smooth="yes"/>
      <point x="392" y="0"/>
      <point x="499" y="83"/>
      <point x="499" y="220" type="curve" smooth="yes"/>
      <point x="499" y="251"/>
      <point x="491" y="283"/>
      <point x="474" y="309" type="curve"/>
      <point x="426" y="276" type="line"/>
      <point x="438" y="272"/>
      <point x="451" y="271"/>
      <point x="459" y="271" type="curve"/>
      <point x="516" y="271"/>
      <point x="578" y="286"/>
      <point x="615" y="377" type="curve"/>
      <point x="503" y="433" type="line"/>
      <point x="479" y="388"/>
      <point x="451" y="380"/>
      <point x="418" y="380" type="curve" smooth="yes"/>
      <point x="402" y="380"/>
      <point x="384" y="383"/>
      <point x="361" y="388" type="curve"/>
      <point x="341" y="393"/>
      <point x="320" y="395"/>
      <point x="296" y="395" type="curve" smooth="yes"/>
      <point x="277" y="395"/>
      <point x="252" y="392"/>
      <point x="223" y="384" type="curve"/>
      <point x="223" y="469" type="line" smooth="yes"/>
      <point x="223" y="540"/>
      <point x="212" y="564"/>
      <point x="189" y="585" type="curve" smooth="yes"/>
      <point x="162" y="610"/>
      <point x="117" y="620"/>
      <point x="45" y="622" type="curve"/>
      <point x="31" y="501" type="line"/>
      <point x="82" y="500"/>
      <point x="91" y="486"/>
      <point x="91" y="440" type="curve" smooth="yes"/>
      <point x="91" y="178" type="line" smooth="yes"/>
      <point x="91" y="100"/>
      <point x="109" y="62"/>
      <point x="141" y="35" type="curve" smooth="yes"/>
      <point x="170" y="11"/>
      <point x="211" y="0"/>
    </contour>
    <contour>
      <point x="273" y="110" type="curve" smooth="yes"/>
      <point x="259" y="110"/>
      <point x="246" y="114"/>
      <point x="238" y="122" type="curve" smooth="yes"/>
      <point x="227" y="133"/>
      <point x="223" y="148"/>
      <point x="223" y="185" type="curve" smooth="yes"/>
      <point x="223" y="274" type="line"/>
      <point x="241" y="280"/>
      <point x="260" y="285"/>
      <point x="284" y="285" type="curve" smooth="yes"/>
      <point x="323" y="285"/>
      <point x="364" y="271"/>
      <point x="364" y="215" type="curve" smooth="yes"/>
      <point x="364" y="161"/>
      <point x="333" y="110"/>
    </contour>
  </outline>
</glyph>
<glyph name="ninebeng" format="2">
  <advance width="621"/>
  <unicode hex="09EF"/>
  <outline>
    <contour>
      <point x="199" y="330" type="curve" smooth="yes"/>
      <point x="88" y="330"/>
      <point x="24" y="285"/>
      <point x="24" y="205" type="curve" smooth="yes"/>
      <point x="24" y="180"/>
      <point x="30" y="157"/>
      <point x="40" y="132" type="curve"/>
      <point x="161" y="158" type="line"/>
      <point x="157" y="167"/>
      <point x="155" y="175"/>
      <point x="155" y="186" type="curve" smooth="yes"/>
      <point x="155" y="207"/>
      <point x="168" y="223"/>
      <point x="200" y="223" type="curve" smooth="yes"/>
      <point x="235" y="223"/>
      <point x="254" y="203"/>
      <point x="254" y="173" type="curve" smooth="yes"/>
      <point x="254" y="141"/>
      <point x="227" y="118"/>
      <point x="158" y="107" type="curve"/>
      <point x="180" y="0" type="line"/>
      <point x="196" y="0" type="line" smooth="yes"/>
      <point x="410" y="0"/>
      <point x="596" y="53"/>
      <point x="596" y="231" type="curve" smooth="yes"/>
      <point x="596" y="329"/>
      <point x="563" y="414"/>
      <point x="337" y="477" type="curve" smooth="yes"/>
      <point x="200" y="515"/>
      <point x="179" y="521"/>
      <point x="179" y="549" type="curve" smooth="yes"/>
      <point x="179" y="563"/>
      <point x="186" y="575"/>
      <point x="195" y="587" type="curve"/>
      <point x="79" y="631" type="line"/>
      <point x="52" y="597"/>
      <point x="37" y="566"/>
      <point x="37" y="531" type="curve" smooth="yes"/>
      <point x="37" y="446"/>
      <point x="100" y="412"/>
      <point x="270" y="368" type="curve" smooth="yes"/>
      <point x="427" y="327"/>
      <point x="458" y="287"/>
      <point x="458" y="228" type="curve" smooth="yes"/>
      <point x="458" y="160"/>
      <point x="410" y="120"/>
      <point x="323" y="111" type="curve"/>
      <point x="321" y="62" type="line"/>
      <point x="357" y="93"/>
      <point x="380" y="136"/>
      <point x="380" y="192" type="curve" smooth="yes"/>
      <point x="380" y="271"/>
      <point x="308" y="330"/>
    </contour>
  </outline>
</glyph>
<glyph name="ra1beng" format="2">
  <advance width="636"/>
  <unicode hex="09F0"/>
  <outline>
    <contour>
      <point x="646" y="622" type="line"/>
      <point x="-10" y="622" type="line"/>
      <point x="-10" y="512" type="line"/>
      <point x="421" y="512" type="line"/>
      <point x="421" y="462" type="line"/>
      <point x="433" y="495" type="line"/>
      <point x="291" y="458"/>
      <point x="138" y="389"/>
      <point x="16" y="321" type="curve"/>
      <point x="66" y="203" type="line"/>
      <point x="215" y="178"/>
      <point x="343" y="108"/>
      <point x="418" y="0" type="curve"/>
      <point x="550" y="0" type="line"/>
      <point x="550" y="512" type="line"/>
      <point x="646" y="512" type="line"/>
    </contour>
    <contour>
      <point x="418" y="399" type="line"/>
      <point x="418" y="208" type="line"/>
      <point x="418" y="178"/>
      <point x="419" y="147"/>
      <point x="421" y="117" type="curve"/>
      <point x="439" y="125" type="line"/>
      <point x="370" y="208"/>
      <point x="260" y="261"/>
      <point x="178" y="277" type="curve"/>
      <point x="264" y="318"/>
      <point x="344" y="353"/>
      <point x="432" y="380" type="curve"/>
    </contour>
    <contour>
      <point x="505" y="103" type="curve"/>
      <point x="500" y="202" type="line"/>
      <point x="427" y="316"/>
      <point x="310" y="356"/>
      <point x="188" y="378" type="curve"/>
      <point x="132" y="336" type="line"/>
      <point x="291" y="313"/>
      <point x="442" y="227"/>
    </contour>
  </outline>
</glyph>
<glyph name="wabeng" format="2">
  <advance width="629"/>
  <unicode hex="09F1"/>
  <outline>
    <contour>
      <point x="639" y="622" type="line"/>
      <point x="-10" y="622" type="line"/>
      <point x="-10" y="512" type="line"/>
      <point x="415" y="512" type="line"/>
      <point x="415" y="462" type="line"/>
      <point x="433" y="495" type="line"/>
      <point x="291" y="458"/>
      <point x="138" y="389"/>
      <point x="16" y="321" type="curve"/>
      <point x="64" y="208" type="line"/>
      <point x="218" y="182"/>
      <point x="343" y="107"/>
      <point x="416" y="0" type="curve"/>
      <point x="543" y="0" type="line"/>
      <point x="543" y="512" type="line"/>
      <point x="639" y="512" type="line"/>
    </contour>
    <contour>
      <point x="411" y="399" type="line"/>
      <point x="411" y="208" type="line"/>
      <point x="411" y="178"/>
      <point x="412" y="147"/>
      <point x="414" y="117" type="curve"/>
      <point x="433" y="128" type="line"/>
      <point x="364" y="210"/>
      <point x="266" y="262"/>
      <point x="184" y="278" type="curve"/>
      <point x="270" y="319"/>
      <point x="344" y="351"/>
      <point x="432" y="377" type="curve"/>
    </contour>
    <contour>
      <point x="68" y="163" type="curve"/>
      <point x="49" y="70" type="line"/>
      <point x="135" y="50"/>
      <point x="200" y="29"/>
      <point x="277" y="-31" type="curve"/>
      <point x="338" y="26" type="line"/>
      <point x="270" y="95"/>
      <point x="204" y="137"/>
    </contour>
  </outline>
</glyph>
<glyph name="rupeemarkbeng" format="2">
  <advance width="609"/>
  <unicode hex="09F2"/>
  <outline>
    <contour>
      <point x="425" y="86" type="curve"/>
      <point x="555" y="134" type="line"/>
      <point x="464" y="333"/>
      <point x="342" y="468"/>
      <point x="116" y="534" type="curve"/>
      <point x="69" y="411" type="line"/>
      <point x="254" y="353"/>
      <point x="345" y="241"/>
    </contour>
  </outline>
</glyph>
<glyph name="rupeesignbeng" format="2">
  <advance width="655"/>
  <unicode hex="09F3"/>
  <outline>
    <contour>
      <point x="617" y="502" type="line"/>
      <point x="73" y="502" type="line"/>
      <point x="73" y="392" type="line"/>
      <point x="157" y="392" type="line"/>
      <point x="157" y="167" type="line" smooth="yes"/>
      <point x="157" y="83"/>
      <point x="175" y="57"/>
      <point x="198" y="36" type="curve" smooth="yes"/>
      <point x="221" y="14"/>
      <point x="258" y="0"/>
      <point x="314" y="0" type="curve" smooth="yes"/>
      <point x="437" y="0"/>
      <point x="589" y="78"/>
      <point x="589" y="223" type="curve" smooth="yes"/>
      <point x="589" y="299"/>
      <point x="537" y="334"/>
      <point x="458" y="334" type="curve" smooth="yes"/>
      <point x="426" y="334"/>
      <point x="395" y="331"/>
      <point x="371" y="325" type="curve"/>
      <point x="387" y="223" type="line"/>
      <point x="396" y="225"/>
      <point x="407" y="226"/>
      <point x="419" y="226" type="curve" smooth="yes"/>
      <point x="449" y="226"/>
      <point x="458" y="213"/>
      <point x="458" y="201" type="curve" smooth="yes"/>
      <point x="458" y="152"/>
      <point x="393" y="109"/>
      <point x="333" y="109" type="curve" smooth="yes"/>
      <point x="296" y="109"/>
      <point x="289" y="127"/>
      <point x="289" y="164" type="curve" smooth="yes"/>
      <point x="289" y="392" type="line"/>
      <point x="617" y="392" type="line"/>
    </contour>
    <contour>
      <point x="147" y="749" type="curve" smooth="yes"/>
      <point x="94" y="749"/>
      <point x="58" y="741"/>
      <point x="6" y="722" type="curve"/>
      <point x="44" y="626" type="line"/>
      <point x="64" y="634"/>
      <point x="83" y="638"/>
      <point x="101" y="638" type="curve" smooth="yes"/>
      <point x="149" y="638"/>
      <point x="157" y="612"/>
      <point x="157" y="562" type="curve" smooth="yes"/>
      <point x="157" y="498" type="line"/>
      <point x="289" y="498" type="line"/>
      <point x="289" y="567" type="line" smooth="yes"/>
      <point x="289" y="649"/>
      <point x="274" y="690"/>
      <point x="247" y="716" type="curve" smooth="yes"/>
      <point x="224" y="738"/>
      <point x="191" y="749"/>
    </contour>
  </outline>
</glyph>
<glyph name="uni09F4" format="2">
  <advance width="609"/>
  <unicode hex="09F4"/>
  <outline>
    <contour>
      <point x="54" y="208" type="curve"/>
      <point x="101" y="87" type="line"/>
      <point x="327" y="151"/>
      <point x="447" y="280"/>
      <point x="540" y="484" type="curve"/>
      <point x="411" y="532" type="line"/>
      <point x="331" y="377"/>
      <point x="239" y="265"/>
    </contour>
  </outline>
</glyph>
<glyph name="uni09F5" format="2">
  <advance width="721"/>
  <unicode hex="09F5"/>
  <outline>
    <contour>
      <point x="215" y="433" type="curve" smooth="yes"/>
      <point x="104" y="433"/>
      <point x="40" y="389"/>
      <point x="40" y="308" type="curve" smooth="yes"/>
      <point x="40" y="284"/>
      <point x="46" y="260"/>
      <point x="56" y="236" type="curve"/>
      <point x="177" y="261" type="line"/>
      <point x="173" y="271"/>
      <point x="171" y="279"/>
      <point x="171" y="290" type="curve" smooth="yes"/>
      <point x="171" y="311"/>
      <point x="184" y="326"/>
      <point x="217" y="326" type="curve" smooth="yes"/>
      <point x="251" y="326"/>
      <point x="270" y="306"/>
      <point x="270" y="277" type="curve" smooth="yes"/>
      <point x="270" y="241"/>
      <point x="231" y="212"/>
      <point x="192" y="203" type="curve"/>
      <point x="239" y="87" type="line"/>
      <point x="465" y="151"/>
      <point x="585" y="280"/>
      <point x="678" y="484" type="curve"/>
      <point x="549" y="532" type="line"/>
      <point x="491" y="423"/>
      <point x="439" y="344"/>
      <point x="363" y="286" type="curve"/>
      <point x="388" y="271" type="line"/>
      <point x="390" y="279"/>
      <point x="390" y="288"/>
      <point x="390" y="295" type="curve" smooth="yes"/>
      <point x="390" y="374"/>
      <point x="324" y="433"/>
    </contour>
  </outline>
</glyph>
<glyph name="uni09F6" format="2">
  <advance width="768"/>
  <unicode hex="09F6"/>
  <outline>
    <contour>
      <point x="231" y="0" type="curve" smooth="yes"/>
      <point x="567" y="0"/>
      <point x="676" y="281"/>
      <point x="722" y="611" type="curve"/>
      <point x="589" y="627" type="line"/>
      <point x="551" y="339"/>
      <point x="468" y="111"/>
      <point x="228" y="111" type="curve" smooth="yes"/>
      <point x="179" y="111"/>
      <point x="167" y="123"/>
      <point x="167" y="140" type="curve" smooth="yes"/>
      <point x="167" y="158"/>
      <point x="178" y="165"/>
      <point x="228" y="174" type="curve" smooth="yes"/>
      <point x="307" y="188"/>
      <point x="363" y="207"/>
      <point x="392" y="241" type="curve" smooth="yes"/>
      <point x="413" y="265"/>
      <point x="421" y="294"/>
      <point x="421" y="333" type="curve" smooth="yes"/>
      <point x="421" y="419"/>
      <point x="346" y="475"/>
      <point x="239" y="475" type="curve" smooth="yes"/>
      <point x="116" y="475"/>
      <point x="64" y="420"/>
      <point x="64" y="350" type="curve" smooth="yes"/>
      <point x="64" y="328"/>
      <point x="70" y="300"/>
      <point x="81" y="277" type="curve"/>
      <point x="202" y="303" type="line"/>
      <point x="198" y="312"/>
      <point x="196" y="323"/>
      <point x="196" y="331" type="curve" smooth="yes"/>
      <point x="196" y="352"/>
      <point x="209" y="368"/>
      <point x="240" y="368" type="curve" smooth="yes"/>
      <point x="280" y="368"/>
      <point x="294" y="344"/>
      <point x="294" y="322" type="curve" smooth="yes"/>
      <point x="294" y="291"/>
      <point x="271" y="283"/>
      <point x="200" y="271" type="curve" smooth="yes"/>
      <point x="87" y="252"/>
      <point x="40" y="215"/>
      <point x="40" y="139" type="curve" smooth="yes"/>
      <point x="40" y="58"/>
      <point x="110" y="0"/>
    </contour>
  </outline>
</glyph>
<glyph name="uni09F7" format="2">
  <advance width="326"/>
  <unicode hex="09F7"/>
  <outline>
    <contour>
      <point x="97" y="0" type="line"/>
      <point x="229" y="0" type="line"/>
      <point x="229" y="622" type="line"/>
      <point x="97" y="622" type="line"/>
    </contour>
  </outline>
</glyph>
<glyph name="uni09F8" format="2">
  <advance width="711"/>
  <unicode hex="09F8"/>
  <outline>
    <contour>
      <point x="56" y="625" type="curve"/>
      <point x="41" y="504" type="line"/>
      <point x="92" y="503"/>
      <point x="102" y="489"/>
      <point x="102" y="443" type="curve" smooth="yes"/>
      <point x="102" y="221" type="line"/>
      <point x="211" y="150" type="line"/>
      <point x="299" y="232"/>
      <point x="410" y="317"/>
      <point x="528" y="367" type="curve"/>
      <point x="478" y="374" type="line"/>
      <point x="478" y="150" type="line" smooth="yes"/>
      <point x="478" y="79"/>
      <point x="489" y="55"/>
      <point x="512" y="34" type="curve" smooth="yes"/>
      <point x="539" y="9"/>
      <point x="584" y="-1"/>
      <point x="656" y="-3" type="curve"/>
      <point x="670" y="118" type="line"/>
      <point x="619" y="119"/>
      <point x="610" y="133"/>
      <point x="610" y="179" type="curve" smooth="yes"/>
      <point x="610" y="420" type="line"/>
      <point x="521" y="492" type="line"/>
      <point x="387" y="439"/>
      <point x="276" y="366"/>
      <point x="205" y="290" type="curve"/>
      <point x="234" y="268" type="line"/>
      <point x="234" y="472" type="line" smooth="yes"/>
      <point x="234" y="543"/>
      <point x="222" y="567"/>
      <point x="199" y="588" type="curve" smooth="yes"/>
      <point x="172" y="613"/>
      <point x="127" y="623"/>
    </contour>
  </outline>
</glyph>
<glyph name="uni09F9" format="2">
  <advance width="498"/>
  <unicode hex="09F9"/>
  <outline>
    <contour>
      <point x="51" y="330" type="curve" smooth="yes"/>
      <point x="51" y="217"/>
      <point x="134" y="145"/>
      <point x="249" y="145" type="curve" smooth="yes"/>
      <point x="365" y="145"/>
      <point x="447" y="218"/>
      <point x="447" y="330" type="curve" smooth="yes"/>
      <point x="447" y="443"/>
      <point x="364" y="515"/>
      <point x="249" y="515" type="curve" smooth="yes"/>
      <point x="134" y="515"/>
      <point x="51" y="442"/>
    </contour>
    <contour>
      <point x="167" y="330" type="curve" smooth="yes"/>
      <point x="167" y="377"/>
      <point x="201" y="406"/>
      <point x="249" y="406" type="curve" smooth="yes"/>
      <point x="296" y="406"/>
      <point x="331" y="377"/>
      <point x="331" y="330" type="curve" smooth="yes"/>
      <point x="331" y="284"/>
      <point x="296" y="254"/>
      <point x="249" y="254" type="curve" smooth="yes"/>
      <point x="201" y="254"/>
      <point x="167" y="283"/>
    </contour>
  </outline>
</glyph>
<glyph name="issharbeng" format="2">
  <advance width="701"/>
  <unicode hex="09FA"/>
  <outline>
    <contour>
      <point x="319" y="347" type="curve" smooth="yes"/>
      <point x="516" y="347"/>
      <point x="595" y="472"/>
      <point x="661" y="711" type="curve"/>
      <point x="531" y="745" type="line"/>
      <point x="471" y="524"/>
      <point x="419" y="464"/>
      <point x="322" y="464" type="curve" smooth="yes"/>
      <point x="244" y="464"/>
      <point x="207" y="522"/>
      <point x="201" y="623" type="curve"/>
      <point x="69" y="613" type="line"/>
      <point x="82" y="427"/>
      <point x="190" y="347"/>
    </contour>
    <contour>
      <point x="333" y="506" type="curve" smooth="yes"/>
      <point x="375" y="506"/>
      <point x="406" y="538"/>
      <point x="406" y="581" type="curve" smooth="yes"/>
      <point x="406" y="623"/>
      <point x="375" y="655"/>
      <point x="333" y="655" type="curve" smooth="yes"/>
      <point x="291" y="655"/>
      <point x="260" y="623"/>
      <point x="260" y="581" type="curve" smooth="yes"/>
      <point x="260" y="538"/>
      <point x="291" y="506"/>
    </contour>
  </outline>
</glyph>
<glyph name="uni09FB" format="2">
  <advance width="311"/>
  <unicode hex="09FB"/>
  <outline>
    <contour>
      <point x="46" y="254" type="curve" smooth="yes"/>
      <point x="46" y="172"/>
      <point x="98" y="77"/>
      <point x="291" y="-146" type="curve"/>
      <point x="396" y="-63" type="line"/>
      <point x="226" y="127"/>
      <point x="187" y="196"/>
      <point x="187" y="237" type="curve" smooth="yes"/>
      <point x="187" y="267"/>
      <point x="208" y="291"/>
      <point x="259" y="312" type="curve"/>
      <point x="186" y="429" type="line"/>
      <point x="86" y="379"/>
      <point x="46" y="335"/>
    </contour>
  </outline>
</glyph>
<glyph name="uni09FC" format="2">
  <advance width="579"/>
  <unicode hex="09FC"/>
  <outline>
    <contour>
      <point x="528" y="490" type="curve"/>
      <point x="412" y="503" type="line"/>
      <point x="403" y="405"/>
      <point x="362" y="361"/>
      <point x="289" y="361" type="curve" smooth="yes"/>
      <point x="206" y="361"/>
      <point x="176" y="410"/>
      <point x="166" y="502" type="curve"/>
      <point x="51" y="489" type="line"/>
      <point x="66" y="354"/>
      <point x="138" y="260"/>
      <point x="293" y="260" type="curve" smooth="yes"/>
      <point x="449" y="260"/>
      <point x="515" y="358"/>
    </contour>
    <contour>
      <point x="354" y="463" type="curve" smooth="yes"/>
      <point x="354" y="503"/>
      <point x="330" y="526"/>
      <point x="288" y="526" type="curve" smooth="yes"/>
      <point x="246" y="526"/>
      <point x="224" y="501"/>
      <point x="224" y="464" type="curve" smooth="yes"/>
      <point x="224" y="424"/>
      <point x="247" y="399"/>
      <point x="289" y="399" type="curve" smooth="yes"/>
      <point x="329" y="399"/>
      <point x="354" y="422"/>
    </contour>
    <component base="viramabeng" xOffset="412" yOffset="210"/>
  </outline>
</glyph>
<glyph name="uni09FD" format="2">
  <advance width="445"/>
  <unicode hex="09FD"/>
  <outline>
    <contour>
      <point x="223" y="215" type="curve" smooth="yes"/>
      <point x="316" y="215"/>
      <point x="386" y="278"/>
      <point x="386" y="369" type="curve" smooth="yes"/>
      <point x="386" y="461"/>
      <point x="316" y="522"/>
      <point x="223" y="522" type="curve" smooth="yes"/>
      <point x="125" y="522"/>
      <point x="59" y="457"/>
      <point x="59" y="369" type="curve" smooth="yes"/>
      <point x="59" y="273"/>
      <point x="133" y="215"/>
    </contour>
    <contour>
      <point x="223" y="305" type="curve" smooth="yes"/>
      <point x="185" y="305"/>
      <point x="156" y="329"/>
      <point x="156" y="369" type="curve" smooth="yes"/>
      <point x="156" y="404"/>
      <point x="181" y="432"/>
      <point x="223" y="432" type="curve" smooth="yes"/>
      <point x="262" y="432"/>
      <point x="289" y="406"/>
      <point x="289" y="369" type="curve" smooth="yes"/>
      <point x="289" y="331"/>
      <point x="262" y="305"/>
    </contour>
  </outline>
</glyph>
<glyph name="uni09FE" format="2">
  <unicode hex="09FE"/>
  <outline>
    <contour>
      <point x="-9" y="846" type="curve" smooth="yes"/>
      <point x="-80" y="846"/>
      <point x="-124" y="819"/>
      <point x="-124" y="780" type="curve" smooth="yes"/>
      <point x="-124" y="765"/>
      <point x="-123" y="753"/>
      <point x="-118" y="743" type="curve"/>
      <point x="-36" y="751" type="line"/>
      <point x="-39" y="756"/>
      <point x="-40" y="762"/>
      <point x="-40" y="768" type="curve" smooth="yes"/>
      <point x="-40" y="779"/>
      <point x="-33" y="785"/>
      <point x="-7" y="785" type="curve" smooth="yes"/>
      <point x="26" y="785"/>
      <point x="41" y="770"/>
      <point x="41" y="751" type="curve" smooth="yes"/>
      <point x="41" y="727"/>
      <point x="21" y="715"/>
      <point x="-29" y="715" type="curve" smooth="yes"/>
      <point x="-65" y="715"/>
      <point x="-97" y="718"/>
      <point x="-121" y="726" type="curve"/>
      <point x="-135" y="661" type="line"/>
      <point x="-39" y="648"/>
      <point x="30" y="627"/>
      <point x="112" y="570" type="curve"/>
      <point x="154" y="627" type="line"/>
      <point x="103" y="661"/>
      <point x="47" y="682"/>
      <point x="-9" y="692" type="curve"/>
      <point x="13" y="663" type="line"/>
      <point x="89" y="673"/>
      <point x="125" y="703"/>
      <point x="125" y="754" type="curve" smooth="yes"/>
      <point x="125" y="810"/>
      <point x="74" y="846"/>
    </contour>
    <contour>
      <point x="27" y="917" type="line"/>
      <point x="-155" y="917" type="line"/>
      <point x="-155" y="851" type="line"/>
      <point x="-56" y="851" type="line"/>
      <point x="-56" y="826" type="line"/>
      <point x="27" y="823" type="line"/>
    </contour>
  </outline>
</glyph>
<glyph name="uni1CD0" format="2">
  <unicode hex="1CD0"/>
  <outline>
    <contour>
      <point x="-445" y="670" type="line"/>
      <point x="-347" y="631" type="line"/>
      <point x="-255" y="809" type="line"/>
      <point x="-149" y="631" type="line"/>
      <point x="-63" y="670" type="line"/>
      <point x="-208" y="906" type="line"/>
      <point x="-314" y="906" type="line"/>
    </contour>
  </outline>
</glyph>
<glyph name="uni1CD2" format="2">
  <unicode hex="1CD2"/>
  <outline>
    <contour>
      <point x="-441" y="801" type="line"/>
      <point x="-441" y="710" type="line"/>
      <point x="-69" y="710" type="line"/>
      <point x="-69" y="801" type="line"/>
    </contour>
  </outline>
</glyph>
<glyph name="uni1CD5" format="2">
  <unicode hex="1CD5"/>
  <outline>
    <contour>
      <point x="-215" y="-91" type="curve"/>
      <point x="-298" y="-91" type="line"/>
      <point x="-300" y="-151"/>
      <point x="-314" y="-176"/>
      <point x="-347" y="-176" type="curve" smooth="yes"/>
      <point x="-376" y="-176"/>
      <point x="-394" y="-163"/>
      <point x="-397" y="-89" type="curve"/>
      <point x="-492" y="-92" type="line"/>
      <point x="-486" y="-227"/>
      <point x="-435" y="-271"/>
      <point x="-357" y="-271" type="curve" smooth="yes"/>
      <point x="-267" y="-271"/>
      <point x="-240" y="-215"/>
    </contour>
    <contour>
      <point x="-212" y="-91" type="curve"/>
      <point x="-295" y="-91" type="line"/>
      <point x="-271" y="-215"/>
      <point x="-244" y="-271"/>
      <point x="-153" y="-271" type="curve" smooth="yes"/>
      <point x="-76" y="-271"/>
      <point x="-24" y="-227"/>
      <point x="-19" y="-92" type="curve"/>
      <point x="-113" y="-89" type="line"/>
      <point x="-117" y="-163"/>
      <point x="-134" y="-176"/>
      <point x="-163" y="-176" type="curve" smooth="yes"/>
      <point x="-196" y="-176"/>
      <point x="-210" y="-151"/>
    </contour>
  </outline>
</glyph>
<glyph name="uni1CD6" format="2">
  <unicode hex="1CD6"/>
  <outline>
    <contour>
      <point x="-449" y="-82" type="line"/>
      <point x="-449" y="-271" type="line"/>
      <point x="-58" y="-271" type="line"/>
      <point x="-58" y="-180" type="line"/>
      <point x="-346" y="-180" type="line"/>
      <point x="-346" y="-82" type="line"/>
    </contour>
  </outline>
</glyph>
<glyph name="uni1CD8" format="2">
  <unicode hex="1CD8"/>
  <outline>
    <contour>
      <point x="-12" y="-67" type="curve"/>
      <point x="-122" y="-31" type="line"/>
      <point x="-143" y="-119"/>
      <point x="-175" y="-170"/>
      <point x="-249" y="-170" type="curve" smooth="yes"/>
      <point x="-318" y="-170"/>
      <point x="-361" y="-126"/>
      <point x="-395" y="-31" type="curve"/>
      <point x="-498" y="-69" type="line"/>
      <point x="-446" y="-211"/>
      <point x="-359" y="-271"/>
      <point x="-252" y="-271" type="curve" smooth="yes"/>
      <point x="-134" y="-271"/>
      <point x="-48" y="-216"/>
    </contour>
  </outline>
</glyph>
<glyph name="uni1CE1" format="2">
  <advance width="485"/>
  <unicode hex="1CE1"/>
  <outline>
    <contour>
      <point x="472" y="761" type="curve"/>
      <point x="545" y="852" type="line"/>
      <point x="486" y="895"/>
      <point x="431" y="917"/>
      <point x="355" y="917" type="curve" smooth="yes"/>
      <point x="172" y="917"/>
      <point x="111" y="793"/>
      <point x="111" y="645" type="curve" smooth="yes"/>
      <point x="111" y="446"/>
      <point x="204" y="128"/>
      <point x="204" y="-106" type="curve" smooth="yes"/>
      <point x="204" y="-220"/>
      <point x="172" y="-293"/>
      <point x="67" y="-293" type="curve" smooth="yes"/>
      <point x="31" y="-293"/>
      <point x="-18" y="-292"/>
      <point x="-72" y="-278" type="curve"/>
      <point x="-79" y="-389" type="line"/>
      <point x="-22" y="-400"/>
      <point x="36" y="-404"/>
      <point x="66" y="-404" type="curve" smooth="yes"/>
      <point x="305" y="-404"/>
      <point x="338" y="-260"/>
      <point x="338" y="-113" type="curve" smooth="yes"/>
      <point x="338" y="150"/>
      <point x="246" y="435"/>
      <point x="246" y="645" type="curve" smooth="yes"/>
      <point x="246" y="756"/>
      <point x="286" y="806"/>
      <point x="355" y="806" type="curve" smooth="yes"/>
      <point x="392" y="806"/>
      <point x="434" y="789"/>
    </contour>
  </outline>
</glyph>
<glyph name="uni1CEA" format="2">
  <advance width="803"/>
  <unicode hex="1CEA"/>
  <outline>
    <contour>
      <point x="398" y="0" type="curve" smooth="yes"/>
      <point x="617" y="0"/>
      <point x="699" y="86"/>
      <point x="699" y="199" type="curve" smooth="yes"/>
      <point x="699" y="277"/>
      <point x="663" y="320"/>
      <point x="611" y="376" type="curve" smooth="yes"/>
      <point x="568" y="423"/>
      <point x="552" y="444"/>
      <point x="552" y="476" type="curve" smooth="yes"/>
      <point x="552" y="509"/>
      <point x="571" y="540"/>
      <point x="614" y="540" type="curve" smooth="yes"/>
      <point x="632" y="540"/>
      <point x="657" y="532"/>
      <point x="657" y="502" type="curve" smooth="yes"/>
      <point x="657" y="479"/>
      <point x="637" y="466"/>
      <point x="592" y="458" type="curve"/>
      <point x="640" y="366" type="line"/>
      <point x="725" y="389"/>
      <point x="769" y="427"/>
      <point x="769" y="501" type="curve" smooth="yes"/>
      <point x="769" y="583"/>
      <point x="708" y="632"/>
      <point x="604" y="632" type="curve" smooth="yes"/>
      <point x="457" y="632"/>
      <point x="420" y="548"/>
      <point x="420" y="480" type="curve" smooth="yes"/>
      <point x="420" y="420"/>
      <point x="439" y="385"/>
      <point x="495" y="326" type="curve" smooth="yes"/>
      <point x="543" y="275"/>
      <point x="565" y="248"/>
      <point x="565" y="209" type="curve" smooth="yes"/>
      <point x="565" y="152"/>
      <point x="526" y="114"/>
      <point x="397" y="114" type="curve" smooth="yes"/>
      <point x="274" y="114"/>
      <point x="233" y="152"/>
      <point x="233" y="205" type="curve" smooth="yes"/>
      <point x="233" y="244"/>
      <point x="250" y="266"/>
      <point x="304" y="319" type="curve" smooth="yes"/>
      <point x="364" y="378"/>
      <point x="385" y="417"/>
      <point x="385" y="480" type="curve" smooth="yes"/>
      <point x="385" y="548"/>
      <point x="339" y="632"/>
      <point x="196" y="632" type="curve" smooth="yes"/>
      <point x="94" y="632"/>
      <point x="35" y="580"/>
      <point x="35" y="500" type="curve" smooth="yes"/>
      <point x="35" y="437"/>
      <point x="71" y="392"/>
      <point x="163" y="368" type="curve"/>
      <point x="213" y="458" type="line"/>
      <point x="170" y="465"/>
      <point x="148" y="479"/>
      <point x="148" y="502" type="curve" smooth="yes"/>
      <point x="148" y="532"/>
      <point x="172" y="540"/>
      <point x="195" y="540" type="curve" smooth="yes"/>
      <point x="234" y="540"/>
      <point x="253" y="512"/>
      <point x="253" y="479" type="curve" smooth="yes"/>
      <point x="253" y="447"/>
      <point x="231" y="419"/>
      <point x="192" y="378" type="curve" smooth="yes"/>
      <point x="135" y="319"/>
      <point x="99" y="277"/>
      <point x="99" y="204" type="curve" smooth="yes"/>
      <point x="99" y="86"/>
      <point x="193" y="0"/>
    </contour>
  </outline>
</glyph>
<glyph name="uni1CED" format="2">
  <unicode hex="1CED"/>
  <outline>
    <contour>
      <point x="-327" y="-119" type="line"/>
      <point x="-95" y="-271" type="line"/>
      <point x="-31" y="-184" type="line"/>
      <point x="-263" y="-32" type="line"/>
    </contour>
  </outline>
</glyph>
<glyph name="uni1CF2" format="2">
  <advance width="591"/>
  <unicode hex="1CF2"/>
  <outline>
    <contour>
      <point x="298" y="289" type="curve" smooth="yes"/>
      <point x="422" y="289"/>
      <point x="512" y="347"/>
      <point x="550" y="503" type="curve"/>
      <point x="435" y="541" type="line"/>
      <point x="413" y="449"/>
      <point x="379" y="395"/>
      <point x="301" y="395" type="curve" smooth="yes"/>
      <point x="229" y="395"/>
      <point x="184" y="441"/>
      <point x="148" y="541" type="curve"/>
      <point x="40" y="501" type="line"/>
      <point x="94" y="352"/>
      <point x="186" y="289"/>
    </contour>
    <contour>
      <point x="292" y="265" type="curve" smooth="yes"/>
      <point x="168" y="265"/>
      <point x="78" y="207"/>
      <point x="40" y="51" type="curve"/>
      <point x="155" y="13" type="line"/>
      <point x="177" y="105"/>
      <point x="211" y="159"/>
      <point x="289" y="159" type="curve" smooth="yes"/>
      <point x="361" y="159"/>
      <point x="406" y="113"/>
      <point x="442" y="13" type="curve"/>
      <point x="550" y="53" type="line"/>
      <point x="496" y="202"/>
      <point x="404" y="265"/>
    </contour>
  </outline>
</glyph>
<glyph name="uni1CF6" format="2">
  <advance width="699"/>
  <unicode hex="1CF6"/>
  <outline>
    <contour>
      <point x="217" y="175" type="curve" smooth="yes"/>
      <point x="332" y="175"/>
      <point x="365" y="252"/>
      <point x="396" y="442" type="curve"/>
      <point x="299" y="442" type="line"/>
      <point x="297" y="321"/>
      <point x="276" y="280"/>
      <point x="230" y="280" type="curve" smooth="yes"/>
      <point x="192" y="280"/>
      <point x="165" y="307"/>
      <point x="160" y="446" type="curve"/>
      <point x="45" y="440" type="line"/>
      <point x="52" y="234"/>
      <point x="117" y="175"/>
    </contour>
    <contour>
      <point x="482" y="175" type="curve" smooth="yes"/>
      <point x="582" y="175"/>
      <point x="646" y="235"/>
      <point x="654" y="440" type="curve"/>
      <point x="538" y="446" type="line"/>
      <point x="533" y="307"/>
      <point x="508" y="280"/>
      <point x="468" y="280" type="curve" smooth="yes"/>
      <point x="423" y="280"/>
      <point x="401" y="324"/>
      <point x="399" y="442" type="curve"/>
      <point x="303" y="442" type="line"/>
      <point x="333" y="252"/>
      <point x="366" y="175"/>
    </contour>
  </outline>
</glyph>
<glyph name="uni1CF7" format="2">
  <advance width="485"/>
  <unicode hex="1CF7"/>
  <outline>
    <contour>
      <point x="472" y="761" type="curve"/>
      <point x="545" y="852" type="line"/>
      <point x="486" y="895"/>
      <point x="431" y="917"/>
      <point x="355" y="917" type="curve" smooth="yes"/>
      <point x="172" y="917"/>
      <point x="111" y="793"/>
      <point x="111" y="644" type="curve" smooth="yes"/>
      <point x="111" y="394"/>
      <point x="153" y="49"/>
      <point x="153" y="-271" type="curve"/>
      <point x="287" y="-271" type="line"/>
      <point x="287" y="65"/>
      <point x="246" y="379"/>
      <point x="246" y="644" type="curve" smooth="yes"/>
      <point x="246" y="756"/>
      <point x="286" y="806"/>
      <point x="355" y="806" type="curve" smooth="yes"/>
      <point x="392" y="806"/>
      <point x="434" y="789"/>
    </contour>
  </outline>
</glyph>
<glyph name="quotedblright.beng" format="2">
  <advance width="563"/>
  <unicode hex="201D"/>
  <outline>
    <contour>
      <point x="502" y="729" type="line"/>
      <point x="365" y="729" type="line"/>
      <point x="355" y="661"/>
      <point x="336" y="563"/>
      <point x="316" y="484" type="curve"/>
      <point x="423" y="484" type="line"/>
      <point x="456" y="557"/>
      <point x="491" y="647"/>
      <point x="509" y="718" type="curve"/>
    </contour>
    <contour>
      <point x="274" y="729" type="line"/>
      <point x="137" y="729" type="line"/>
      <point x="127" y="661"/>
      <point x="106" y="563"/>
      <point x="88" y="484" type="curve"/>
      <point x="195" y="484" type="line"/>
      <point x="228" y="557"/>
      <point x="263" y="647"/>
      <point x="281" y="718" type="curve"/>
    </contour>
  </outline>
</glyph>
<glyph name="uni20B9.beng" format="2">
  <advance width="621"/>
  <unicode hex="20B9"/>
  <outline>
    <contour>
      <point x="541" y="521" type="line"/>
      <point x="541" y="622" type="line"/>
      <point x="86" y="622" type="line"/>
      <point x="86" y="521" type="line"/>
      <point x="144" y="521" type="line" smooth="yes"/>
      <point x="195" y="521"/>
      <point x="218" y="517"/>
      <point x="236" y="501" type="curve" smooth="yes"/>
      <point x="255" y="486"/>
      <point x="268" y="459"/>
      <point x="268" y="417" type="curve" smooth="yes"/>
      <point x="268" y="381"/>
      <point x="259" y="354"/>
      <point x="241" y="335" type="curve" smooth="yes"/>
      <point x="222" y="317"/>
      <point x="197" y="308"/>
      <point x="130" y="308" type="curve" smooth="yes"/>
      <point x="104" y="308" type="line"/>
      <point x="86" y="212" type="line"/>
      <point x="266" y="0" type="line"/>
      <point x="431" y="0" type="line"/>
      <point x="220" y="237" type="line"/>
      <point x="220" y="217" type="line"/>
      <point x="334" y="238"/>
      <point x="399" y="307"/>
      <point x="399" y="408" type="curve" smooth="yes"/>
      <point x="399" y="455"/>
      <point x="379" y="500"/>
      <point x="352" y="521" type="curve"/>
    </contour>
    <contour>
      <point x="86" y="469" type="line"/>
      <point x="86" y="368" type="line"/>
      <point x="541" y="368" type="line"/>
      <point x="541" y="469" type="line"/>
    </contour>
  </outline>
</glyph>
<glyph name="uniA8F1" format="2">
  <unicode hex="A8F1"/>
  <outline>
    <contour>
      <point x="-137" y="627" type="curve" smooth="yes"/>
      <point x="-78" y="627"/>
      <point x="-46" y="661"/>
      <point x="-46" y="706" type="curve" smooth="yes"/>
      <point x="-46" y="742"/>
      <point x="-58" y="768"/>
      <point x="-116" y="806" type="curve" smooth="yes"/>
      <point x="-148" y="827"/>
      <point x="-153" y="831"/>
      <point x="-153" y="841" type="curve" smooth="yes"/>
      <point x="-153" y="846"/>
      <point x="-148" y="850"/>
      <point x="-138" y="850" type="curve" smooth="yes"/>
      <point x="-58" y="850" type="line"/>
      <point x="-58" y="912" type="line"/>
      <point x="-114" y="912" type="line" smooth="yes"/>
      <point x="-160" y="912"/>
      <point x="-179" y="907"/>
      <point x="-195" y="897" type="curve" smooth="yes"/>
      <point x="-213" y="886"/>
      <point x="-224" y="868"/>
      <point x="-224" y="844" type="curve" smooth="yes"/>
      <point x="-224" y="812"/>
      <point x="-208" y="788"/>
      <point x="-166" y="760" type="curve" smooth="yes"/>
      <point x="-123" y="731"/>
      <point x="-117" y="722"/>
      <point x="-117" y="709" type="curve" smooth="yes"/>
      <point x="-117" y="696"/>
      <point x="-127" y="690"/>
      <point x="-143" y="690" type="curve" smooth="yes"/>
      <point x="-179" y="690"/>
      <point x="-205" y="720"/>
      <point x="-232" y="761" type="curve"/>
      <point x="-292" y="730" type="line"/>
      <point x="-239" y="651"/>
      <point x="-200" y="627"/>
    </contour>
  </outline>
</glyph>
